<?xml version="1.0" standalone="no"?>
<!DOCTYPE svg PUBLIC "-//W3C//DTD SVG 20010904//EN"
 "http://www.w3.org/TR/2001/REC-SVG-20010904/DTD/svg10.dtd">
<svg version="1.0" xmlns="http://www.w3.org/2000/svg"
 width="1500.000000pt" height="1600.000000pt" viewBox="0 0 1500.000000 1600.000000"
 preserveAspectRatio="xMidYMid meet">
<metadata>
Created by potrace 1.16, written by Peter Selinger 2001-2019
</metadata>
<g transform="translate(0.000000,1600.000000) scale(0.100000,-0.100000)"
fill="#000000" stroke="none">
<path d="M3760 13663 c-38 -6 -131 -33 -167 -49 -17 -8 -36 -14 -41 -14 -6 0
-12 -4 -14 -8 -1 -4 -21 -19 -43 -32 -53 -32 -58 -36 -118 -96 -70 -70 -106
-115 -113 -141 -3 -13 -10 -23 -14 -23 -5 0 -11 -13 -15 -30 -4 -16 -10 -30
-15 -30 -4 0 -11 -17 -15 -37 -4 -21 -10 -42 -15 -48 -4 -5 -10 -29 -14 -52
-8 -53 -8 -8211 -1 -8224 10 -15 21 -11 55 21 25 24 41 30 75 30 51 0 64 -10
144 -109 57 -70 60 -76 44 -93 -9 -10 -21 -18 -28 -18 -6 0 -38 34 -71 75 -67
86 -93 99 -130 64 -13 -12 -24 -26 -24 -30 0 -3 31 -45 70 -91 l69 -85 -24
-23 c-14 -13 -26 -22 -28 -19 -22 29 -160 189 -161 187 -1 -2 0 -29 2 -61 3
-46 7 -57 19 -53 34 13 82 -32 83 -79 0 -31 -43 -105 -61 -105 -12 0 -2 -62
11 -70 5 -3 12 -18 15 -33 4 -15 11 -27 16 -27 5 0 9 -5 9 -11 0 -16 80 -120
119 -153 13 -12 37 -33 53 -49 16 -15 33 -27 38 -27 5 0 15 -6 22 -13 16 -15
101 -57 117 -57 6 0 11 -4 11 -9 0 -6 21 -13 48 -17 26 -4 50 -12 54 -18 5 -8
283 -11 1000 -11 985 0 993 0 996 20 7 38 43 65 84 65 37 0 39 -2 36 -27 -2
-23 -8 -29 -35 -31 -21 -2 -33 -9 -33 -18 0 -12 115 -14 826 -14 l827 0 -7 37
c-3 21 -6 131 -6 245 l0 208 -1882 2 -1883 3 -3 173 c-1 94 -4 172 -6 172 -2
0 -17 -7 -32 -15 -65 -33 -86 -23 -179 87 -74 86 -76 90 -59 109 9 10 22 19
28 19 6 -1 40 -37 75 -80 69 -87 99 -100 135 -61 21 23 21 23 -61 122 -35 43
-63 81 -63 86 0 6 8 18 19 27 18 16 21 14 77 -53 l59 -70 3 36 c4 46 -16 86
-39 80 -24 -6 -52 26 -45 51 4 12 -1 25 -14 37 -23 21 -24 32 -10 71 l11 27
36 -42 c30 -36 38 -40 50 -29 11 12 13 230 13 1343 l0 1329 -27 28 c-15 15
-30 28 -35 28 -18 0 -6 -38 23 -73 28 -34 33 -67 11 -67 -5 0 -33 27 -62 61
l-53 61 29 24 c52 43 60 45 87 24 l26 -21 -2 38 c-1 21 0 1193 1 2606 l2 2567
1189 0 c942 0 1190 3 1194 13 3 10 9 10 26 0 31 -19 64 -16 79 7 7 12 23 20
41 20 15 0 36 -9 46 -20 23 -26 39 -26 25 -1 -18 34 -12 69 15 87 20 13 23 20
14 35 -11 22 -4 39 15 39 13 0 116 -151 116 -170 0 -7 687 -10 2115 -10 l2115
0 0 -900 0 -900 40 -16 c22 -9 54 -34 71 -56 l32 -39 -57 -51 c-46 -41 -54
-53 -45 -65 21 -25 62 -12 78 25 12 26 20 32 44 32 28 0 29 -1 24 -37 -13 -75
-93 -121 -156 -89 -29 15 -31 15 -31 0 0 -9 9 -28 20 -44 19 -27 19 -27 0 -45
-19 -17 -20 -32 -20 -209 0 -106 5 -198 10 -206 8 -13 10 -13 10 1 0 14 9 27
50 76 5 7 10 16 10 21 0 5 9 20 20 33 11 13 23 29 27 34 85 112 146 173 258
258 5 4 21 16 34 27 13 11 30 20 36 20 22 0 25 26 25 189 l0 158 -34 -32 c-19
-18 -49 -38 -66 -43 -28 -10 -32 -9 -40 14 -11 27 -6 44 12 44 22 0 78 51 78
71 0 29 -23 33 -69 10 -53 -27 -95 -27 -121 1 -42 46 -17 121 55 164 50 29 75
26 75 -8 0 -16 -11 -29 -37 -43 -45 -25 -62 -50 -45 -67 9 -9 21 -7 57 10 50
24 86 28 116 12 17 -10 19 -7 19 26 0 45 -34 97 -60 89 -25 -8 -47 21 -33 44
8 13 7 23 -8 42 -23 30 -23 38 -1 67 l18 24 27 -36 c18 -23 33 -33 43 -29 13
5 15 85 12 695 -2 523 -6 691 -15 696 -7 4 -15 27 -19 50 -4 23 -10 42 -14 42
-5 0 -11 14 -15 30 -4 17 -11 30 -16 30 -5 0 -9 5 -9 10 0 18 -65 104 -116
154 -45 45 -78 71 -121 97 -21 13 -39 27 -41 31 -2 4 -11 8 -20 8 -9 0 -29 6
-44 14 -15 8 -42 17 -60 21 -18 4 -39 12 -47 19 -10 8 -892 11 -3400 12 -1862
1 -3397 0 -3411 -3z m2825 -235 c40 -47 51 -76 36 -91 -13 -13 -14 -12 -68 59
-18 24 -24 26 -32 15 -7 -11 -1 -27 20 -58 17 -24 27 -48 24 -53 -12 -20 -35
-9 -61 30 -26 39 -54 53 -54 27 0 -7 12 -29 26 -50 24 -36 27 -67 5 -67 -6 0
-29 27 -51 61 -40 58 -46 89 -17 89 8 0 20 7 27 15 7 8 20 15 29 15 9 0 22 9
29 20 19 30 56 25 87 -12z m4233 -1929 c12 -18 11 -24 -7 -43 -12 -12 -21 -29
-21 -38 0 -9 31 -52 69 -96 66 -75 69 -81 52 -96 -10 -9 -22 -16 -28 -16 -10
0 -91 89 -141 154 -31 40 -28 78 9 121 36 40 49 43 67 14z m-7281 -3636 c23
-26 43 -52 43 -58 0 -20 -60 -56 -88 -53 -36 4 -53 49 -29 76 19 21 22 42 7
42 -5 0 -10 -6 -10 -14 0 -24 -26 -38 -40 -22 -12 15 -8 28 18 59 25 28 53 20
99 -30z m-144 -31 c33 -34 34 -58 5 -89 l-21 -23 23 -25 c20 -21 21 -27 9 -41
-12 -15 -21 -9 -86 62 l-73 79 35 33 c43 39 73 41 108 4z"/>
<path d="M9110 12751 c-8 -5 -38 -11 -67 -15 -28 -4 -64 -13 -80 -21 -15 -8
-34 -15 -40 -15 -7 0 -13 -4 -13 -9 0 -5 -11 -12 -26 -15 -33 -9 -151 -127
-160 -160 -3 -15 -10 -26 -15 -26 -4 0 -11 -16 -15 -35 -3 -19 -10 -38 -15
-41 -5 -3 -9 -54 -9 -114 0 -60 4 -111 9 -114 5 -3 12 -23 16 -43 4 -21 10
-40 13 -43 10 -7 52 -68 52 -75 0 -8 73 -75 82 -75 4 0 13 -6 20 -12 25 -24
168 -88 196 -88 10 0 22 -3 26 -7 7 -8 60 -22 156 -44 25 -6 54 -14 65 -19 11
-5 35 -12 53 -15 40 -8 73 -24 95 -47 18 -18 24 -88 7 -88 -5 0 -10 -7 -10
-15 0 -9 -8 -19 -17 -22 -10 -4 -21 -11 -24 -16 -14 -21 -163 -43 -193 -29
-11 6 -36 13 -54 16 -56 10 -132 105 -132 166 0 22 -1 22 -107 15 -60 -3 -119
-10 -133 -15 -14 -5 -58 -11 -99 -14 -41 -4 -77 -9 -80 -11 -2 -3 1 -15 7 -28
6 -12 14 -41 17 -65 4 -24 13 -56 21 -70 8 -15 14 -35 14 -44 0 -10 4 -18 10
-18 5 0 12 -11 16 -25 3 -14 10 -25 14 -25 5 0 12 -9 15 -20 7 -22 101 -120
115 -120 5 0 15 -6 22 -12 19 -18 102 -58 121 -58 8 0 17 -4 19 -9 5 -14 161
-34 258 -34 95 0 250 20 264 34 6 5 17 9 25 9 49 0 199 104 246 172 23 33 36
54 45 78 6 14 16 36 23 49 8 16 12 73 11 170 0 118 -3 152 -17 176 -9 17 -17
36 -17 43 0 6 -4 12 -10 12 -5 0 -10 6 -10 14 0 18 -128 146 -146 146 -8 0
-14 4 -14 9 0 5 -13 12 -30 16 -16 4 -30 10 -30 15 0 4 -18 11 -40 15 -22 4
-40 10 -40 15 0 4 -22 11 -50 15 -27 4 -50 10 -50 15 0 4 -25 11 -55 15 -30 3
-57 10 -60 14 -2 5 -27 11 -54 15 -28 4 -53 10 -55 15 -3 5 -22 12 -41 15 -19
4 -35 10 -35 14 0 4 -10 12 -22 17 -13 6 -24 18 -26 28 -5 23 25 57 49 57 10
0 21 5 24 10 3 6 43 10 87 10 122 0 172 -28 188 -105 l6 -30 74 1 c62 2 345
20 345 23 0 42 -9 109 -16 116 -5 5 -9 15 -9 23 0 14 -39 101 -50 112 -3 3
-16 22 -30 42 -14 20 -41 47 -62 60 -21 13 -38 26 -38 31 0 4 -6 7 -14 7 -7 0
-19 7 -26 15 -7 8 -20 15 -29 15 -9 0 -29 7 -45 15 -16 8 -53 18 -83 21 -29 4
-56 11 -59 15 -3 5 -34 9 -70 9 -49 0 -64 -3 -64 -15 0 -20 -35 -37 -73 -33
-24 2 -33 8 -35 26 -4 24 -9 26 -32 13z"/>
<path d="M4430 11965 l0 -765 205 0 205 0 0 765 0 765 -205 0 -205 0 0 -765z"/>
<path d="M5080 12516 l0 -215 33 6 c29 4 37 0 75 -41 23 -25 42 -49 42 -53 0
-5 -16 -21 -36 -37 -30 -24 -41 -27 -63 -20 -34 12 -39 48 -12 85 17 22 18 29
7 29 -8 0 -22 -14 -30 -32 -14 -27 -16 -97 -16 -535 l0 -503 585 0 585 0 0
185 0 185 -377 2 -378 3 0 120 0 120 228 3 227 2 0 185 0 185 -230 0 -230 0 0
74 c0 41 3 81 6 90 5 14 48 16 380 16 l374 0 0 180 0 181 -249 -2 c-234 -1
-248 -2 -244 -19 8 -30 -17 -34 -46 -6 -25 24 -71 36 -71 19 0 -4 16 -23 35
-43 33 -34 35 -38 19 -51 -15 -12 -22 -8 -69 44 l-52 57 -247 0 -246 0 0 -214z
m512 163 l30 -21 -31 -32 c-30 -31 -32 -46 -5 -46 8 0 16 11 20 25 6 26 29 34
37 13 14 -38 -42 -86 -84 -73 -27 9 -69 63 -69 90 0 22 41 65 62 65 6 0 23
-10 40 -21z m-75 -121 c24 -23 43 -47 43 -54 0 -28 -30 -20 -66 17 -42 43 -52
47 -61 23 -4 -10 8 -29 32 -54 33 -34 36 -41 25 -55 -12 -14 -22 -8 -87 57
-40 40 -73 76 -73 81 0 17 32 19 50 2 17 -16 19 -16 30 4 18 35 58 27 107 -21z"/>
<path d="M6420 11965 l0 -765 540 0 c522 0 540 1 540 19 0 10 -9 21 -20 24
-14 3 -20 14 -20 31 0 19 5 26 20 26 18 0 20 7 20 71 l0 70 -32 -3 c-30 -3
-33 -6 -36 -40 -3 -32 -7 -38 -27 -38 -40 0 -48 60 -14 104 17 21 29 26 65 26
l44 0 0 40 0 40 -330 0 -330 0 0 580 0 580 -210 0 -210 0 0 -765z"/>
<path d="M7340 12550 l0 -180 199 0 c156 0 201 -3 210 -14 8 -10 11 -170 9
-585 l-3 -571 208 0 207 0 0 585 0 585 205 0 205 0 0 180 0 180 -620 0 -620 0
0 -180z"/>
<path d="M11600 10903 c-24 -2 -49 -8 -55 -13 -6 -5 -34 -12 -63 -16 -28 -3
-52 -10 -52 -14 0 -5 -15 -12 -32 -15 -18 -4 -35 -10 -38 -14 -3 -3 -27 -17
-55 -31 -52 -26 -56 -29 -94 -60 -13 -11 -27 -20 -30 -20 -10 0 -111 -98 -111
-107 0 -5 -14 -23 -32 -42 -35 -37 -36 -36 32 -81 12 -8 33 -23 45 -32 13 -10
28 -18 33 -18 6 0 12 -3 14 -7 5 -11 66 -53 77 -53 5 0 11 -3 13 -7 5 -11 66
-53 77 -53 5 0 11 -3 13 -7 4 -9 22 -22 203 -144 77 -51 142 -97 143 -101 2
-5 10 -8 18 -8 8 0 17 -6 20 -14 3 -8 16 -17 30 -20 13 -4 24 -11 24 -16 0 -6
7 -10 15 -10 9 0 18 -6 21 -14 3 -8 16 -17 30 -20 13 -4 24 -11 24 -16 0 -6 7
-10 15 -10 9 0 18 -7 21 -15 4 -8 12 -15 19 -15 10 0 24 -9 72 -50 7 -5 16
-10 21 -10 8 0 23 -11 69 -50 7 -5 15 -10 18 -10 5 0 64 -39 75 -50 11 -11 70
-50 75 -50 3 0 16 -9 28 -21 12 -11 45 -34 72 -50 87 -52 91 -54 131 -88 24
-20 41 -6 78 64 37 70 57 124 80 216 29 110 12 378 -29 466 -8 17 -15 38 -15
47 0 9 -4 16 -9 16 -5 0 -12 11 -15 24 -3 14 -23 53 -44 88 -52 88 -244 278
-281 278 -5 0 -11 3 -13 8 -5 11 -66 52 -78 52 -5 0 -10 4 -10 9 0 5 -13 12
-30 16 -16 4 -30 11 -30 16 0 5 -8 9 -17 9 -10 0 -31 7 -47 15 -16 8 -47 18
-70 22 -22 3 -43 10 -46 14 -7 9 -245 19 -310 12z"/>
<path d="M9926 10807 c-37 -53 -39 -87 -2 -44 28 33 57 47 98 47 28 0 43 -11
105 -77 79 -84 91 -106 73 -128 -21 -25 -35 -17 -90 51 -29 36 -64 73 -77 81
-21 14 -25 14 -49 -1 -14 -10 -28 -24 -31 -32 -3 -8 22 -47 61 -95 36 -44 66
-86 66 -92 0 -7 -10 -18 -22 -26 -20 -12 -24 -11 -41 10 -95 121 -154 189
-163 189 -15 0 -26 -28 -15 -35 5 -2 11 -14 14 -25 4 -16 -2 -23 -28 -34 -18
-8 -40 -24 -49 -37 -13 -20 -14 -25 -2 -37 11 -12 20 -11 54 7 82 42 152 14
152 -60 0 -37 -61 -106 -115 -130 -46 -21 -55 -18 -55 20 0 22 7 29 33 39 44
16 79 54 71 75 -8 22 -19 21 -73 -3 -54 -25 -86 -25 -109 -2 -20 20 -42 18
-42 -2 0 -11 -9 -25 -50 -73 -5 -7 -10 -15 -10 -18 0 -5 -39 -64 -50 -75 -11
-11 -50 -70 -50 -75 0 -3 -5 -11 -11 -18 -6 -7 -30 -40 -53 -74 l-44 -63 -38
46 c-91 108 -88 105 -122 98 -18 -4 -32 -10 -32 -15 0 -5 -6 -9 -12 -9 -7 -1
-31 -9 -53 -20 -22 -11 -48 -19 -57 -20 -10 0 -18 -4 -18 -10 0 -5 -5 -10 -11
-10 -9 0 -45 -15 -142 -59 l-38 -17 33 -37 c18 -20 38 -42 43 -49 6 -7 22 -28
38 -46 26 -33 27 -33 27 -9 0 41 30 68 83 74 45 5 47 5 47 -20 0 -23 -5 -26
-37 -29 -35 -3 -38 -6 -41 -35 -2 -21 -9 -33 -18 -33 -20 0 -18 -4 20 -45 29
-30 41 -36 68 -33 29 3 33 7 36 36 3 26 8 32 27 32 21 0 23 -3 18 -42 -5 -43
-32 -78 -59 -78 -19 0 -7 -22 43 -77 46 -52 85 -98 115 -138 13 -16 34 -41 48
-56 14 -14 32 -36 40 -48 8 -11 17 -21 20 -21 3 0 21 25 40 55 19 30 38 54 43
55 4 0 7 7 7 15 0 9 7 18 15 21 8 4 15 12 15 19 0 10 9 24 50 72 5 7 10 16 10
21 0 5 8 18 18 30 9 11 24 30 32 42 8 12 23 33 33 45 9 13 17 28 17 33 0 6 3
12 8 14 8 3 69 90 114 161 16 26 33 47 38 47 4 0 11 11 14 25 4 14 11 25 16
25 6 0 10 7 10 15 0 9 7 18 15 21 8 4 15 12 15 19 0 10 9 24 50 72 5 7 10 16
10 21 0 5 9 17 20 27 11 10 20 24 20 31 0 7 3 14 8 16 10 5 52 66 52 77 0 5 4
11 9 13 4 2 33 39 62 83 30 44 57 82 61 83 5 2 8 10 8 18 0 8 7 17 15 20 8 4
15 12 15 19 0 6 9 23 20 36 11 13 23 29 28 34 28 34 18 40 -27 18 -63 -32 -88
-22 -171 67 -61 66 -68 70 -122 78 l-57 9 -35 -50z"/>
<path d="M4430 10645 c0 -28 -61 -127 -108 -175 -50 -50 -177 -140 -199 -140
-7 0 -13 -4 -13 -9 0 -5 -15 -13 -32 -16 -58 -13 -58 -13 -58 -202 l0 -175 33
7 c17 4 34 11 37 15 3 5 22 11 43 15 20 4 37 11 37 15 0 5 14 11 30 15 17 4
30 10 30 15 0 5 14 11 30 15 17 4 30 11 30 16 0 5 6 9 14 9 7 0 19 7 26 15 7
8 19 15 26 15 12 0 14 -79 14 -480 l0 -480 190 0 190 0 0 770 0 770 -160 0
c-134 0 -160 -2 -160 -15z"/>
<path d="M8640 9870 l0 -770 504 0 504 0 26 45 c15 25 31 45 36 45 6 0 10 6
10 14 0 8 6 21 13 28 7 7 16 21 20 31 6 16 -20 17 -463 17 l-470 0 0 590 0
590 333 0 c252 0 337 3 349 13 8 6 30 35 49 62 19 28 37 52 42 53 4 2 7 10 7
17 0 8 8 19 18 24 12 7 -138 10 -480 11 l-498 0 0 -770z"/>
<path d="M5300 10428 l0 -143 1442 3 c794 1 1453 2 1466 2 22 0 22 1 22 140
l0 140 -1465 0 -1465 0 0 -142z"/>
<path d="M10813 10244 c-7 -7 -13 -16 -13 -19 0 -5 -39 -64 -50 -75 -14 -14
-50 -70 -50 -79 0 -5 -3 -11 -7 -13 -11 -5 -53 -66 -53 -77 0 -5 -3 -11 -7
-13 -9 -4 -53 -65 -53 -73 0 -3 -6 -13 -12 -21 -7 -8 -17 -20 -23 -27 -5 -7
-55 -79 -110 -162 -55 -82 -103 -151 -107 -153 -4 -2 -8 -10 -8 -18 0 -8 -6
-17 -14 -20 -8 -3 -17 -16 -20 -30 -4 -13 -11 -24 -16 -24 -6 0 -10 -7 -10
-15 0 -9 -7 -18 -15 -21 -8 -4 -15 -12 -15 -19 0 -10 -9 -24 -50 -72 -5 -7
-10 -16 -10 -21 0 -8 -11 -23 -50 -69 -5 -7 -10 -15 -10 -18 0 -8 -44 -69 -52
-73 -5 -2 -8 -8 -8 -13 0 -9 -36 -65 -50 -79 -14 -14 -50 -70 -50 -79 0 -5 -3
-11 -7 -13 -11 -5 -53 -66 -53 -77 0 -5 -3 -11 -7 -13 -10 -4 -53 -65 -53 -73
0 -4 -6 -13 -12 -20 -23 -26 -33 -39 -117 -167 -47 -71 -88 -128 -92 -128 -4
0 -10 -11 -13 -25 -4 -14 -11 -25 -16 -25 -6 0 -10 -7 -10 -15 0 -9 -6 -18
-14 -21 -8 -3 -17 -16 -20 -30 -4 -13 -11 -24 -16 -24 -6 0 -10 -7 -10 -15 0
-9 -7 -18 -15 -21 -8 -4 -15 -12 -15 -19 0 -10 -9 -24 -50 -72 -5 -7 -10 -16
-10 -21 0 -8 -11 -23 -50 -69 -5 -7 -10 -15 -10 -18 0 -8 -44 -69 -52 -73 -5
-2 -8 -9 -8 -16 0 -7 -9 -21 -20 -31 -11 -10 -20 -24 -20 -31 0 -7 -3 -14 -7
-16 -11 -5 -53 -66 -53 -77 0 -5 -3 -11 -7 -13 -11 -5 -53 -66 -53 -77 0 -5
-3 -11 -7 -13 -11 -5 -53 -66 -53 -77 0 -5 -4 -11 -9 -13 -5 -1 -46 -59 -92
-128 -46 -69 -87 -126 -91 -128 -5 -2 -8 -10 -8 -18 0 -8 -6 -17 -14 -20 -8
-3 -17 -16 -20 -30 -4 -13 -11 -24 -16 -24 -6 0 -10 -7 -10 -15 0 -9 -6 -18
-14 -21 -8 -3 -17 -16 -20 -30 -4 -13 -11 -24 -16 -24 -6 0 -10 -7 -10 -15 0
-9 -7 -18 -15 -21 -8 -4 -15 -12 -15 -19 0 -10 -9 -24 -50 -72 -5 -7 -10 -16
-10 -21 0 -8 -11 -23 -50 -69 -5 -7 -10 -15 -10 -18 0 -5 -39 -64 -50 -75 -14
-14 -50 -70 -50 -79 0 -5 -3 -11 -7 -13 -11 -5 -53 -66 -53 -77 0 -5 -3 -11
-7 -13 -10 -4 -53 -65 -53 -73 0 -4 -6 -13 -12 -20 -23 -25 -31 -38 -133 -190
-55 -82 -103 -151 -107 -153 -4 -2 -8 -10 -8 -18 0 -8 -6 -17 -14 -20 -8 -3
-17 -16 -20 -30 -4 -13 -11 -24 -16 -24 -6 0 -10 -7 -10 -15 0 -9 -7 -18 -15
-21 -8 -4 -15 -12 -15 -19 0 -10 -9 -24 -50 -72 -5 -7 -10 -16 -10 -21 0 -8
-11 -23 -50 -69 -5 -7 -10 -16 -10 -21 0 -8 -11 -23 -50 -69 -5 -7 -10 -15
-10 -18 0 -5 -39 -64 -50 -75 -14 -14 -50 -70 -50 -79 0 -5 -3 -11 -7 -13 -5
-1 -17 -17 -29 -33 -21 -30 -21 -34 -12 -380 4 -193 12 -480 17 -640 5 -159 9
-356 10 -437 l1 -147 33 11 c17 5 46 16 64 24 17 8 35 14 41 14 5 0 23 7 38
15 16 8 37 15 47 15 9 0 17 4 17 9 0 5 16 12 35 15 19 4 47 13 62 21 15 8 36
15 46 15 9 0 17 4 17 9 0 5 18 12 40 16 22 4 40 10 40 15 0 4 16 11 35 14 19
4 47 13 62 21 15 8 36 15 46 15 9 0 17 4 17 9 0 5 18 12 40 16 22 4 40 10 40
15 0 4 15 11 34 14 31 6 73 23 117 46 9 5 33 12 53 15 20 4 36 11 36 16 0 4
16 11 35 15 19 3 38 10 41 15 3 5 13 9 22 9 9 1 35 9 57 20 22 11 50 19 63 20
12 0 22 4 22 10 0 5 16 12 35 16 19 3 38 10 41 15 3 5 13 9 22 9 9 1 35 9 57
20 22 11 50 19 63 20 12 0 22 5 22 10 0 6 6 10 14 10 7 0 44 46 82 102 38 57
72 105 76 106 5 2 8 10 8 18 0 8 6 17 14 20 8 3 17 16 20 30 4 13 11 24 16 24
6 0 10 7 10 15 0 9 7 18 15 21 8 4 15 12 15 19 0 10 9 24 50 72 5 7 10 16 10
21 0 8 11 23 50 69 5 7 10 15 10 18 0 8 44 69 53 73 4 2 7 8 7 13 0 9 36 65
50 79 14 14 50 70 50 79 0 5 3 11 8 13 10 5 52 66 52 77 0 5 3 11 8 13 10 5
52 66 52 77 0 5 4 11 9 13 5 2 46 59 92 128 46 69 87 127 91 128 5 2 8 10 8
18 0 8 6 17 14 20 8 3 17 16 20 30 4 13 11 24 16 24 6 0 10 7 10 15 0 9 7 18
15 21 8 4 15 12 15 19 0 10 9 24 50 72 5 7 10 16 10 21 0 8 11 23 50 69 5 7
10 16 10 21 0 8 11 23 50 69 5 7 10 15 10 18 0 5 39 64 50 75 14 14 50 70 50
79 0 5 3 11 8 13 10 5 52 66 52 77 0 5 3 11 8 13 9 4 52 65 52 73 0 4 6 13 13
20 22 26 32 39 116 168 47 70 88 127 92 127 4 0 10 11 13 25 4 14 11 25 16 25
6 0 10 7 10 15 0 9 6 18 14 21 8 3 17 16 20 30 4 13 11 24 16 24 6 0 10 7 10
15 0 9 7 18 15 21 8 4 15 12 15 19 0 10 9 24 50 72 5 7 10 16 10 21 0 8 11 23
50 69 5 7 10 15 10 18 0 5 39 64 50 75 14 14 50 70 50 79 0 5 3 11 8 13 10 5
52 66 52 77 0 5 3 11 8 13 9 4 52 65 52 73 0 4 6 13 13 20 22 26 32 39 116
168 47 70 88 127 92 127 4 0 10 11 13 25 4 14 11 25 16 25 6 0 10 7 10 15 0 9
6 18 14 21 8 3 17 16 20 30 4 13 11 24 16 24 6 0 10 7 10 15 0 9 7 18 15 21 8
4 15 12 15 19 0 10 9 24 50 72 5 7 10 16 10 21 0 8 11 23 50 69 5 7 10 15 10
18 0 8 44 69 53 73 4 2 7 8 7 13 0 9 36 65 50 79 14 14 50 70 50 79 0 5 3 11
8 13 10 5 52 66 52 77 0 5 3 11 8 13 10 5 52 66 52 77 0 5 4 11 9 13 5 2 46
59 92 128 46 69 87 127 91 128 5 2 8 10 8 18 0 8 6 17 14 20 8 3 17 16 20 30
4 13 11 24 16 24 6 0 10 7 10 15 0 9 6 18 14 21 8 3 17 16 20 30 4 13 11 24
16 24 6 0 10 7 10 15 0 9 7 18 15 21 8 4 15 10 15 15 0 14 -36 46 -59 54 -12
3 -21 11 -21 16 0 5 -7 9 -15 9 -9 0 -18 7 -21 15 -4 8 -12 15 -19 15 -10 0
-24 9 -72 50 -17 14 -33 12 -33 -3 0 -12 -9 -26 -50 -74 -5 -7 -10 -15 -10
-18 0 -5 -39 -64 -50 -75 -14 -14 -50 -70 -50 -79 0 -5 -3 -11 -7 -13 -11 -5
-53 -66 -53 -77 0 -5 -3 -11 -7 -13 -10 -4 -53 -65 -53 -73 0 -4 -6 -13 -12
-20 -23 -26 -33 -39 -117 -167 -47 -71 -88 -128 -92 -128 -4 0 -10 -11 -13
-25 -4 -14 -11 -25 -16 -25 -6 0 -10 -7 -10 -15 0 -9 -6 -18 -14 -21 -8 -3
-17 -16 -20 -30 -4 -13 -11 -24 -16 -24 -6 0 -10 -7 -10 -15 0 -9 -7 -18 -15
-21 -8 -4 -15 -12 -15 -19 0 -10 -9 -24 -50 -72 -5 -7 -10 -16 -10 -21 0 -8
-11 -23 -50 -69 -5 -7 -10 -15 -10 -18 0 -8 -44 -69 -52 -73 -5 -2 -8 -9 -8
-16 0 -7 -9 -21 -20 -31 -11 -10 -20 -24 -20 -31 0 -7 -3 -14 -7 -16 -11 -5
-53 -66 -53 -77 0 -5 -3 -11 -7 -13 -11 -5 -53 -66 -53 -77 0 -5 -3 -11 -7
-13 -9 -4 -22 -22 -144 -203 -51 -77 -97 -141 -101 -143 -5 -2 -8 -10 -8 -18
0 -8 -6 -17 -14 -20 -8 -3 -17 -16 -20 -30 -4 -13 -11 -24 -16 -24 -6 0 -10
-7 -10 -15 0 -9 -7 -18 -15 -21 -8 -4 -15 -12 -15 -19 0 -10 -9 -24 -50 -72
-5 -7 -10 -16 -10 -21 0 -8 -11 -23 -50 -69 -5 -7 -10 -16 -10 -21 0 -8 -11
-23 -50 -69 -5 -7 -10 -15 -10 -18 0 -5 -39 -64 -50 -75 -14 -14 -50 -70 -50
-79 0 -5 -3 -11 -7 -13 -11 -5 -53 -66 -53 -77 0 -5 -3 -11 -7 -13 -9 -4 -53
-65 -53 -73 0 -3 -6 -13 -12 -21 -7 -8 -17 -20 -23 -27 -5 -7 -55 -79 -110
-162 -55 -82 -103 -151 -107 -153 -4 -2 -8 -10 -8 -18 0 -8 -6 -17 -14 -20 -8
-3 -17 -16 -20 -30 -4 -13 -11 -24 -16 -24 -6 0 -10 -7 -10 -15 0 -9 -7 -18
-15 -21 -8 -4 -15 -12 -15 -19 0 -10 -9 -24 -50 -72 -5 -7 -10 -15 -10 -18 0
-8 -44 -69 -52 -73 -5 -2 -8 -8 -8 -13 0 -11 -42 -72 -52 -77 -5 -2 -8 -8 -8
-13 0 -9 -36 -65 -50 -79 -14 -14 -50 -70 -50 -79 0 -5 -3 -11 -7 -13 -11 -5
-53 -66 -53 -77 0 -5 -3 -11 -7 -13 -11 -5 -53 -66 -53 -77 0 -5 -4 -11 -9
-13 -5 -1 -46 -59 -92 -128 -46 -69 -87 -126 -91 -128 -5 -2 -8 -10 -8 -18 0
-8 -6 -17 -14 -20 -8 -3 -17 -16 -20 -30 -4 -13 -11 -24 -16 -24 -6 0 -10 -6
-10 -13 0 -16 -27 -39 -70 -60 -39 -20 -111 -22 -143 -4 -39 21 -87 70 -87 88
0 10 -4 21 -10 24 -24 15 5 155 32 155 4 0 8 7 8 15 0 9 6 18 14 21 8 3 17 16
20 30 4 13 11 24 16 24 6 0 10 7 10 15 0 9 7 18 15 21 8 4 15 12 15 19 0 10 9
24 50 72 5 7 10 16 10 21 0 8 11 23 50 69 5 7 10 15 10 18 0 5 39 64 50 75 14
14 50 70 50 79 0 5 3 11 8 13 10 5 52 66 52 77 0 5 3 11 8 13 9 4 52 65 52 73
0 4 6 13 13 20 22 25 30 38 132 190 55 83 103 152 107 153 4 2 8 10 8 18 0 8
6 17 14 20 8 3 17 16 20 30 4 13 11 24 16 24 6 0 10 7 10 15 0 9 7 18 15 21 8
4 15 12 15 19 0 10 9 24 50 72 5 7 10 16 10 21 0 8 11 23 50 69 5 7 10 15 10
18 0 8 44 69 53 73 4 2 7 8 7 13 0 9 36 65 50 79 14 14 50 70 50 79 0 5 3 11
8 13 10 5 52 66 52 77 0 5 3 11 8 13 10 5 52 66 52 77 0 5 4 11 9 13 5 2 46
59 92 128 46 69 87 127 91 128 5 2 8 10 8 18 0 8 6 17 14 20 8 3 17 16 20 30
4 13 11 24 16 24 6 0 10 7 10 15 0 9 6 18 14 21 8 3 17 16 20 30 4 13 11 24
16 24 6 0 10 7 10 15 0 9 7 18 15 21 8 4 15 12 15 19 0 10 9 24 50 72 5 7 10
16 10 21 0 8 11 23 50 69 5 7 10 15 10 18 0 8 44 69 53 73 4 2 7 8 7 12 0 5
23 39 50 76 28 37 50 70 50 73 0 3 -23 4 -51 2 -48 -3 -51 -2 -47 20 2 18 11
25 33 29 25 4 32 12 39 43 8 29 14 37 32 37 19 0 23 -6 26 -40 l3 -41 119 181
c66 99 123 180 127 180 4 0 10 11 13 25 4 14 11 25 16 25 6 0 10 7 10 15 0 9
6 18 14 21 8 3 17 16 20 30 4 13 11 24 16 24 6 0 10 7 10 15 0 9 7 18 15 21 8
4 15 12 15 19 0 10 9 24 50 72 5 7 10 16 10 21 0 8 11 23 50 69 5 7 10 15 10
18 0 8 44 69 53 73 4 2 7 8 7 13 0 9 36 65 50 79 14 14 50 70 50 79 0 5 3 11
8 13 10 5 52 66 52 77 0 5 3 11 8 13 8 3 52 64 52 73 0 2 9 15 20 28 45 52 78
114 68 130 -5 10 -15 17 -23 17 -7 0 -15 3 -17 8 -5 10 -66 52 -77 52 -5 0
-11 3 -13 8 -4 8 -22 21 -203 143 -77 51 -141 97 -143 101 -2 5 -10 8 -18 8
-8 0 -17 6 -20 14 -3 8 -16 17 -30 20 -13 4 -24 11 -24 16 0 6 -7 10 -15 10
-9 0 -18 6 -21 14 -3 8 -16 17 -30 20 -13 4 -24 11 -24 16 0 6 -7 10 -15 10
-9 0 -18 7 -21 15 -4 8 -12 15 -19 15 -10 0 -24 9 -72 50 -7 5 -16 10 -21 10
-5 0 -20 9 -33 20 -38 31 -61 47 -109 74 -21 12 -27 12 -37 0z m-877 -2711
c48 -52 51 -61 30 -69 -9 -3 -29 11 -51 35 -57 63 -79 33 -25 -34 24 -30 28
-41 18 -52 -10 -12 -18 -7 -51 31 -36 44 -57 51 -57 22 0 -7 14 -30 30 -51 23
-29 27 -41 19 -51 -15 -18 -18 -15 -69 51 l-43 56 34 29 c19 16 39 29 45 30 7
0 19 11 28 25 24 36 42 31 92 -22z m-225 -165 l52 -69 -34 -29 c-45 -39 -70
-38 -108 5 -39 44 -40 77 -4 103 26 19 27 21 11 39 -14 15 -15 22 -6 31 15 15
26 6 89 -80z m-243 -165 c47 -67 59 -103 34 -103 -4 0 -32 34 -61 75 -30 41
-56 73 -58 71 -2 -2 10 -41 27 -87 34 -94 36 -107 16 -115 -17 -7 -178 114
-173 130 7 22 27 15 81 -29 31 -25 56 -44 56 -41 0 3 -11 36 -25 73 -17 44
-22 69 -15 71 6 2 16 10 23 18 23 26 42 13 95 -63z m-216 -135 c25 -21 48 -61
48 -84 0 -30 -47 -66 -74 -58 -28 8 -76 63 -76 88 0 27 39 66 65 66 12 0 28
-6 37 -12z m-927 -734 c8 -4 23 -20 31 -36 14 -27 14 -32 -5 -64 -20 -33 -20
-36 -4 -60 12 -19 13 -28 5 -36 -9 -9 -18 -6 -37 12 -34 32 -105 124 -105 136
0 13 62 54 82 54 9 0 24 -3 33 -6z m105 -708 c0 -7 7 -27 15 -42 8 -16 15 -41
15 -56 0 -16 4 -28 9 -28 6 0 13 -20 17 -45 3 -25 10 -45 14 -45 4 0 11 -20
14 -45 4 -24 11 -47 17 -50 5 -4 9 -17 9 -31 0 -22 4 -24 44 -24 25 0 55 4 68
9 13 4 83 11 156 15 l132 7 0 -36 c0 -19 4 -43 10 -53 9 -16 15 -49 42 -247 7
-44 15 -82 19 -85 3 -3 10 -38 14 -77 6 -63 5 -73 -9 -73 -9 0 -16 -4 -16 -9
0 -5 -16 -12 -35 -15 -19 -4 -47 -13 -62 -21 -15 -8 -36 -15 -45 -15 -9 0 -19
-4 -22 -9 -4 -5 -24 -12 -46 -16 -22 -4 -42 -11 -46 -16 -3 -5 -13 -9 -22 -9
-9 0 -30 -7 -45 -15 -15 -8 -43 -17 -62 -21 -19 -3 -35 -10 -35 -14 0 -5 -19
-11 -42 -15 -24 -4 -46 -13 -50 -19 -9 -14 -106 -15 -116 -1 -10 15 -70 55
-81 55 -5 0 -11 3 -13 8 -5 10 -66 52 -77 52 -5 0 -11 3 -13 8 -5 10 -66 52
-77 52 -5 0 -11 4 -13 9 -1 5 -48 39 -103 75 l-100 67 -7 122 c-19 360 -25
533 -19 540 4 4 31 10 59 14 29 3 52 9 52 14 0 4 29 11 65 14 36 4 67 11 70
15 3 5 32 11 65 15 33 4 62 11 65 15 3 4 31 11 63 15 32 3 65 11 73 16 21 13
49 11 49 -5z"/>
<path d="M10166 10145 c-6 -11 -16 -27 -24 -35 -8 -8 -28 -36 -44 -62 -16 -26
-34 -48 -39 -48 -5 0 -9 -6 -9 -13 0 -12 -9 -26 -50 -74 -6 -7 -10 -70 -10
-147 0 -116 2 -135 15 -130 8 4 15 12 15 19 0 6 9 20 20 30 11 10 20 24 20 31
0 7 3 14 8 16 11 5 52 66 52 78 0 5 4 10 8 10 5 0 18 20 31 44 19 40 21 57 19
173 -2 89 -6 122 -12 108z"/>
<path d="M5300 9895 l0 -145 1465 0 1465 0 0 145 0 145 -1465 0 -1465 0 0
-145z"/>
<path d="M5300 9360 l0 -140 1010 0 1010 0 0 140 0 140 -1010 0 -1010 0 0
-140z"/>
<path d="M4477 8519 c-17 -19 -20 -19 -42 -5 -29 19 -64 20 -97 3 -24 -12 -24
-12 -6 -42 23 -38 23 -38 -8 -74 -38 -46 -76 -43 -110 9 -31 46 -48 47 -52 4
-3 -27 1 -31 40 -45 73 -27 43 -60 -31 -35 -23 8 -23 8 -7 -15 21 -31 20 -49
-3 -49 -10 0 -30 18 -46 40 -15 22 -32 40 -36 40 -17 0 -9 -23 21 -57 17 -18
30 -40 30 -48 0 -26 -34 -16 -62 17 -21 25 -28 29 -28 16 0 -10 -5 -18 -11
-18 -5 0 2 -16 17 -36 23 -29 25 -37 13 -45 -21 -13 -29 -11 -36 8 -5 13 -9 9
-19 -18 -7 -19 -13 -49 -13 -66 l-1 -33 71 0 c39 0 78 -4 87 -9 9 -4 61 -11
115 -14 l97 -5 0 28 c0 16 4 31 9 34 5 3 12 18 15 32 13 49 33 59 115 59 84 0
121 -19 121 -62 0 -13 5 -23 10 -23 12 0 13 -67 1 -74 -5 -3 -12 -22 -15 -41
-4 -19 -11 -35 -16 -35 -6 0 -10 -7 -10 -15 0 -8 -102 -118 -227 -244 -257
-259 -279 -282 -288 -311 -3 -11 -10 -20 -15 -20 -4 0 -11 -11 -14 -25 -4 -14
-11 -25 -16 -25 -6 0 -10 -6 -10 -12 0 -7 -6 -25 -14 -40 -8 -15 -17 -42 -21
-60 -4 -18 -11 -38 -16 -43 -4 -6 -11 -45 -15 -88 l-7 -77 532 0 531 0 0 180
0 180 -235 0 c-181 0 -235 3 -235 13 0 6 22 30 48 52 44 38 265 258 287 287 6
7 22 31 35 53 13 22 27 42 31 45 3 3 10 16 14 30 4 14 11 27 14 30 26 19 56
330 33 330 -5 0 -13 20 -16 45 -4 25 -11 45 -17 45 -5 0 -9 5 -9 10 0 23 -100
140 -120 140 -5 0 -15 6 -22 13 -18 17 -102 57 -120 57 -8 0 -18 4 -23 9 -6 5
-48 12 -95 15 -77 5 -87 4 -103 -15z"/>
<path d="M8640 8064 l0 -447 20 26 c11 14 20 30 20 35 0 6 3 12 8 14 8 4 52
65 52 73 0 3 6 13 13 21 70 84 67 69 67 324 l0 230 149 0 c155 0 181 4 181 25
0 10 9 24 50 72 5 7 10 16 10 21 0 5 7 15 15 22 8 7 15 16 15 21 0 5 -135 9
-300 9 l-300 0 0 -446z"/>
<path d="M5300 8305 l0 -145 1465 0 1465 0 0 145 0 145 -395 0 -395 0 0 -25
c0 -20 -5 -25 -25 -25 -20 0 -25 5 -25 25 l0 25 -1045 0 -1045 0 0 -145z"/>
<path d="M5300 7770 l0 -140 1465 0 1465 0 0 140 0 140 -1465 0 -1465 0 0
-140z"/>
<path d="M5300 7240 l0 -150 1010 0 1010 0 0 150 0 150 -1010 0 -1010 0 0
-150z"/>
<path d="M11102 6842 c-2 -11 -38 -68 -52 -82 -14 -14 -50 -70 -50 -79 0 -5
-3 -11 -7 -13 -11 -5 -53 -66 -53 -77 0 -5 -3 -11 -7 -13 -9 -4 -53 -65 -53
-73 0 -3 -6 -13 -12 -21 -7 -8 -18 -20 -23 -27 -6 -7 -46 -66 -89 -132 -43
-66 -84 -124 -90 -130 -33 -29 -36 -66 -36 -400 l0 -335 37 0 c30 0 44 -8 81
-47 l45 -47 -63 -56 c-54 -49 -60 -57 -47 -69 25 -20 60 -9 77 24 8 17 15 31
15 32 0 1 12 4 28 8 25 7 27 5 27 -21 0 -92 -118 -155 -182 -97 -17 15 -18 14
-18 -7 0 -13 10 -34 22 -47 l21 -23 -21 -23 c-22 -23 -22 -29 -22 -315 l0
-292 -351 0 -350 0 -33 -25 c-18 -14 -47 -28 -64 -31 -32 -7 -36 -2 -35 44 1
9 -35 12 -148 12 -122 0 -149 -3 -149 -14 0 -8 -3 -16 -7 -18 -10 -4 -53 -65
-53 -73 0 -14 -28 -33 -59 -40 -18 -4 -44 -13 -59 -21 -15 -8 -35 -14 -44 -14
-10 0 -18 -4 -18 -9 0 -5 -18 -12 -40 -16 -22 -4 -40 -10 -40 -15 0 -4 -16
-11 -35 -14 -19 -4 -47 -13 -62 -21 -15 -8 -36 -15 -45 -15 -10 0 -18 -4 -18
-9 0 -5 -18 -12 -40 -16 -22 -4 -40 -10 -40 -15 0 -4 -15 -11 -34 -14 -31 -6
-73 -23 -117 -46 -9 -5 -33 -12 -53 -15 -20 -4 -36 -11 -36 -16 0 -4 -16 -11
-35 -15 -19 -3 -38 -10 -41 -15 -3 -5 -13 -9 -22 -9 -9 0 -30 -7 -47 -16 -16
-8 -46 -19 -65 -24 -21 -5 82 -8 268 -9 298 -1 302 -1 302 19 0 34 44 70 85
70 30 0 35 -3 35 -24 0 -21 -6 -25 -32 -28 -22 -2 -34 -9 -36 -21 -4 -18 24
-18 717 -15 513 2 724 6 729 14 4 6 24 14 46 18 21 4 46 11 55 16 9 5 39 19
66 32 28 13 56 29 63 36 7 6 18 12 23 12 12 0 169 156 169 168 0 8 11 23 50
69 5 7 10 16 10 20 0 4 6 20 14 35 8 15 17 42 21 60 4 18 12 39 19 47 8 10 12
151 14 478 l3 464 -38 -25 c-55 -36 -75 -37 -84 -3 -7 24 -4 29 25 41 39 16
77 61 69 82 -7 19 -16 18 -63 -6 -56 -29 -104 -26 -129 6 -40 51 -15 121 59
163 45 25 64 23 73 -8 4 -17 -2 -25 -34 -41 -47 -24 -65 -53 -45 -70 11 -9 24
-6 57 10 26 14 54 20 75 18 l34 -4 0 47 c0 49 -16 74 -42 64 -22 -9 -54 31
-39 48 8 11 6 20 -9 40 -18 22 -19 29 -8 54 7 15 14 30 16 33 2 2 18 -13 37
-35 18 -22 36 -37 39 -34 3 3 5 233 3 510 -1 277 -3 498 -5 491z m-259 -1253
c8 -13 5 -23 -11 -44 -12 -15 -22 -31 -22 -36 0 -5 29 -45 65 -89 36 -44 65
-83 65 -86 0 -3 -10 -14 -22 -24 -22 -17 -23 -17 -86 59 -99 119 -108 157 -49
219 23 25 45 25 60 1z"/>
<path d="M4366 6421 c-3 -4 -25 -11 -49 -14 -58 -8 -162 -63 -206 -109 -50
-51 -71 -80 -71 -95 0 -7 -4 -13 -9 -13 -5 0 -13 -15 -16 -32 -4 -18 -11 -37
-15 -43 -5 -5 -11 -31 -15 -57 -6 -43 -5 -48 11 -48 11 0 32 -7 48 -15 15 -8
36 -15 45 -15 9 0 28 -6 43 -14 15 -8 42 -17 60 -21 18 -4 35 -11 38 -16 3 -4
26 -9 50 -11 l45 -3 3 48 c2 26 7 47 13 47 5 0 9 6 9 14 0 7 12 26 27 42 23
25 34 29 78 29 44 0 55 -4 78 -29 19 -20 27 -40 27 -64 0 -31 2 -33 16 -21 14
11 19 10 36 -10 19 -24 19 -24 -7 -51 -30 -31 -30 -34 -5 -70 l19 -27 -23 -22
-23 -22 -27 31 c-14 17 -29 42 -32 56 -7 28 -10 29 -29 10 -10 -10 -11 -16 -2
-25 9 -9 5 -17 -18 -35 l-29 -24 48 -56 c46 -54 51 -57 85 -51 29 5 38 2 48
-14 11 -17 9 -23 -14 -40 -56 -45 -98 -26 -185 79 l-37 45 0 -55 c-1 -51 1
-56 30 -72 16 -10 34 -30 40 -45 7 -23 16 -28 44 -30 19 -1 42 -9 51 -17 8 -9
19 -16 23 -16 4 0 18 -21 31 -46 19 -39 22 -57 17 -111 -3 -36 -9 -68 -15 -72
-5 -3 -12 -15 -16 -26 -27 -82 -210 -80 -232 3 -3 12 -10 22 -14 22 -4 0 -10
14 -13 30 -6 25 -11 30 -36 30 -18 0 -41 -10 -57 -25 -25 -24 -28 -24 -45 -9
-15 14 -31 16 -84 11 -95 -9 -160 -64 -102 -86 28 -11 60 7 67 40 4 18 14 25
38 27 37 4 40 -9 18 -62 -17 -42 -65 -76 -105 -76 -21 0 -31 -5 -31 -15 0 -8
5 -15 10 -15 6 0 10 -5 10 -10 0 -28 124 -164 160 -175 11 -3 20 -10 20 -15 0
-5 14 -11 30 -15 17 -4 30 -10 30 -15 0 -5 20 -12 45 -16 25 -3 48 -10 51 -15
7 -12 241 -12 248 0 3 4 23 11 44 15 41 6 140 55 171 84 10 9 29 26 42 38 51
45 109 131 109 161 0 6 4 13 10 15 13 4 33 111 33 178 0 56 -19 161 -31 170
-4 3 -16 22 -26 42 -20 39 -107 128 -125 128 -18 0 -12 21 12 44 28 28 67 82
67 95 0 5 6 12 13 14 6 3 -1 6 -18 7 -44 1 -69 19 -120 84 -55 71 -63 97 -41
142 28 60 115 94 159 61 16 -11 16 -14 1 -35 -9 -14 -22 -21 -31 -18 -16 6
-53 -10 -65 -28 -14 -20 -8 -34 32 -85 47 -60 84 -69 101 -25 10 29 -6 184
-20 194 -5 3 -11 15 -15 27 -11 35 -81 115 -136 154 -52 38 -96 57 -146 65
-24 3 -47 10 -50 15 -7 12 -191 12 -198 0z"/>
<path d="M5300 6180 l0 -140 1144 0 1144 0 6 25 c4 14 11 25 16 25 6 0 10 7
10 15 0 9 7 18 15 21 8 4 15 12 15 19 0 10 9 24 50 72 5 7 10 16 10 21 0 8 11
24 50 70 9 9 -237 12 -1225 12 l-1235 0 0 -140z"/>
<path d="M5300 5650 l0 -150 1042 0 1041 0 -6 119 c-5 109 -4 122 14 144 10
14 19 28 19 31 0 3 -475 6 -1055 6 l-1055 0 0 -150z"/>
<path d="M10083 5331 l-93 -140 0 -80 0 -81 -60 0 c-47 0 -60 -3 -60 -15 0 -9
-7 -18 -15 -21 -8 -4 -15 -12 -15 -19 0 -6 -9 -22 -20 -35 -18 -21 -30 -53
-13 -37 4 4 18 -3 32 -16 39 -36 56 -38 92 -11 41 30 96 32 133 3 14 -11 34
-19 43 -17 14 3 10 11 -20 44 -42 47 -46 64 -17 82 17 11 24 8 55 -25 19 -21
35 -41 35 -45 0 -5 4 -8 9 -8 6 0 10 116 10 280 1 154 0 280 -1 280 -2 0 -45
-63 -95 -139z"/>
<path d="M5300 5115 l0 -145 1010 0 1010 0 0 145 0 145 -1010 0 -1010 0 0
-145z"/>
<path d="M0 500 l0 -500 7500 0 7500 0 0 500 0 500 -7500 0 -7500 0 0 -500z
m860 144 l0 -56 34 6 c41 8 92 -11 121 -44 17 -19 21 -39 24 -141 l3 -119 -36
0 -36 0 0 104 c0 121 -9 139 -69 134 l-36 -3 -3 -117 -3 -118 -34 0 -35 0 0
205 0 205 35 0 35 0 0 -56z m630 -54 l49 0 3 37 c2 30 9 41 36 56 l32 19 0
-56 0 -56 41 0 c39 0 40 -1 37 -32 -3 -30 -6 -33 -40 -36 l-38 -3 0 -66 c0
-71 16 -103 52 -103 13 0 18 -8 18 -30 0 -28 -3 -30 -36 -30 -75 0 -104 44
-104 160 l0 70 -50 0 -50 0 0 -69 c0 -74 14 -101 51 -101 14 0 19 -7 19 -30 0
-28 -2 -30 -39 -30 -28 0 -49 7 -68 24 -26 23 -28 30 -31 115 -3 70 -7 91 -18
91 -9 0 -14 12 -14 35 0 24 5 35 15 35 11 0 15 11 15 38 0 33 4 40 33 54 l32
15 3 -53 3 -54 49 0z m1010 55 l0 -55 35 0 c33 0 35 -2 35 -35 0 -33 -2 -35
-35 -35 l-35 0 0 -76 c0 -75 0 -76 30 -87 23 -9 30 -17 30 -39 0 -26 -3 -28
-37 -28 -71 1 -93 37 -93 148 0 71 -2 80 -20 85 -15 4 -20 14 -20 36 0 24 4
31 20 31 16 0 20 7 20 38 0 30 5 40 28 54 15 9 30 17 35 17 4 1 7 -24 7 -54z
m710 -56 l0 -111 47 56 c45 53 50 56 92 56 l45 0 -35 -37 c-19 -21 -47 -52
-62 -69 l-28 -31 61 -78 c33 -43 60 -79 60 -81 0 -2 -17 -4 -39 -4 -35 0 -42
5 -80 55 -23 31 -46 53 -52 50 -5 -4 -9 -28 -9 -56 l0 -49 -35 0 -35 0 0 205
0 205 35 0 35 0 0 -111z m-2468 -10 c14 -8 15 -14 7 -39 -9 -26 -13 -28 -35
-19 -38 14 -80 11 -95 -7 -11 -14 -11 -18 4 -29 10 -7 35 -15 57 -19 96 -15
119 -117 38 -166 -37 -22 -107 -26 -157 -9 -33 12 -34 13 -22 44 7 17 17 20
82 20 67 0 74 2 74 20 0 19 -16 27 -76 40 -48 9 -74 39 -74 83 0 47 24 78 69
91 33 10 100 5 128 -10z m1131 10 c51 -14 77 -57 77 -126 l0 -53 -85 0 c-76 0
-85 -2 -85 -19 0 -39 34 -48 105 -27 11 3 29 -1 40 -9 19 -15 19 -16 -8 -43
-24 -23 -35 -27 -88 -27 -56 0 -63 3 -90 33 -27 31 -29 37 -29 121 0 100 16
133 73 150 43 12 46 12 90 0z m265 -26 c3 -31 1 -33 -27 -33 -49 0 -61 -29
-61 -142 l0 -98 -30 0 -30 0 0 123 c0 115 2 125 23 145 28 27 65 42 97 39 20
-2 26 -8 28 -34z m182 26 c54 -11 56 -15 39 -53 -10 -21 -15 -23 -36 -15 -37
14 -79 11 -94 -7 -11 -14 -11 -18 4 -29 10 -7 35 -15 56 -19 52 -8 80 -33 87
-77 12 -74 -74 -125 -178 -105 -52 10 -61 19 -48 48 11 23 16 24 83 24 60 -1
72 2 75 16 4 19 -12 28 -86 48 -34 9 -46 18 -60 46 -16 34 -15 37 3 72 14 25
31 41 55 49 44 15 40 15 100 2z m712 1 c33 -10 78 -50 78 -70 0 -5 -13 -13
-29 -18 -23 -8 -31 -7 -45 9 -19 23 -59 25 -80 3 -19 -19 -22 -134 -4 -152 17
-17 68 -15 89 3 20 19 69 10 69 -12 0 -43 -85 -82 -153 -69 -58 11 -81 46 -85
131 -6 111 18 161 83 178 32 8 38 7 77 -3z m-1892 -115 c0 -105 2 -115 20
-125 12 -6 33 -10 48 -8 l27 3 3 123 3 122 34 0 35 0 0 -143 0 -144 -39 -11
c-82 -25 -162 -8 -186 39 -11 20 -15 61 -15 144 l0 115 35 0 35 0 0 -115z
m1610 81 c0 -34 -1 -35 -42 -38 -43 -3 -43 -3 -46 -45 -3 -42 -4 -43 -39 -43
l-35 0 4 57 c6 75 36 103 109 103 l49 0 0 -34z m95 -163 c-1 -75 -29 -103
-102 -103 l-54 0 3 33 c3 29 6 32 43 37 39 5 40 6 43 48 3 42 4 43 35 40 32
-3 32 -4 32 -55z"/>
</g>
</svg>
