<?xml version="1.0" standalone="no"?>
<!DOCTYPE svg PUBLIC "-//W3C//DTD SVG 20010904//EN"
 "http://www.w3.org/TR/2001/REC-SVG-20010904/DTD/svg10.dtd">
<svg version="1.0" xmlns="http://www.w3.org/2000/svg"
 width="1473.000000pt" height="1438.000000pt" viewBox="0 0 1473.000000 1438.000000"
 preserveAspectRatio="xMidYMid meet">
<metadata>
Created by potrace 1.16, written by Peter Selinger 2001-2019
</metadata>
<g transform="translate(0.000000,1438.000000) scale(0.100000,-0.100000)"
fill="#000000" stroke="none">
<path d="M3755 12043 c-22 -2 -54 -10 -72 -18 -17 -8 -40 -15 -51 -15 -12 0
-23 -4 -27 -9 -3 -5 -19 -12 -35 -16 -17 -4 -30 -11 -30 -16 0 -5 -5 -9 -11
-9 -6 0 -21 -8 -34 -17 -12 -10 -33 -25 -45 -33 -62 -41 -190 -187 -190 -216
0 -8 -4 -14 -9 -14 -5 0 -12 -13 -16 -30 -4 -16 -10 -30 -15 -30 -4 0 -11 -17
-15 -37 -4 -21 -10 -42 -15 -48 -4 -5 -10 -29 -14 -53 -8 -53 -9 -8210 -1
-8223 10 -15 21 -11 55 21 25 24 41 30 75 30 51 0 64 -10 144 -109 57 -70 60
-76 44 -93 -9 -10 -21 -18 -28 -18 -6 0 -38 34 -71 75 -67 86 -93 99 -130 64
-24 -22 -31 -44 -16 -51 4 -1 35 -37 69 -79 l62 -76 -23 -22 -24 -22 -77 90
c-73 85 -105 112 -91 75 3 -9 6 -33 6 -55 0 -29 3 -37 14 -33 17 6 56 -12 73
-35 27 -35 6 -113 -37 -144 -16 -11 -19 -21 -14 -45 4 -18 10 -32 14 -32 4 0
11 -12 15 -27 3 -15 10 -30 13 -33 9 -6 52 -68 52 -74 0 -7 53 -67 79 -90 13
-12 37 -33 53 -49 16 -15 33 -27 38 -27 5 0 15 -6 22 -13 16 -15 101 -57 117
-57 6 0 11 -4 11 -9 0 -5 21 -12 48 -16 26 -4 50 -12 54 -18 5 -9 265 -13
1003 -15 l995 -3 0 24 c0 38 35 67 81 67 38 0 40 -2 37 -27 -2 -23 -8 -29 -35
-31 -21 -2 -33 -9 -33 -18 0 -12 115 -14 826 -14 l827 0 -7 31 c-3 17 -6 128
-6 245 l0 214 -1882 2 -1883 3 -3 178 -2 178 -27 -20 c-25 -21 -66 -27 -97
-15 -8 3 -49 46 -91 96 -74 86 -76 90 -59 109 9 10 22 19 28 19 6 -1 40 -37
75 -80 51 -65 68 -80 91 -80 24 0 60 26 60 44 0 4 -31 45 -70 90 -38 46 -70
90 -70 97 0 8 9 20 20 26 17 11 25 6 77 -58 l58 -71 3 38 c4 47 -16 87 -39 81
-24 -6 -52 26 -45 51 4 12 -1 25 -14 37 -22 20 -25 46 -9 77 10 19 13 17 46
-22 30 -35 38 -39 50 -28 11 12 13 230 13 1343 l0 1329 -27 28 c-15 15 -30 28
-35 28 -18 0 -6 -38 23 -73 28 -34 33 -67 11 -67 -5 0 -33 28 -62 61 l-53 61
24 20 c66 52 68 53 94 28 l24 -23 -2 39 c-1 22 0 1194 1 2607 l2 2567 1188 0
c911 0 1191 3 1200 12 9 9 15 9 24 0 19 -19 62 -14 76 8 7 12 23 20 41 20 15
0 36 -9 46 -20 23 -26 39 -26 25 -1 -18 34 -12 69 15 87 20 13 23 20 14 35
-11 22 -4 39 15 39 14 0 116 -148 116 -168 0 -9 485 -12 2115 -12 1685 0 2115
-3 2115 -12 0 -7 0 -412 0 -901 l0 -887 40 -16 c22 -9 54 -34 72 -56 l31 -40
-58 -52 c-51 -45 -56 -53 -42 -64 26 -22 60 -10 76 25 14 31 55 50 67 31 14
-22 -8 -78 -42 -107 -39 -34 -70 -39 -114 -16 -28 14 -30 14 -30 -3 0 -10 9
-28 21 -41 l21 -22 -21 -23 c-21 -22 -22 -32 -21 -219 1 -108 6 -199 11 -202
5 -4 9 0 9 8 0 12 9 26 50 74 5 7 10 15 10 18 0 9 43 68 68 92 12 12 22 26 22
30 0 18 123 136 215 206 5 4 21 16 34 27 13 11 30 20 36 20 22 0 25 26 25 189
l0 158 -34 -32 c-19 -18 -49 -38 -66 -43 -28 -10 -32 -9 -40 14 -11 27 -6 44
12 44 22 0 78 51 78 71 0 29 -23 33 -69 10 -53 -27 -95 -27 -121 1 -42 45 -17
121 53 163 58 33 77 33 77 -2 0 -22 -8 -32 -37 -48 -45 -25 -62 -50 -45 -67 9
-9 21 -7 57 10 50 24 86 28 116 12 17 -10 19 -7 19 26 0 45 -34 97 -60 89 -25
-8 -47 21 -33 44 8 13 6 22 -8 40 -23 29 -23 40 0 70 l18 23 23 -33 c13 -19
24 -35 25 -37 1 -1 10 0 19 4 16 6 17 57 14 696 -2 497 -6 691 -14 696 -6 4
-15 26 -19 50 -4 23 -11 42 -15 42 -5 0 -11 14 -15 30 -4 17 -11 30 -16 30 -5
0 -9 5 -9 11 0 6 -9 23 -20 37 -11 15 -31 40 -43 56 -43 57 -113 120 -174 157
-21 13 -40 26 -43 30 -3 3 -20 10 -37 14 -18 3 -33 10 -33 15 0 4 -19 10 -42
14 -23 4 -49 12 -57 19 -11 9 -772 12 -3395 13 -1860 0 -3399 -1 -3421 -3z
m2818 -218 c29 -28 59 -86 53 -100 -9 -25 -24 -17 -56 30 -17 25 -35 45 -40
45 -18 0 -10 -35 15 -73 14 -20 23 -42 20 -47 -12 -20 -35 -9 -61 30 -26 38
-54 53 -54 28 0 -7 12 -29 26 -50 26 -37 27 -74 1 -66 -15 5 -86 108 -87 126
0 7 11 17 24 22 13 5 27 14 31 19 3 6 14 11 23 11 10 0 23 9 30 20 14 23 54
26 75 5z m4245 -1946 c12 -18 11 -24 -7 -43 -12 -12 -21 -29 -21 -38 0 -8 31
-51 70 -95 65 -76 68 -82 51 -97 -10 -9 -22 -16 -28 -16 -10 0 -91 89 -141
154 -31 40 -28 78 9 121 36 40 49 43 67 14z m-7281 -3635 c24 -26 43 -52 43
-59 0 -20 -59 -56 -88 -53 -36 4 -53 49 -29 76 19 21 22 42 7 42 -5 0 -12 -11
-16 -25 -7 -28 -16 -31 -34 -10 -12 14 -8 27 18 58 25 28 53 20 99 -29z m-144
-32 c32 -34 34 -61 6 -91 l-21 -22 23 -25 c21 -22 21 -26 7 -40 -14 -14 -22
-8 -82 57 -36 40 -66 79 -66 85 0 19 59 64 84 64 12 0 34 -13 49 -28z"/>
<path d="M9110 11131 c-8 -5 -41 -12 -72 -16 -32 -3 -58 -10 -58 -15 0 -4 -16
-11 -35 -14 -19 -4 -35 -11 -35 -15 0 -5 -11 -12 -25 -15 -33 -8 -153 -129
-161 -161 -3 -14 -10 -25 -15 -25 -4 0 -11 -16 -15 -35 -3 -19 -10 -38 -15
-41 -5 -3 -9 -54 -9 -114 0 -60 4 -111 9 -114 5 -3 12 -22 16 -42 3 -20 12
-43 18 -50 7 -7 28 -35 47 -62 19 -28 51 -60 70 -73 19 -13 37 -26 40 -29 14
-14 165 -80 184 -80 8 0 17 -4 20 -9 3 -5 30 -12 61 -16 30 -3 57 -10 60 -15
3 -4 28 -11 55 -15 27 -4 52 -10 55 -15 3 -4 25 -11 50 -14 25 -4 45 -11 45
-17 0 -5 8 -9 18 -9 26 0 52 -36 52 -71 0 -43 -57 -99 -113 -111 -89 -18 -119
-20 -140 -10 -12 6 -37 13 -55 16 -56 10 -132 105 -132 166 0 21 -1 22 -112
15 -62 -4 -121 -11 -130 -16 -9 -5 -36 -9 -60 -9 -69 0 -118 -11 -118 -26 0
-8 4 -14 9 -14 4 0 11 -24 15 -54 3 -29 13 -66 21 -82 8 -16 15 -37 15 -46 0
-9 5 -20 11 -23 5 -4 14 -17 20 -28 22 -51 114 -151 149 -162 11 -3 20 -10 20
-15 0 -4 11 -11 25 -14 14 -4 25 -10 25 -15 0 -5 18 -12 40 -16 22 -4 40 -10
40 -14 0 -13 156 -33 255 -34 95 -1 253 19 269 34 6 5 17 9 25 9 56 0 235 131
261 193 6 12 14 29 20 37 39 62 45 95 44 240 0 117 -3 151 -17 175 -9 17 -17
36 -17 43 0 6 -4 12 -10 12 -5 0 -10 6 -10 13 0 7 -22 35 -49 62 -71 72 -86
85 -99 85 -7 0 -12 4 -12 9 0 5 -13 12 -30 16 -16 4 -30 10 -30 15 0 4 -18 11
-40 15 -22 4 -40 10 -40 15 0 4 -22 11 -50 15 -27 4 -50 10 -50 15 0 4 -25 11
-55 15 -30 3 -57 10 -60 14 -2 5 -27 11 -54 15 -28 4 -53 10 -55 15 -3 5 -22
12 -41 15 -19 4 -35 10 -35 14 0 4 -10 12 -22 17 -13 6 -24 18 -26 28 -5 23
25 57 50 57 10 0 18 5 18 10 0 6 40 10 100 10 60 0 100 -4 100 -10 0 -5 6 -10
13 -10 25 0 57 -37 65 -76 l8 -39 74 2 c111 2 292 13 318 19 19 4 22 10 22 59
0 29 -4 57 -10 60 -5 3 -10 13 -10 22 0 15 -39 102 -50 113 -3 3 -16 21 -29
41 -13 20 -40 47 -60 60 -20 13 -38 27 -41 30 -10 12 -85 49 -100 49 -9 0 -20
4 -25 9 -14 12 -117 32 -197 38 -57 4 -68 2 -68 -11 0 -21 -35 -38 -73 -34
-24 2 -33 8 -35 26 -4 24 -9 26 -32 13z"/>
<path d="M4430 10345 l0 -765 205 0 205 0 0 765 0 765 -205 0 -205 0 0 -765z"/>
<path d="M5080 10896 l0 -215 34 6 c29 5 38 1 67 -32 54 -59 55 -63 18 -96
-37 -31 -51 -34 -80 -19 -25 14 -24 51 2 84 16 21 17 26 5 26 -8 0 -22 -14
-30 -32 -14 -27 -16 -97 -16 -535 l0 -503 585 0 585 0 0 185 0 185 -377 2
-378 3 0 120 0 120 228 3 227 2 0 185 0 185 -230 0 -231 0 3 88 3 87 378 3
377 2 0 180 0 181 -248 -2 -249 -1 5 -24 c6 -32 -17 -32 -48 1 -21 23 -70 35
-70 18 0 -4 16 -23 35 -43 33 -34 35 -38 19 -51 -15 -12 -22 -8 -68 44 l-51
57 -248 0 -247 0 0 -214z m514 163 l27 -22 -30 -31 c-30 -31 -32 -46 -5 -46 8
0 16 11 20 25 6 26 29 34 37 13 14 -38 -42 -86 -84 -73 -26 9 -69 63 -69 88 0
25 37 67 60 67 10 0 29 -10 44 -21z m-77 -121 c24 -23 43 -47 43 -54 0 -28
-30 -20 -66 17 -42 43 -52 47 -61 23 -4 -10 8 -30 33 -55 34 -35 37 -41 23
-54 -13 -14 -23 -7 -88 59 -67 69 -80 96 -47 96 8 0 19 -7 26 -15 12 -14 15
-13 32 5 29 30 58 24 105 -22z"/>
<path d="M6420 10345 l0 -765 540 0 c522 0 540 1 540 19 0 10 -9 21 -20 24
-14 3 -20 14 -20 31 0 19 5 26 20 26 18 0 20 7 20 71 l0 70 -32 -3 c-30 -3
-33 -6 -36 -40 -3 -33 -7 -38 -27 -38 -20 0 -25 7 -31 36 -10 54 19 88 80 92
l46 3 0 40 0 39 -330 0 -330 0 0 580 0 580 -210 0 -210 0 0 -765z"/>
<path d="M7340 10930 l0 -180 199 0 c154 0 201 -3 210 -13 8 -10 10 -178 8
-585 l-2 -572 208 0 207 0 0 585 0 585 205 0 205 0 0 180 0 180 -620 0 -620 0
0 -180z"/>
<path d="M11605 9283 c-27 -2 -54 -8 -60 -13 -5 -4 -29 -11 -53 -15 -24 -4
-56 -13 -70 -21 -15 -8 -34 -14 -44 -14 -9 0 -18 -3 -20 -7 -1 -5 -25 -19 -53
-33 -52 -26 -56 -29 -94 -60 -13 -11 -27 -20 -30 -20 -10 0 -111 -98 -111
-107 0 -5 -14 -23 -32 -42 -35 -37 -36 -36 32 -81 12 -8 33 -23 45 -32 13 -10
28 -18 33 -18 6 0 12 -3 14 -7 4 -9 65 -53 73 -53 3 0 11 -5 18 -10 46 -39 61
-50 69 -50 5 0 18 -8 29 -18 10 -11 32 -25 47 -33 15 -8 29 -17 32 -20 3 -3
61 -43 130 -90 69 -46 127 -87 128 -91 2 -5 10 -8 18 -8 8 0 17 -6 20 -14 3
-8 16 -17 30 -20 13 -4 24 -11 24 -16 0 -6 7 -10 15 -10 9 0 18 -6 21 -14 3
-8 16 -17 30 -20 13 -4 24 -11 24 -16 0 -6 7 -10 15 -10 9 0 18 -7 21 -15 4
-8 12 -15 19 -15 10 0 24 -9 72 -50 7 -5 15 -10 18 -10 6 0 62 -38 80 -55 7
-5 28 -19 48 -30 20 -11 37 -23 37 -27 0 -5 6 -8 13 -8 8 0 22 -9 32 -20 10
-11 22 -20 27 -20 5 0 19 -9 31 -20 12 -12 42 -33 67 -47 25 -15 51 -33 58
-40 7 -7 18 -13 23 -13 6 0 17 -6 24 -12 57 -51 63 -49 109 37 37 70 57 124
80 216 29 113 12 367 -32 472 -7 16 -12 35 -12 43 0 8 -4 14 -9 14 -5 0 -12
11 -15 24 -13 52 -85 155 -167 238 -48 49 -91 88 -96 88 -6 0 -18 9 -28 20
-10 11 -24 20 -32 20 -7 0 -13 3 -13 8 0 4 -20 18 -45 32 -25 14 -45 28 -45
31 0 4 -13 10 -30 14 -16 4 -30 11 -30 16 0 5 -8 9 -17 9 -10 0 -31 7 -47 15
-16 8 -47 18 -70 21 -22 4 -46 10 -52 15 -12 10 -228 19 -299 12z"/>
<path d="M9925 9187 c-19 -28 -33 -53 -30 -55 2 -2 21 10 42 27 28 23 48 31
78 31 37 0 45 -6 112 -77 82 -87 94 -110 67 -130 -10 -7 -21 -13 -24 -13 -4 0
-31 30 -60 66 -29 36 -64 73 -77 81 -22 15 -26 15 -51 -4 -15 -11 -28 -26 -30
-34 -1 -8 23 -43 54 -79 74 -86 83 -106 58 -125 -10 -8 -21 -14 -24 -15 -3 0
-43 47 -90 105 -47 58 -90 105 -96 105 -15 0 -26 -28 -15 -35 5 -2 11 -14 14
-25 4 -16 -3 -25 -32 -40 -54 -27 -68 -47 -49 -66 14 -14 20 -14 56 5 82 42
152 14 152 -60 0 -37 -56 -100 -112 -128 -48 -23 -58 -20 -58 18 0 22 7 29 33
39 19 7 44 23 57 37 22 23 22 27 8 41 -14 14 -20 14 -61 -5 -57 -26 -92 -27
-114 -2 -17 20 -43 18 -43 -4 0 -10 -9 -24 -50 -72 -5 -7 -10 -15 -10 -18 0
-6 -40 -65 -50 -75 -3 -3 -34 -48 -69 -100 -91 -136 -85 -132 -124 -89 -17 20
-45 53 -62 73 -25 32 -33 36 -60 30 -16 -4 -32 -9 -35 -13 -7 -9 -113 -51
-128 -51 -6 0 -12 -4 -12 -10 0 -5 -5 -10 -11 -10 -9 0 -45 -15 -142 -59 l-38
-17 33 -37 c18 -20 38 -42 43 -49 6 -7 22 -28 38 -46 25 -32 27 -32 27 -10 1
41 32 70 83 75 45 5 47 5 47 -20 0 -23 -5 -26 -37 -29 -35 -3 -38 -6 -43 -38
-3 -20 -11 -34 -18 -33 -18 4 -15 -2 22 -42 29 -30 41 -36 68 -33 29 3 33 7
36 36 3 26 8 32 27 32 22 0 23 -3 18 -37 -8 -53 -20 -72 -48 -79 -29 -7 -25
-19 32 -81 21 -23 48 -54 60 -70 12 -15 34 -41 48 -58 49 -58 76 -90 96 -115
19 -23 21 -24 31 -6 6 10 18 26 27 35 9 10 25 34 36 55 11 21 25 41 32 43 7 3
13 11 13 18 0 10 9 24 50 72 5 7 10 16 10 21 0 5 8 18 18 30 9 11 24 30 32 42
8 12 23 33 33 45 9 13 17 28 17 33 0 6 3 12 8 14 8 3 69 90 114 161 16 26 33
47 38 47 4 0 11 11 14 25 4 14 11 25 16 25 6 0 10 7 10 15 0 9 7 18 15 21 8 4
15 12 15 19 0 10 9 24 50 72 5 7 10 16 10 21 0 5 9 17 20 27 11 10 20 24 20
31 0 7 3 14 8 16 9 4 52 65 52 73 0 4 6 13 13 20 22 26 32 40 56 78 12 20 26
37 31 37 4 0 11 11 14 25 4 14 11 25 16 25 6 0 10 7 10 15 0 9 7 18 15 21 8 4
15 12 15 19 0 6 9 23 20 36 11 13 23 29 28 34 4 6 11 18 14 27 6 13 -2 12 -41
-8 -63 -33 -87 -24 -171 66 -62 66 -68 70 -123 79 l-58 8 -34 -50z"/>
<path d="M4430 9025 c0 -28 -61 -127 -108 -174 -26 -26 -69 -63 -97 -82 -27
-19 -52 -37 -55 -41 -3 -3 -18 -10 -33 -13 -15 -4 -27 -11 -27 -15 0 -5 -15
-12 -32 -15 -58 -13 -58 -13 -58 -201 l0 -173 33 6 c17 3 34 10 37 14 3 4 22
10 43 14 20 4 37 11 37 15 0 5 14 11 30 15 17 4 30 10 30 15 0 5 14 11 30 15
17 4 30 11 30 16 0 5 6 9 14 9 7 0 19 7 26 15 7 8 19 15 26 15 12 0 14 -79 14
-480 l0 -480 190 0 190 0 0 770 0 770 -160 0 c-134 0 -160 -2 -160 -15z"/>
<path d="M8640 8250 l0 -770 504 0 504 0 26 45 c15 25 31 45 36 45 6 0 10 6
10 14 0 8 6 21 13 28 7 7 16 21 20 31 6 16 -20 17 -463 17 l-470 0 0 590 0
590 333 0 c252 0 337 3 349 13 8 6 30 35 49 62 19 28 37 52 42 53 4 2 7 10 7
17 0 8 8 19 18 24 12 7 -138 10 -480 11 l-498 0 0 -770z"/>
<path d="M5300 8808 l0 -143 1442 3 c794 1 1453 2 1466 2 22 0 22 1 22 140 l0
140 -1465 0 -1465 0 0 -142z"/>
<path d="M10813 8624 c-7 -7 -13 -16 -13 -19 0 -5 -39 -64 -50 -75 -14 -14
-50 -70 -50 -79 0 -5 -3 -11 -7 -13 -9 -4 -53 -65 -53 -73 0 -5 -6 -13 -35
-48 -6 -7 -22 -30 -35 -52 -13 -22 -26 -42 -29 -45 -4 -3 -37 -52 -76 -110
-38 -58 -73 -106 -77 -108 -5 -2 -8 -8 -8 -13 0 -11 -42 -72 -52 -77 -5 -2 -8
-10 -8 -18 0 -8 -6 -17 -14 -20 -8 -3 -17 -16 -20 -30 -4 -13 -11 -24 -16 -24
-6 0 -10 -7 -10 -15 0 -9 -7 -18 -15 -21 -8 -4 -15 -10 -15 -15 0 -12 -42 -73
-52 -77 -5 -2 -8 -9 -8 -16 0 -11 -9 -25 -50 -73 -5 -7 -10 -15 -10 -18 0 -8
-44 -69 -52 -73 -5 -2 -8 -8 -8 -13 0 -9 -36 -65 -50 -79 -11 -11 -50 -70 -50
-75 0 -3 -5 -11 -10 -18 -41 -48 -50 -62 -50 -73 0 -7 -4 -14 -9 -16 -4 -1
-73 -100 -152 -218 -79 -118 -147 -216 -151 -218 -5 -2 -8 -10 -8 -18 0 -8 -7
-17 -15 -20 -8 -4 -15 -12 -15 -19 0 -10 -9 -24 -50 -72 -5 -7 -10 -16 -10
-21 0 -8 -11 -23 -50 -69 -5 -7 -10 -16 -10 -21 0 -8 -11 -23 -50 -69 -5 -7
-10 -16 -10 -21 0 -5 -9 -17 -20 -27 -11 -10 -20 -24 -20 -32 0 -7 -3 -13 -8
-13 -4 0 -16 -16 -27 -36 -10 -19 -27 -45 -37 -56 -10 -12 -18 -27 -18 -33 0
-7 -7 -15 -15 -19 -8 -3 -15 -12 -15 -20 0 -8 -3 -16 -7 -18 -10 -4 -53 -65
-53 -73 0 -4 -6 -13 -12 -20 -23 -25 -31 -38 -133 -190 -55 -82 -103 -151
-107 -153 -4 -2 -8 -10 -8 -18 0 -8 -6 -17 -14 -20 -8 -3 -17 -16 -20 -30 -4
-13 -11 -24 -16 -24 -6 0 -10 -7 -10 -15 0 -9 -7 -18 -15 -21 -8 -4 -15 -12
-15 -19 0 -10 -9 -24 -50 -72 -5 -7 -10 -15 -10 -18 0 -8 -44 -69 -52 -73 -5
-2 -8 -9 -8 -16 0 -11 -9 -25 -50 -73 -5 -7 -10 -15 -10 -18 0 -5 -39 -64 -50
-75 -14 -14 -50 -70 -50 -79 0 -5 -3 -11 -7 -13 -11 -5 -53 -66 -53 -77 0 -5
-3 -11 -7 -13 -11 -5 -53 -66 -53 -77 0 -5 -4 -11 -8 -13 -5 -1 -60 -79 -123
-173 -62 -93 -117 -171 -121 -173 -5 -2 -8 -10 -8 -18 0 -8 -7 -17 -15 -20 -8
-4 -15 -12 -15 -19 0 -10 -9 -24 -50 -72 -5 -7 -10 -16 -10 -21 0 -8 -11 -23
-50 -69 -5 -7 -10 -16 -10 -21 0 -8 -11 -23 -50 -69 -5 -7 -10 -15 -10 -18 0
-8 -44 -69 -52 -73 -5 -2 -8 -8 -8 -13 0 -10 -35 -62 -57 -87 -7 -7 -13 -19
-13 -27 0 -7 -7 -15 -15 -19 -8 -3 -15 -12 -15 -20 0 -8 -3 -16 -7 -18 -5 -1
-17 -16 -29 -33 -20 -30 -21 -35 -12 -375 4 -190 12 -478 17 -640 5 -162 9
-361 10 -442 l1 -147 33 11 c17 5 46 16 64 24 17 8 35 14 41 14 5 0 23 7 38
15 16 8 37 15 47 15 9 0 17 4 17 9 0 5 16 12 35 15 19 4 47 13 62 21 15 8 33
15 39 15 7 0 25 7 40 15 16 8 37 15 47 15 9 0 17 4 17 9 0 5 16 12 35 15 19 4
47 13 62 21 15 8 33 15 39 15 7 0 25 7 40 15 16 8 37 15 47 15 9 0 17 4 17 9
0 5 15 12 34 15 31 6 73 23 117 46 9 5 33 12 53 15 20 4 36 11 36 16 0 5 18
12 40 15 22 4 40 10 40 15 0 5 8 9 18 9 9 1 35 9 57 20 22 11 50 19 63 20 12
0 22 4 22 10 0 5 16 12 35 16 19 3 38 10 41 15 3 5 13 9 22 9 9 1 35 9 57 20
22 11 50 19 63 20 12 0 22 5 22 10 0 6 6 10 14 10 7 0 44 46 82 102 38 57 72
105 76 106 5 2 8 10 8 18 0 8 7 17 15 20 8 4 15 12 15 19 0 10 9 24 50 72 5 7
10 16 10 21 0 8 11 23 50 69 5 7 10 16 10 21 0 8 11 23 50 69 5 7 10 16 10 21
0 5 9 20 20 33 33 41 35 43 60 84 13 22 26 42 29 45 14 12 51 70 51 79 0 5 3
11 8 13 9 4 52 65 52 73 0 4 6 13 13 20 22 26 31 38 141 205 60 91 114 170
121 175 7 6 15 20 19 33 4 12 12 22 17 22 5 0 9 7 9 15 0 9 7 18 15 21 8 4 15
12 15 19 0 10 9 24 50 72 5 7 10 16 10 21 0 8 11 23 50 69 5 7 10 16 10 21 0
8 11 23 50 69 5 7 10 15 10 18 0 8 44 69 53 73 4 2 7 9 7 16 0 7 9 21 20 31
11 10 20 24 20 31 0 7 3 14 8 16 10 5 52 66 52 77 0 5 3 11 8 13 4 2 25 30 47
63 22 33 42 62 46 65 3 3 16 23 29 45 13 22 27 42 30 45 3 3 16 22 29 43 12
20 26 37 31 37 4 0 10 10 14 23 3 13 17 35 30 50 13 14 27 36 31 47 3 11 11
20 16 20 5 0 9 7 9 15 0 9 7 18 15 21 8 4 15 12 15 19 0 10 9 24 50 72 5 7 10
16 10 21 0 8 11 23 50 69 5 7 10 16 10 21 0 8 11 23 50 69 5 7 10 15 10 18 0
6 40 66 51 75 3 3 16 23 29 45 13 22 26 42 29 45 14 12 51 70 51 79 0 5 3 11
8 13 9 4 52 65 52 73 0 4 7 13 15 21 8 8 56 77 106 154 51 77 96 140 100 140
4 0 10 11 13 25 4 14 11 25 16 25 6 0 10 7 10 15 0 9 6 18 14 21 8 3 17 16 20
30 4 13 11 24 16 24 6 0 10 7 10 15 0 9 7 18 15 21 8 4 15 12 15 19 0 10 9 24
50 72 5 7 10 16 10 21 0 8 11 23 50 69 5 7 10 15 10 18 0 8 44 69 53 73 4 2 7
8 7 13 0 11 42 72 53 77 4 2 7 9 7 16 0 7 9 21 20 31 11 10 20 24 20 31 0 7 3
14 8 16 9 4 52 65 52 73 0 4 6 13 13 20 22 26 31 38 141 205 60 91 114 170
121 175 7 6 15 20 19 33 4 12 12 22 17 22 5 0 9 7 9 15 0 9 7 18 15 21 8 4 15
12 15 19 0 10 9 24 50 72 5 7 10 15 10 18 0 10 -39 43 -59 50 -12 3 -21 11
-21 16 0 5 -7 9 -15 9 -9 0 -18 7 -21 15 -4 8 -12 15 -19 15 -10 0 -24 9 -72
50 -17 14 -33 12 -33 -3 0 -12 -9 -26 -50 -74 -5 -7 -10 -16 -10 -21 0 -5 -9
-17 -20 -27 -11 -10 -20 -24 -20 -31 0 -7 -3 -14 -7 -16 -11 -5 -53 -66 -53
-77 0 -5 -3 -11 -7 -13 -11 -5 -53 -66 -53 -77 0 -5 -3 -11 -7 -13 -10 -4 -53
-65 -53 -73 0 -4 -6 -13 -12 -20 -24 -26 -33 -40 -148 -212 -62 -95 -118 -173
-122 -173 -4 0 -8 -6 -8 -13 0 -12 -9 -26 -50 -74 -5 -7 -10 -15 -10 -18 0 -8
-44 -69 -52 -73 -5 -2 -8 -9 -8 -16 0 -11 -9 -25 -50 -73 -5 -7 -10 -16 -10
-21 0 -8 -11 -23 -50 -69 -5 -7 -10 -16 -10 -21 0 -5 -9 -17 -20 -27 -11 -10
-20 -24 -20 -31 0 -7 -3 -14 -7 -16 -11 -5 -53 -66 -53 -77 0 -5 -3 -11 -7
-13 -10 -4 -53 -65 -53 -73 0 -4 -6 -13 -12 -20 -24 -26 -34 -40 -58 -80 -13
-22 -26 -42 -29 -45 -4 -3 -37 -52 -76 -110 -38 -58 -73 -106 -77 -108 -5 -2
-8 -8 -8 -13 0 -11 -42 -72 -52 -77 -5 -2 -8 -10 -8 -18 0 -8 -7 -17 -15 -20
-8 -4 -15 -12 -15 -19 0 -10 -7 -21 -49 -71 -5 -6 -12 -20 -15 -32 -4 -12 -12
-22 -17 -22 -5 0 -9 -7 -9 -15 0 -9 -7 -18 -15 -21 -8 -4 -15 -12 -15 -19 0
-10 -9 -24 -50 -72 -5 -7 -10 -15 -10 -18 0 -6 -40 -66 -51 -75 -3 -3 -16 -23
-29 -45 -13 -22 -26 -42 -29 -45 -14 -12 -51 -70 -51 -79 0 -5 -3 -11 -7 -13
-11 -5 -53 -66 -53 -77 0 -5 -4 -11 -9 -13 -5 -1 -46 -59 -92 -128 -46 -69
-87 -126 -91 -128 -5 -2 -8 -7 -8 -12 0 -12 -72 -120 -80 -120 -4 0 -11 -11
-14 -25 -4 -14 -11 -25 -16 -25 -6 0 -10 -7 -10 -15 0 -9 -7 -18 -15 -21 -8
-4 -15 -12 -15 -19 0 -10 -9 -24 -50 -72 -5 -7 -10 -16 -10 -21 0 -8 -11 -23
-50 -69 -5 -7 -10 -15 -10 -18 0 -8 -44 -69 -52 -73 -5 -2 -8 -9 -8 -16 0 -7
-8 -22 -17 -34 -10 -11 -25 -30 -33 -42 -8 -12 -23 -33 -32 -45 -10 -13 -18
-28 -18 -33 0 -6 -3 -12 -7 -14 -10 -4 -53 -65 -53 -73 0 -4 -6 -12 -12 -19
-15 -16 -23 -27 -88 -126 -27 -41 -53 -80 -57 -85 -4 -6 -26 -37 -48 -70 -22
-33 -43 -61 -47 -63 -5 -2 -8 -10 -8 -18 0 -8 -6 -17 -14 -20 -8 -3 -17 -16
-20 -30 -4 -13 -11 -24 -16 -24 -6 0 -10 -5 -10 -12 0 -16 -49 -58 -67 -58 -7
0 -13 -4 -13 -10 0 -14 -106 -12 -133 3 -62 34 -107 103 -107 162 0 31 22 87
44 112 29 33 36 43 36 51 0 8 11 23 50 69 5 7 10 16 10 21 0 8 11 23 50 69 5
7 10 16 10 21 0 8 11 23 50 69 5 7 10 16 10 21 0 5 8 18 18 30 9 11 24 30 32
42 8 12 23 33 33 45 9 13 17 28 17 33 0 6 3 12 8 14 8 4 52 65 52 73 0 3 5 11
10 18 39 46 50 61 50 69 0 5 11 21 25 36 14 15 28 36 31 47 4 10 12 25 18 32
20 23 30 37 101 143 38 58 73 107 77 108 5 2 8 10 8 18 0 8 6 17 14 20 8 3 17
16 20 30 4 13 11 24 16 24 6 0 10 7 10 15 0 9 7 18 15 21 8 4 15 12 15 19 0
10 9 24 50 72 5 7 10 16 10 21 0 8 11 23 50 69 5 7 10 16 10 21 0 5 9 20 20
33 33 41 35 43 60 84 13 22 26 42 29 45 14 12 51 70 51 79 0 5 3 11 8 13 8 3
112 155 112 164 0 3 7 12 15 20 8 8 56 77 106 154 51 77 96 140 100 140 4 0
10 11 13 25 4 14 11 25 16 25 6 0 10 7 10 15 0 9 6 18 14 21 8 3 17 16 20 30
4 13 11 24 16 24 6 0 10 7 10 15 0 9 7 18 15 21 8 4 15 12 15 19 0 10 9 24 50
72 5 7 10 16 10 21 0 8 11 23 50 69 5 7 10 15 10 19 0 3 8 16 18 29 9 12 24
33 32 45 8 12 36 52 63 89 26 36 47 69 47 72 0 4 -16 3 -35 -1 -23 -5 -40 -4
-51 5 -24 17 -11 45 20 45 27 0 46 25 46 59 0 16 6 21 24 21 22 0 25 -5 28
-40 l3 -40 134 202 c74 112 139 205 143 206 4 2 8 10 8 18 0 8 6 17 14 20 8 3
17 16 20 30 4 13 11 24 16 24 6 0 10 7 10 15 0 9 7 18 15 21 8 4 15 12 15 19
0 10 9 24 50 72 5 7 10 15 10 18 0 8 44 69 53 73 4 2 7 9 7 16 0 11 9 25 50
73 5 7 10 15 10 18 0 5 39 64 50 75 14 14 50 70 50 79 0 5 3 11 8 13 9 4 52
65 52 73 0 4 6 12 13 19 6 8 18 22 24 32 7 11 29 41 48 69 19 27 35 54 35 58
0 4 9 17 20 29 14 16 17 25 9 39 -5 11 -16 19 -24 19 -7 0 -15 3 -17 8 -4 9
-65 52 -73 52 -4 0 -13 6 -20 13 -25 22 -38 30 -190 132 -82 55 -151 103 -153
107 -2 4 -10 8 -18 8 -8 0 -17 6 -20 14 -3 8 -16 17 -30 20 -13 4 -24 11 -24
16 0 6 -7 10 -15 10 -9 0 -18 7 -21 15 -4 8 -12 15 -19 15 -10 0 -24 9 -72 50
-7 5 -16 10 -21 10 -8 0 -23 11 -69 50 -7 5 -15 10 -18 10 -5 0 -64 39 -75 50
-6 6 -35 24 -70 44 -21 12 -27 12 -37 0z m-873 -2714 c38 -46 45 -70 18 -70
-6 0 -27 18 -45 40 -33 39 -53 44 -53 15 0 -8 14 -30 30 -48 33 -38 37 -52 16
-60 -8 -3 -29 13 -50 39 -21 24 -42 42 -47 39 -17 -11 -9 -40 21 -74 16 -19
27 -38 24 -43 -12 -19 -34 -5 -74 48 l-42 56 33 29 c19 15 38 28 43 29 4 0 17
11 28 25 29 37 51 31 98 -25z m-240 -146 c33 -42 60 -79 60 -83 0 -12 -69 -61
-87 -61 -23 0 -33 8 -61 44 -29 38 -28 71 3 92 24 15 24 18 11 39 -11 17 -12
25 -3 34 6 6 12 11 14 11 1 0 30 -34 63 -76z m-234 -179 c51 -67 64 -105 36
-105 -4 0 -32 33 -62 74 -30 41 -56 73 -58 72 -1 -2 11 -41 28 -87 34 -94 36
-107 16 -115 -17 -7 -178 114 -173 130 7 22 27 15 81 -29 31 -25 56 -44 56
-41 0 3 -11 36 -25 73 -17 44 -22 69 -15 71 6 2 16 10 23 18 22 24 36 15 93
-61z m-191 -162 c32 -48 32 -76 -2 -102 -32 -26 -59 -20 -95 22 -35 39 -35 70
-2 96 40 32 69 27 99 -16z m-155 -66 c0 -29 5 -36 46 -55 38 -19 44 -25 34
-37 -10 -13 -17 -12 -48 0 -41 18 -52 13 -29 -13 21 -23 22 -38 3 -45 -8 -3
-31 18 -59 57 -26 35 -53 69 -62 76 -19 16 -19 26 2 34 11 4 25 -4 44 -26 l28
-33 1 26 c0 24 16 49 32 49 4 0 8 -15 8 -33z m-202 -190 l22 -23 -30 -29 c-16
-15 -27 -32 -24 -37 10 -15 24 -8 36 17 14 32 38 33 38 2 0 -61 -77 -78 -122
-28 -34 39 -35 65 -3 96 30 31 55 32 83 2z m-88 -119 c45 -48 46 -51 26 -67
-11 -9 -20 -3 -46 29 -17 22 -38 40 -46 40 -29 0 -27 -31 5 -71 18 -21 29 -44
26 -49 -7 -12 -35 -14 -35 -2 0 4 -25 33 -55 65 -30 31 -55 61 -55 66 0 20 22
22 41 5 19 -17 20 -17 35 4 24 35 59 28 104 -20z m-496 -344 c35 -34 38 -53
17 -90 -19 -32 -20 -37 -5 -59 16 -25 12 -45 -9 -45 -13 1 -121 131 -125 152
-3 17 57 58 85 58 12 0 29 -7 37 -16z m96 -698 c0 -7 7 -27 15 -42 8 -16 15
-39 15 -51 0 -12 4 -24 9 -28 6 -3 13 -26 17 -50 3 -25 10 -47 14 -50 5 -3 11
-23 15 -45 4 -22 11 -42 16 -46 5 -3 9 -16 9 -30 0 -22 4 -24 51 -24 28 0 58
4 67 9 9 4 77 11 150 15 l132 7 0 -40 c0 -22 4 -42 9 -45 5 -4 12 -41 16 -84
4 -42 11 -81 15 -87 5 -5 11 -41 15 -80 4 -38 11 -74 15 -80 4 -5 11 -43 15
-82 6 -63 5 -73 -9 -73 -9 0 -16 -4 -16 -9 0 -5 -16 -12 -35 -15 -19 -4 -47
-13 -62 -21 -15 -8 -38 -15 -50 -15 -12 0 -24 -4 -28 -9 -3 -5 -19 -12 -36
-16 -17 -4 -42 -13 -57 -21 -15 -8 -35 -14 -44 -14 -9 0 -19 -4 -22 -9 -4 -5
-24 -12 -46 -16 -22 -4 -40 -10 -40 -15 0 -5 -19 -11 -42 -15 -24 -4 -46 -12
-50 -18 -8 -13 -106 -15 -116 -2 -10 15 -70 55 -81 55 -5 0 -11 3 -13 8 -4 8
-65 52 -73 52 -3 0 -11 5 -18 10 -46 39 -61 50 -69 50 -5 0 -18 8 -29 18 -10
11 -32 25 -47 33 -26 14 -39 22 -65 44 -7 6 -29 21 -49 33 l-36 23 -5 127 c-3
70 -10 217 -15 327 -6 110 -7 203 -3 208 4 4 31 10 59 14 29 3 52 9 52 14 0 4
29 11 65 14 36 4 67 11 70 15 3 5 32 11 65 15 33 4 62 11 65 15 3 5 34 12 70
15 36 4 68 11 71 16 8 14 44 10 44 -5z"/>
<path d="M10163 8523 c-4 -10 -13 -25 -21 -33 -8 -8 -28 -36 -44 -62 -16 -26
-34 -48 -39 -48 -5 0 -9 -6 -9 -14 0 -8 -6 -21 -13 -28 -41 -43 -46 -63 -46
-202 0 -119 2 -134 15 -122 8 8 14 19 14 24 0 5 9 17 20 27 11 10 20 24 20 31
0 7 3 14 8 16 10 5 52 66 52 77 0 5 4 11 9 13 5 2 18 20 29 42 18 33 21 56 21
167 0 71 -2 129 -5 129 -3 0 -8 -8 -11 -17z"/>
<path d="M5300 8275 l0 -145 1465 0 1465 0 0 145 0 145 -1465 0 -1465 0 0
-145z"/>
<path d="M5300 7740 l0 -140 1010 0 1010 0 0 140 0 140 -1010 0 -1010 0 0
-140z"/>
<path d="M4477 6899 c-17 -19 -20 -19 -42 -5 -27 18 -85 22 -85 6 0 -5 -9 -10
-20 -10 -20 0 -20 0 0 -32 25 -41 25 -40 -6 -77 -38 -46 -76 -43 -110 9 -30
45 -47 47 -52 6 -3 -23 2 -29 43 -47 25 -11 44 -26 42 -32 -4 -14 -40 -15 -76
-3 -23 8 -23 8 -7 -15 20 -29 20 -45 1 -52 -9 -4 -26 9 -46 38 -18 25 -36 45
-41 45 -16 0 -7 -26 22 -60 17 -19 30 -40 30 -47 0 -24 -35 -13 -62 19 -21 25
-28 29 -28 16 0 -10 -5 -18 -11 -18 -5 0 2 -15 16 -34 22 -29 23 -35 10 -46
-11 -9 -18 -10 -29 -1 -11 9 -16 5 -25 -20 -6 -18 -11 -45 -11 -60 l0 -29 71
0 c39 0 78 -4 87 -9 9 -5 61 -11 115 -13 l97 -5 0 28 c0 15 5 31 10 34 6 3 10
14 10 24 0 10 9 29 21 42 19 22 29 24 99 24 70 0 80 -2 99 -24 12 -13 21 -32
21 -43 0 -10 5 -18 10 -18 12 0 13 -67 1 -74 -5 -3 -12 -22 -15 -41 -4 -19
-11 -35 -16 -35 -6 0 -10 -7 -10 -16 0 -9 -102 -119 -227 -244 -255 -256 -279
-281 -288 -310 -3 -11 -10 -20 -15 -20 -4 0 -10 -8 -14 -17 -3 -10 -10 -25
-15 -33 -18 -28 -39 -80 -46 -112 -4 -18 -11 -38 -16 -43 -4 -6 -11 -45 -15
-88 l-7 -77 532 0 531 0 0 180 0 180 -235 0 c-181 0 -235 3 -235 13 0 6 22 30
48 52 45 39 266 259 287 286 6 8 22 32 35 54 13 22 28 42 32 43 4 2 8 9 8 15
0 7 7 25 15 40 8 15 17 43 21 63 3 19 10 37 15 40 13 7 12 234 -1 234 -5 0
-10 9 -10 21 0 26 -35 102 -55 119 -8 7 -15 16 -15 21 0 11 -68 79 -80 79 -5
0 -15 6 -23 14 -16 17 -100 56 -119 56 -8 0 -18 4 -23 9 -6 5 -48 12 -95 15
-77 5 -87 4 -103 -15z"/>
<path d="M8640 6444 l0 -447 20 26 c11 14 20 30 20 35 0 6 3 12 8 14 4 2 35
44 70 95 l62 91 0 231 0 231 149 0 c155 0 181 4 181 25 0 10 9 24 50 72 5 7
10 16 10 21 0 5 7 15 15 22 8 7 15 16 15 21 0 5 -135 9 -300 9 l-300 0 0 -446z"/>
<path d="M5300 6685 l0 -145 1465 0 1465 0 0 145 0 145 -395 0 -395 0 0 -25
c0 -20 -5 -25 -25 -25 -20 0 -25 5 -25 25 l0 25 -1045 0 -1045 0 0 -145z"/>
<path d="M5300 6150 l0 -140 1465 0 1465 0 0 140 0 140 -1465 0 -1465 0 0
-140z"/>
<path d="M5300 5620 l0 -150 1010 0 1010 0 0 150 0 150 -1010 0 -1010 0 0
-150z"/>
<path d="M11102 5222 c-2 -15 -44 -76 -54 -80 -5 -2 -8 -9 -8 -16 0 -7 -9 -21
-20 -31 -11 -10 -20 -24 -20 -31 0 -7 -3 -14 -7 -16 -11 -5 -53 -66 -53 -77 0
-5 -3 -11 -7 -13 -9 -4 -53 -65 -53 -73 0 -3 -5 -11 -10 -18 -39 -46 -50 -61
-50 -69 0 -5 -6 -16 -12 -23 -23 -26 -33 -39 -87 -122 -30 -46 -57 -83 -61
-83 -24 0 -30 -83 -29 -398 l0 -332 36 0 c30 0 44 -8 81 -47 l45 -47 -63 -56
c-55 -49 -60 -57 -46 -69 31 -26 75 1 91 56 0 1 13 5 29 9 l29 7 -6 -44 c-4
-34 -14 -51 -39 -72 -47 -39 -75 -44 -119 -20 l-38 21 1 -22 c1 -11 10 -31 21
-43 l20 -23 -21 -23 c-20 -21 -21 -31 -22 -306 0 -156 -3 -288 -6 -292 -3 -5
-160 -9 -349 -9 l-344 0 -37 -25 c-39 -27 -81 -41 -90 -32 -4 3 -7 17 -8 31
l-1 26 -147 0 c-121 0 -148 -3 -148 -14 0 -8 -3 -16 -7 -18 -10 -4 -53 -65
-53 -73 0 -14 -28 -33 -59 -40 -18 -4 -44 -13 -59 -21 -15 -8 -35 -14 -44 -14
-10 0 -18 -4 -18 -9 0 -5 -18 -12 -40 -16 -22 -4 -40 -10 -40 -15 0 -4 -16
-11 -35 -14 -19 -4 -47 -13 -62 -21 -15 -8 -36 -15 -45 -15 -10 0 -18 -4 -18
-9 0 -5 -18 -12 -40 -16 -22 -4 -40 -10 -40 -15 0 -5 -18 -11 -40 -15 -22 -4
-40 -11 -40 -16 0 -5 -8 -9 -17 -9 -10 0 -31 -7 -46 -15 -15 -8 -43 -17 -62
-21 -19 -3 -35 -10 -35 -15 0 -5 -8 -9 -17 -9 -10 0 -31 -7 -47 -15 -15 -8
-33 -15 -38 -15 -6 0 -24 -7 -41 -14 -18 -8 -48 -19 -67 -25 -25 -6 55 -9 268
-10 298 -1 302 -1 302 19 0 34 44 70 85 70 30 0 35 -3 35 -24 0 -21 -6 -25
-32 -28 -22 -2 -34 -9 -36 -21 -4 -18 25 -18 718 -15 512 2 723 6 728 14 4 6
24 14 46 18 21 4 46 11 55 16 9 5 34 17 56 28 89 43 112 60 187 134 43 42 78
79 78 83 0 8 44 69 53 73 4 2 7 9 7 15 0 7 6 24 14 39 8 15 17 42 21 60 4 18
12 39 19 47 8 10 12 151 14 479 l3 464 -29 -21 c-16 -11 -41 -25 -54 -30 -22
-8 -27 -6 -37 15 -15 33 -15 32 22 48 43 18 79 58 71 79 -8 22 -32 21 -69 -3
-91 -61 -182 22 -125 114 21 35 93 81 114 73 7 -3 16 -15 19 -26 4 -17 -2 -25
-34 -41 -47 -24 -65 -53 -45 -70 11 -9 23 -7 55 9 22 12 56 21 76 21 35 0 35
0 35 44 0 46 -17 70 -42 61 -22 -9 -54 31 -39 48 8 11 6 20 -9 40 -18 22 -19
29 -8 54 7 15 14 30 16 33 2 2 18 -13 37 -35 18 -22 36 -37 39 -34 3 3 5 233
3 510 -1 277 -3 498 -5 491z m-259 -1253 c8 -13 5 -23 -11 -44 -12 -15 -22
-31 -22 -36 0 -5 29 -45 65 -89 36 -44 65 -85 65 -90 0 -5 -10 -15 -22 -21
-23 -13 -27 -10 -117 96 -66 78 -71 127 -18 183 23 25 45 25 60 1z"/>
<path d="M4366 4801 c-3 -4 -25 -11 -49 -14 -58 -8 -162 -63 -206 -109 -50
-51 -71 -80 -71 -95 0 -7 -4 -13 -9 -13 -5 0 -13 -15 -16 -32 -4 -18 -11 -37
-15 -43 -5 -5 -11 -31 -15 -57 -6 -43 -5 -48 11 -48 11 0 32 -7 48 -15 15 -8
36 -15 45 -15 9 0 28 -6 43 -14 15 -8 42 -17 60 -21 18 -4 35 -11 38 -16 3 -4
26 -9 50 -11 l45 -3 6 40 c13 96 54 140 130 140 58 0 99 -38 99 -93 0 -28 3
-33 12 -24 17 17 26 15 44 -13 16 -24 15 -26 -10 -46 -31 -25 -32 -33 -6 -69
l20 -28 -26 -21 -27 -21 -24 32 c-13 18 -26 43 -29 55 -5 19 -9 20 -24 10 -15
-8 -16 -14 -8 -25 9 -10 5 -18 -17 -37 l-29 -23 48 -56 c46 -54 51 -57 85 -51
29 5 38 2 48 -14 11 -17 9 -23 -14 -40 -27 -22 -73 -27 -102 -12 -9 5 -37 35
-61 65 -25 31 -48 56 -52 56 -5 0 -8 -21 -8 -47 0 -43 3 -50 30 -65 17 -9 35
-29 40 -43 5 -14 17 -25 26 -25 9 0 36 -10 59 -21 62 -31 89 -89 82 -176 -3
-36 -9 -68 -15 -72 -5 -3 -12 -15 -16 -26 -12 -38 -56 -60 -118 -60 -49 0 -61
4 -87 29 -17 17 -31 36 -31 43 0 7 -4 13 -9 13 -5 0 -11 12 -13 28 -4 39 -55
43 -93 7 -26 -24 -29 -24 -46 -9 -28 25 -138 14 -178 -17 -36 -29 -39 -47 -8
-58 28 -11 60 7 67 40 4 18 14 25 38 27 37 4 40 -9 18 -63 -17 -39 -68 -75
-108 -75 -18 0 -28 -5 -28 -15 0 -8 5 -15 10 -15 6 0 10 -6 10 -13 0 -26 125
-161 159 -172 12 -3 21 -10 21 -15 0 -5 14 -11 30 -15 17 -4 30 -10 30 -15 0
-5 20 -12 45 -16 25 -3 48 -10 51 -15 7 -12 241 -12 248 0 3 4 23 11 45 15 39
6 103 34 109 49 2 4 10 7 17 7 7 0 27 14 43 30 17 17 35 30 40 30 5 0 20 16
33 35 13 19 27 35 32 35 4 0 7 6 7 14 0 8 6 21 13 28 38 37 71 156 70 248 0
66 -17 142 -40 190 -21 41 -122 149 -140 150 -21 0 -15 20 15 50 40 42 62 72
62 86 0 7 6 15 13 17 6 3 -4 6 -23 6 -19 1 -44 9 -56 19 -37 30 -102 121 -109
151 -17 79 93 160 165 121 17 -9 18 -14 8 -36 -8 -16 -19 -24 -32 -23 -35 2
-44 0 -60 -17 -24 -23 -20 -37 24 -93 47 -60 84 -69 101 -25 10 27 -5 183 -19
194 -4 3 -15 21 -25 41 -48 95 -178 192 -275 206 -23 3 -45 10 -48 14 -7 12
-191 12 -198 0z"/>
<path d="M5300 4560 l0 -140 1144 0 1144 0 6 25 c4 14 11 25 16 25 6 0 10 7
10 15 0 9 7 18 15 21 8 4 15 12 15 19 0 10 9 24 50 72 5 7 10 16 10 21 0 8 11
24 50 70 9 9 -237 12 -1225 12 l-1235 0 0 -140z"/>
<path d="M5300 4030 l0 -150 1042 0 1041 0 -6 119 c-6 109 -5 121 13 144 11
14 20 28 20 31 0 3 -475 6 -1055 6 l-1055 0 0 -150z"/>
<path d="M10162 3828 c-16 -31 -34 -59 -49 -75 -7 -8 -37 -51 -68 -98 l-55
-84 0 -80 0 -81 -59 0 c-51 0 -61 -3 -66 -20 -3 -11 -11 -20 -16 -20 -5 0 -9
-5 -9 -11 0 -6 -9 -22 -20 -36 l-19 -24 32 -28 c47 -40 61 -43 98 -15 43 31
90 31 137 -1 63 -43 70 -30 17 32 -40 47 -43 63 -16 80 17 11 25 6 60 -32 23
-25 43 -45 45 -45 2 0 5 126 5 280 1 154 0 280 -2 280 -2 0 -9 -10 -15 -22z"/>
<path d="M5300 3495 l0 -145 1010 -2 1010 -3 0 148 0 147 -1010 0 -1010 0 0
-145z"/>
</g>
</svg>
