<?xml version="1.0" standalone="no"?>
<!DOCTYPE svg PUBLIC "-//W3C//DTD SVG 20010904//EN"
 "http://www.w3.org/TR/2001/REC-SVG-20010904/DTD/svg10.dtd">
<svg version="1.0" xmlns="http://www.w3.org/2000/svg"
 width="900.000000pt" height="605.000000pt" viewBox="0 0 900.000000 605.000000"
 preserveAspectRatio="xMidYMid meet">

<g transform="translate(0.000000,605.000000) scale(0.100000,-0.100000)"
fill="#000000" stroke="none">
<path d="M3800 5768 c-104 -7 -154 -15 -182 -28 -25 -12 -51 -16 -76 -13 -27
4 -42 1 -51 -11 -7 -9 -22 -16 -32 -16 -10 0 -21 -5 -24 -11 -5 -7 -14 -5 -29
5 -24 15 -39 11 -44 -14 -8 -37 -36 -52 -84 -48 -47 5 -48 4 -48 -23 0 -23 -9
-33 -45 -55 -25 -14 -45 -30 -45 -35 0 -4 -29 -6 -65 -2 -48 4 -65 3 -65 -6 0
-8 11 -11 28 -10 34 4 52 -7 52 -32 0 -12 -7 -19 -18 -19 -10 0 -23 -5 -29
-11 -6 -6 -45 -12 -86 -13 -59 -1 -80 -5 -96 -20 -12 -11 -19 -26 -16 -34 3
-8 0 -12 -7 -9 -7 2 -24 -1 -38 -8 -14 -7 -38 -14 -55 -16 -16 -2 -35 -7 -42
-12 -7 -5 -17 -6 -22 -2 -7 3 -8 0 -5 -9 8 -20 62 -20 88 -1 22 17 56 20 56 6
0 -6 -9 -8 -19 -6 -11 2 -25 -4 -33 -13 -7 -9 -8 -14 -4 -10 5 4 15 0 23 -10
11 -15 12 -15 7 -1 -3 10 0 20 6 24 7 4 10 0 8 -11 -2 -12 2 -18 10 -16 8 1
11 -2 8 -7 -4 -5 -15 -8 -25 -6 -11 2 -22 -3 -25 -12 -5 -13 -1 -14 26 -9 41
8 45 13 30 36 -18 29 -15 33 17 28 17 -2 28 -1 26 3 -6 9 24 21 36 14 5 -4 6
1 3 10 -5 13 -2 15 18 10 20 -5 26 -2 31 15 3 12 15 24 26 27 11 3 18 10 14
16 -4 6 -1 7 6 3 7 -5 10 -11 7 -14 -3 -3 -1 -11 5 -19 10 -11 17 -8 40 18 36
40 109 58 116 28 7 -24 25 -25 21 -2 -2 10 4 19 15 21 11 2 17 -3 17 -15 0
-15 -2 -15 -10 -3 -5 8 -12 12 -15 8 -3 -3 1 -13 10 -21 19 -20 20 -41 0 -33
-8 3 -15 1 -15 -3 0 -5 14 -14 30 -20 26 -9 30 -8 30 9 0 31 11 50 31 50 10 0
22 8 28 18 5 9 12 16 15 15 3 -2 6 0 6 5 0 4 -4 7 -9 7 -5 0 -12 2 -15 6 -3 3
5 5 17 5 18 0 24 -6 25 -28 3 -32 31 -70 45 -61 6 4 8 0 4 -9 -3 -9 1 -25 9
-36 13 -19 13 -21 -6 -17 -15 3 -19 -1 -17 -17 2 -17 -4 -22 -26 -23 -15 -1
-25 0 -22 3 3 3 1 10 -4 16 -5 6 -5 20 0 31 l8 20 1 -20 1 -20 9 20 c6 14 9
15 9 5 1 -9 -4 -21 -10 -27 -7 -7 -8 -13 0 -17 10 -7 21 24 19 57 -1 18 -18
25 -18 7 0 -6 -3 -9 -7 -9 -43 7 -49 -4 -29 -52 5 -11 1 -18 -13 -22 -12 -3
-19 -1 -15 4 14 24 -33 5 -59 -23 -17 -18 -27 -25 -24 -16 8 21 -4 30 -23 17
-10 -6 -11 -9 -2 -9 6 0 12 -4 12 -10 0 -5 -7 -10 -15 -10 -9 0 -15 -9 -15
-25 0 -18 -7 -26 -25 -31 -31 -8 -32 -21 -4 -51 23 -24 22 -25 -32 -37 -19 -4
-29 -1 -33 9 -3 9 -18 20 -33 26 l-28 11 22 18 c19 15 20 20 9 35 -7 10 -24
19 -37 20 -17 1 -23 7 -22 21 1 10 0 13 -3 6 -3 -6 -10 -9 -15 -6 -6 3 -5 11
2 20 6 8 8 14 4 14 -4 0 -2 6 4 13 8 10 7 14 -3 14 -7 0 -13 -10 -12 -21 1
-14 -4 -20 -14 -18 -12 3 -11 0 2 -15 12 -13 14 -23 8 -33 -9 -14 -14 -7 -11
13 1 5 -2 6 -7 3 -4 -2 -9 5 -9 16 -1 11 -11 30 -22 42 -15 16 -18 25 -10 33
8 8 7 13 -2 18 -7 5 -10 4 -5 -3 3 -6 2 -14 -4 -17 -8 -5 -8 -11 -1 -19 6 -7
7 -17 3 -21 -4 -5 -2 -5 5 -1 6 3 14 2 18 -4 4 -6 -5 -10 -19 -10 -46 0 -29
-46 18 -52 16 -1 31 -9 34 -17 5 -15 -27 -12 -100 7 -47 12 -41 -4 8 -24 19
-8 34 -18 34 -22 -1 -24 -40 -42 -40 -18 0 8 -14 17 -31 21 -19 4 -33 15 -36
26 -3 10 -10 19 -15 19 -7 0 -9 20 -6 51 3 29 2 45 -3 37 -8 -11 -13 -5 -11
13 1 3 -6 6 -13 6 -10 0 -12 -4 -5 -12 5 -7 6 -16 2 -20 -4 -5 -2 -5 4 -2 8 4
11 -5 10 -27 0 -19 -4 -32 -8 -30 -4 2 -10 -1 -14 -7 -4 -7 -3 -9 3 -6 6 4 17
-1 24 -10 12 -15 12 -16 -4 -10 -11 4 -16 3 -12 -3 3 -6 2 -10 -4 -10 -5 0
-13 10 -16 21 -6 17 -9 19 -16 8 -11 -18 19 -41 43 -33 42 13 57 -46 28 -108
-14 -31 -30 -37 -30 -12 0 8 -4 12 -10 9 -5 -3 -7 0 -4 9 3 8 -3 19 -15 25
-30 17 -34 14 -28 -21 3 -22 -1 -39 -11 -51 -9 -10 -17 -29 -17 -42 -1 -13 -7
-31 -14 -39 -7 -9 -9 -21 -5 -28 8 -12 10 -17 13 -36 0 -5 12 -14 26 -20 29
-13 32 -27 9 -36 -10 -4 -21 0 -28 9 -9 12 -20 14 -50 8 -36 -8 -38 -10 -23
-25 10 -9 25 -14 37 -11 15 4 20 0 20 -15 0 -28 -34 -37 -62 -18 -15 11 -33
14 -54 10 -26 -5 -34 -1 -49 22 -26 40 -10 60 46 57 36 -1 40 0 25 9 -11 6
-41 8 -71 4 -47 -5 -53 -4 -58 14 -3 10 -2 19 2 18 19 -2 29 4 34 23 4 16 1
20 -16 17 -12 -2 -21 -8 -20 -14 1 -6 -8 -9 -22 -7 -21 5 -42 42 -36 66 1 5
-3 6 -8 2 -6 -3 -7 -13 -4 -23 6 -15 5 -15 -10 -3 -17 13 -16 15 3 36 24 26
25 31 4 39 -13 5 -15 2 -11 -14 3 -11 1 -18 -4 -14 -5 3 -9 12 -9 20 0 8 -4
14 -10 14 -5 0 -7 -8 -3 -17 5 -15 3 -14 -10 2 -9 11 -17 15 -17 8 0 -6 5 -15
11 -18 6 -4 8 -14 4 -24 -5 -13 -4 -14 6 -3 17 16 34 16 20 -1 -8 -10 -7 -17
1 -25 9 -9 9 -15 -1 -24 -8 -8 -11 -8 -8 -2 4 7 -1 18 -11 25 -15 12 -16 12
-5 -2 10 -12 10 -19 0 -33 -12 -16 -14 -15 -37 11 -14 15 -17 21 -8 14 15 -11
19 -11 25 5 4 12 0 22 -15 32 -27 18 -28 39 -3 47 22 7 21 39 -1 43 -9 2 -25
-8 -36 -22 -11 -15 -30 -26 -44 -26 -13 0 -39 -11 -57 -24 -18 -14 -38 -23
-44 -22 -7 2 -9 1 -5 -1 3 -2 0 -16 -8 -31 -8 -15 -14 -30 -14 -34 0 -4 21
-18 48 -31 76 -39 112 -61 112 -70 0 -5 -8 -6 -19 -2 -25 8 -71 -11 -71 -30 0
-18 -1 -18 -33 -6 -19 7 -24 6 -24 -7 0 -23 17 -32 44 -25 31 7 30 -14 -4 -49
-19 -20 -23 -31 -15 -40 5 -7 11 -16 11 -20 1 -5 1 -11 2 -15 0 -5 4 1 9 12 8
18 9 18 9 2 1 -10 6 -15 11 -12 6 4 7 12 4 18 -4 7 -3 8 1 4 5 -4 10 -14 11
-23 2 -12 -6 -14 -34 -12 -26 2 -42 -2 -54 -16 -10 -10 -18 -22 -18 -25 0 -4
-9 -7 -20 -7 -17 0 -18 3 -6 21 7 11 23 25 35 31 34 17 45 31 32 38 -6 4 -11
1 -11 -6 0 -9 -3 -9 -10 2 -5 8 -9 31 -8 50 l1 35 7 -40 c7 -37 9 -37 14 -2 1
6 -1 20 -6 29 -7 14 -12 15 -38 5 -16 -6 -30 -16 -30 -21 0 -5 3 -7 6 -3 8 8
28 -12 37 -37 5 -13 1 -24 -14 -37 -26 -22 -25 -22 -50 -9 -13 7 -19 7 -19 0
0 -5 -9 -10 -20 -10 -15 0 -20 7 -20 27 0 14 -3 24 -6 20 -3 -3 -16 -2 -28 3
-32 12 -54 -4 -48 -35 4 -21 7 -23 19 -14 26 22 38 -5 20 -43 -11 -23 -13 -36
-6 -45 6 -7 8 -17 5 -22 -4 -5 -1 -13 5 -17 8 -4 9 -3 5 4 -4 7 -2 12 3 12 18
0 12 -18 -10 -33 -17 -12 -21 -29 -26 -93 -4 -52 -9 -72 -14 -59 -7 19 -8 18
-8 -3 -1 -15 -10 -26 -27 -32 -33 -13 -51 -32 -64 -66 -8 -20 -8 -29 1 -35 9
-5 10 -16 3 -41 -9 -28 -15 -33 -38 -31 -23 2 -26 -1 -21 -18 4 -12 1 -21 -8
-25 -11 -4 -12 -13 -4 -47 5 -23 14 -52 20 -64 12 -26 3 -53 -18 -53 -8 0 -15
-4 -15 -10 0 -5 5 -10 10 -10 6 0 10 -4 10 -8 0 -5 -7 -9 -15 -9 -8 0 -12 3
-10 7 2 3 -5 21 -15 38 -18 29 -18 32 -2 41 9 6 12 11 5 11 -6 0 -15 -6 -20
-12 -13 -21 -11 -131 4 -153 18 -27 16 -48 -6 -62 -29 -18 -70 -113 -49 -113
6 0 8 -3 5 -6 -3 -4 -2 -14 3 -24 8 -14 5 -17 -18 -16 -21 1 -28 -4 -30 -21
-3 -19 1 -23 22 -23 30 0 31 -3 14 -30 -11 -16 -9 -22 7 -34 19 -14 19 -14 -5
-34 -21 -17 -23 -23 -13 -45 11 -24 11 -25 -18 -20 -24 3 -29 1 -29 -16 0 -11
-7 -26 -15 -35 -22 -22 -18 -41 15 -69 35 -30 38 -47 10 -47 -11 0 -20 -4 -20
-9 0 -5 -9 -13 -20 -16 -11 -3 -20 -14 -20 -24 0 -10 -9 -26 -20 -36 -22 -20
-29 -82 -7 -68 6 4 4 -5 -5 -19 -17 -26 -17 -27 2 -33 33 -11 23 -61 -16 -75
-15 -6 -22 -15 -18 -24 8 -21 -4 -36 -21 -29 -20 7 -19 23 0 23 12 0 13 3 3
19 -12 19 -12 19 -30 -2 -23 -26 -20 -56 7 -71 11 -6 22 -12 24 -14 2 -1 -2
-13 -9 -27 -7 -13 -17 -22 -22 -19 -4 3 -8 -2 -8 -10 0 -9 7 -16 15 -16 29 0
27 -29 -5 -75 -18 -26 -28 -50 -24 -57 5 -7 9 -45 10 -85 1 -44 7 -82 16 -95
8 -13 18 -45 22 -73 5 -27 11 -54 16 -60 4 -5 10 -33 13 -62 6 -56 55 -170
103 -242 16 -24 38 -60 49 -80 12 -21 30 -38 45 -41 19 -4 25 -13 26 -33 1
-39 24 -61 24 -24 0 26 1 26 19 10 11 -9 18 -20 15 -24 -2 -5 5 -13 16 -19 16
-9 19 -14 10 -25 -8 -10 -7 -16 6 -23 13 -7 15 -17 11 -40 -8 -40 12 -59 44
-42 18 10 24 9 31 -4 5 -10 20 -21 34 -26 16 -6 22 -15 18 -25 -11 -28 14 -44
61 -40 39 3 47 0 65 -25 24 -34 25 -40 4 -40 -9 0 -12 5 -8 12 4 6 3 9 -2 6
-12 -8 -35 17 -26 28 4 4 2 4 -5 1 -6 -4 -14 -1 -16 5 -4 10 -6 10 -6 1 -1
-18 44 -63 63 -63 37 0 93 -43 108 -82 4 -9 20 -19 36 -23 34 -7 45 -25 36
-61 -5 -21 -3 -24 20 -24 15 0 30 -8 36 -20 8 -16 21 -20 60 -20 33 0 49 -4
47 -12 -1 -6 12 -14 30 -18 19 -4 53 -28 82 -56 28 -27 57 -56 67 -64 9 -8 28
-30 42 -47 15 -18 39 -35 54 -37 37 -6 154 -82 137 -89 -8 -3 -3 -5 11 -4 17
1 28 -5 35 -20 8 -19 15 -22 47 -17 28 5 44 1 66 -15 19 -13 45 -21 70 -21 37
0 65 -17 61 -36 -6 -36 15 -46 36 -17 22 29 84 18 117 -20 16 -18 28 -35 28
-40 0 -4 9 -2 19 5 11 7 17 16 15 20 -13 21 50 5 71 -18 17 -18 31 -25 45 -21
11 3 18 2 15 -3 -3 -4 10 -13 28 -20 17 -6 40 -16 50 -21 11 -6 24 -6 35 0 26
14 74 2 70 -18 -6 -30 271 -90 318 -69 13 6 24 15 24 19 0 4 23 7 50 7 57 -2
85 -21 48 -33 l-23 -8 25 -4 c14 -2 35 -9 48 -15 18 -10 26 -8 47 12 14 14 31
20 42 17 48 -15 90 -34 112 -49 25 -18 80 -15 93 6 4 6 40 11 80 12 40 1 80 3
88 5 8 2 14 -2 13 -9 -4 -15 54 -17 59 -1 3 8 15 8 45 0 29 -8 49 -8 69 -1 15
6 35 8 43 4 24 -11 139 -13 201 -3 30 5 96 9 145 10 60 1 98 7 114 17 l24 15
-27 14 c-15 8 -26 19 -23 26 4 14 57 29 57 16 0 -5 7 -9 16 -9 8 0 12 -5 8
-11 -3 -6 5 -4 18 5 21 14 27 14 37 3 6 -8 8 -17 4 -20 -3 -4 -1 -7 5 -7 18 0
14 21 -5 36 -17 12 -16 13 5 14 15 0 22 -6 22 -20 0 -24 36 -28 64 -7 17 12
17 14 -1 28 -16 13 -17 13 -4 -3 12 -16 11 -18 -2 -18 -8 0 -17 3 -20 8 -2 4
-2 1 -1 -5 2 -7 -4 -13 -12 -13 -11 0 -15 6 -11 20 3 11 1 18 -4 14 -5 -3 -9
-1 -9 5 0 5 -3 17 -7 27 -4 12 -3 15 6 10 6 -4 11 -4 10 1 -4 22 4 31 30 35
21 3 28 1 24 -9 -3 -7 0 -13 6 -13 17 0 13 31 -6 46 -25 19 -53 17 -70 -3 -13
-16 -13 -16 -3 5 10 20 8 26 -7 38 -10 7 -24 14 -31 14 -9 0 -11 7 -6 23 10
32 24 38 75 32 40 -5 50 -2 84 25 21 16 43 30 50 30 7 0 15 7 19 15 3 9 18 15
34 15 30 0 87 24 97 41 4 5 0 9 -8 9 -10 0 -13 7 -10 19 4 15 0 19 -14 17 -10
-2 -12 -1 -5 1 7 3 9 10 5 16 -3 7 2 5 13 -4 10 -9 25 -14 33 -11 8 2 11 0 7
-6 -3 -6 0 -12 6 -15 16 -5 68 12 68 23 0 4 27 30 60 57 33 26 63 57 66 68 10
31 33 53 65 60 15 4 45 22 66 42 21 19 58 48 83 64 25 15 69 53 99 84 30 30
60 55 67 55 7 0 16 9 19 21 4 11 27 43 51 70 25 28 47 63 50 78 3 15 15 31 26
36 12 6 29 26 39 45 10 19 31 49 48 65 32 32 81 115 81 137 0 25 72 136 95
146 15 7 24 22 28 49 4 22 16 48 27 58 11 10 20 24 20 31 0 7 7 25 15 41 42
80 58 133 63 203 3 48 10 81 20 93 27 30 41 85 31 119 -5 21 -5 36 2 44 7 9 7
19 1 31 -8 13 -5 25 10 46 20 28 36 98 44 192 3 28 7 79 10 114 3 35 2 61 -3
58 -9 -6 -11 14 -12 151 -1 71 -6 105 -22 143 -12 27 -19 58 -16 68 3 11 -1
28 -8 38 -6 10 -15 58 -19 106 -3 51 -13 102 -23 120 -9 18 -20 50 -24 72 -4
22 -20 76 -34 120 -71 215 -75 231 -76 318 -1 48 -5 87 -9 87 -5 0 -6 -10 -2
-22 3 -13 1 -19 -5 -15 -15 9 -23 47 -10 44 6 -1 12 7 14 18 3 14 1 16 -5 7
-6 -9 -11 -6 -20 13 -10 22 -9 27 12 40 13 9 40 17 59 18 35 2 38 -1 64 -52
32 -63 53 -76 53 -34 0 16 -5 34 -10 39 -19 19 -49 87 -43 97 3 6 1 7 -5 3
-16 -10 -26 14 -12 27 10 9 11 9 6 0 -5 -9 3 -13 28 -13 21 0 36 5 36 12 0 6
7 3 16 -8 8 -10 13 -13 9 -6 -11 22 51 19 77 -5 10 -9 22 -12 30 -7 11 6 11 5
0 -8 -10 -13 -10 -17 0 -20 17 -7 38 1 38 14 0 6 -7 5 -17 -3 -10 -7 -5 1 11
19 17 18 25 32 18 32 -6 0 -14 -4 -17 -10 -7 -12 -55 10 -75 35 -13 15 -11 20
13 41 16 13 34 24 41 24 22 0 25 47 5 66 -19 17 -27 40 -10 30 5 -4 7 3 4 13
-3 12 -11 17 -19 14 -9 -3 -14 1 -13 13 0 11 3 14 5 8 3 -7 14 -10 24 -7 11 3
17 9 14 14 -3 5 0 9 6 9 17 0 23 -29 10 -45 -11 -13 -10 -18 6 -30 10 -8 27
-15 37 -15 18 0 25 -30 7 -30 -5 0 -10 4 -10 8 0 4 -10 8 -22 9 -22 2 -22 1
-4 -13 11 -8 37 -14 57 -14 21 0 41 -5 44 -10 4 -6 11 -8 16 -5 5 3 6 -1 3
-10 -6 -14 -8 -14 -19 1 -9 14 -14 14 -20 4 -5 -9 -4 -11 3 -6 7 4 12 1 12 -9
0 -9 -4 -13 -10 -10 -6 3 -7 -1 -4 -9 3 -9 3 -16 0 -16 -4 0 -11 10 -16 23 -6
16 -9 17 -9 5 -1 -9 6 -23 14 -32 8 -8 15 -19 15 -25 0 -6 4 -11 8 -11 5 0 7
14 4 30 -2 17 0 30 6 30 16 0 24 -18 12 -25 -10 -6 15 -39 32 -41 4 -1 13 -2
19 -3 5 0 7 -7 3 -13 -5 -9 -4 -10 4 -3 12 11 16 34 14 73 -2 16 -8 22 -26 22
-18 0 -25 6 -28 23 -2 14 -16 29 -40 40 -22 11 -38 26 -38 36 0 23 -59 78 -92
86 -16 4 -28 12 -28 17 0 6 -13 -4 -30 -22 -33 -36 -52 -36 -57 1 -2 13 -14
34 -28 46 -23 20 -23 22 -6 28 31 10 49 -4 46 -36 -1 -16 1 -32 6 -35 5 -3 6
-10 3 -16 -4 -7 -2 -8 5 -4 6 4 8 13 4 19 -16 26 -12 39 10 33 18 -4 16 1 -12
25 -28 26 -38 30 -65 24 -41 -10 -112 -8 -101 3 8 8 -47 42 -68 42 -10 0 -22
11 -27 25 -10 27 -20 31 -37 14 -11 -11 -83 -20 -81 -10 1 3 -2 14 -7 24 -5
12 -1 25 11 40 19 21 19 21 -1 7 -27 -20 -35 -32 -28 -44 4 -5 -9 -1 -28 10
-40 23 -49 52 -23 72 13 9 14 13 4 10 -8 -2 -19 -14 -25 -26 -15 -33 -33 -34
-71 -6 -19 15 -37 24 -40 21 -3 -3 8 -13 25 -22 18 -9 29 -20 26 -26 -4 -5 -1
-8 7 -7 22 5 21 -45 -2 -70 -11 -12 -17 -22 -13 -22 11 0 15 -56 7 -93 -4 -19
-11 -27 -22 -25 -10 2 -17 8 -17 15 0 6 -4 15 -9 20 -5 5 -6 3 -2 -4 4 -8 1
-13 -9 -13 -9 0 -13 5 -10 11 4 6 -3 5 -15 -3 -18 -10 -24 -10 -27 0 -3 6 -8
10 -12 7 -10 -5 -91 62 -91 76 0 8 23 -8 56 -39 8 -7 14 -10 14 -5 0 10 -75
73 -87 73 -4 0 -2 -4 6 -9 9 -6 10 -11 2 -15 -6 -4 -16 3 -22 17 -6 13 -25 32
-42 42 -18 10 -40 27 -50 39 -18 20 -18 20 -12 1 3 -11 3 -16 -1 -12 -4 4 -16
0 -26 -10 -10 -9 -19 -13 -19 -10 -1 4 -3 12 -4 17 -1 6 -3 15 -4 21 0 5 -5 8
-11 4 -5 -3 -7 -13 -3 -23 3 -11 -1 -9 -11 6 -10 12 -22 20 -27 17 -13 -8 -11
-55 2 -55 5 0 7 -5 4 -10 -4 -6 -10 -8 -15 -5 -5 3 -12 0 -16 -6 -5 -8 -3 -9
6 -4 9 6 11 4 5 -6 -5 -8 1 -6 13 5 21 19 22 18 31 -5 l10 -24 -2 27 c-1 15
-4 25 -8 22 -8 -5 -22 14 -25 34 -1 6 2 10 7 6 5 -3 7 -10 4 -15 -4 -5 3 -9
13 -9 28 0 48 -26 33 -43 -8 -10 -7 -17 2 -27 10 -12 9 -12 -3 -4 -13 9 -34
11 -42 4 -9 -6 -37 -7 -33 0 3 4 -2 13 -10 20 -10 9 -15 9 -15 1 0 -6 -4 -11
-8 -11 -5 0 -9 7 -9 15 0 8 4 12 8 10 4 -3 10 3 14 13 12 27 14 43 4 36 -5 -3
-9 -1 -9 4 0 6 7 12 15 16 9 3 12 12 9 23 -5 15 -4 16 6 3 9 -13 11 -12 8 5
-2 13 -11 20 -25 19 -18 -1 -21 2 -13 16 5 10 6 21 2 25 -4 3 -7 12 -7 18 0 7
-13 18 -28 25 -16 8 -31 20 -34 28 -3 8 -12 14 -21 14 -13 0 -12 -3 4 -15 10
-8 15 -14 9 -15 -18 0 -36 17 -39 35 -1 10 -11 19 -20 21 -17 2 -17 2 0 -17 9
-10 12 -19 6 -19 -6 0 -13 4 -16 9 -9 14 -56 4 -78 -16 -11 -10 -23 -18 -26
-18 -4 0 -7 -6 -8 -12 -1 -7 2 -13 7 -13 5 0 9 4 9 9 0 5 9 7 20 4 11 -3 18
-9 15 -12 -2 -4 3 -8 11 -8 8 0 13 5 11 12 -3 6 5 11 17 12 11 0 15 -1 9 -4
-7 -3 -13 -12 -13 -21 0 -13 2 -14 9 -4 9 15 22 -13 25 -58 2 -14 3 -33 4 -43
1 -12 6 -15 15 -11 9 6 9 5 0 -7 -10 -12 -10 -18 0 -29 10 -10 9 -11 -3 -4 -8
5 -19 9 -25 9 -10 0 -11 4 -14 41 0 8 -5 13 -10 9 -6 -3 -8 -15 -6 -27 3 -11
1 -18 -2 -14 -4 4 -8 21 -9 38 -2 23 0 28 6 18 8 -13 10 -13 10 0 0 13 2 13
11 0 9 -13 10 -12 5 3 -3 10 0 17 7 17 8 0 7 4 -3 10 -9 5 -19 5 -24 0 -12
-12 -37 0 -29 14 3 6 -3 2 -15 -8 -23 -20 -31 -9 -9 13 8 9 9 12 0 9 -6 -2
-18 6 -27 17 -13 18 -15 18 -12 2 1 -10 7 -22 14 -26 7 -4 8 -12 2 -21 -13
-20 -12 -39 0 -20 9 14 9 4 1 -39 -1 -2 -7 1 -14 8 -8 6 -18 7 -23 3 -5 -4 -6
-3 -2 2 4 6 0 19 -10 30 -17 21 -17 21 6 2 27 -24 30 -6 2 19 -19 17 -19 30 1
30 5 0 8 5 7 10 -2 6 -6 9 -9 8 -7 -2 -5 59 3 72 4 6 3 17 -3 25 -7 12 -9 12
-9 1 0 -8 -9 -3 -20 12 -11 14 -20 29 -19 34 3 20 -2 33 -12 30 -6 -1 -17 16
-25 37 -8 22 -11 36 -7 33 3 -4 15 0 25 10 11 9 18 11 18 5 0 -7 -5 -12 -11
-12 -5 0 -7 -4 -4 -10 11 -18 25 -11 46 23 16 24 20 27 16 10 -5 -24 7 -40 18
-23 8 13 35 13 35 0 0 -5 -6 -8 -12 -6 -7 1 -10 1 -5 -1 4 -3 7 -9 7 -14 0 -6
-6 -7 -12 -2 -18 11 -39 13 -33 3 3 -5 -4 -7 -15 -5 -13 3 -18 0 -14 -7 4 -7
3 -8 -4 -4 -8 5 -12 -1 -12 -16 l0 -22 16 22 c15 22 17 23 36 6 12 -11 22 -14
26 -8 8 11 42 12 59 1 12 -8 12 10 -1 31 -6 10 -11 10 -22 1 -9 -7 -14 -8 -14
-1 0 16 16 23 34 16 14 -5 33 -43 27 -53 -5 -9 27 -20 47 -16 23 4 62 -28 62
-52 0 -11 7 -14 25 -11 13 3 22 1 19 -4 -3 -5 0 -9 7 -7 27 3 40 -1 34 -11 -4
-6 -3 -10 2 -9 17 4 68 -15 79 -29 7 -10 24 -13 52 -10 25 2 42 -1 42 -7 0 -5
5 -3 10 5 8 13 10 13 10 -2 0 -17 28 -38 51 -38 9 0 8 4 -1 15 -7 8 -16 13
-20 10 -4 -3 -15 7 -24 20 -9 14 -21 23 -25 20 -12 -7 -33 20 -23 30 4 5 1 5
-6 1 -9 -6 -10 -11 -3 -20 11 -13 5 -26 -11 -26 -5 0 -6 6 -2 13 5 7 0 6 -11
-3 -17 -14 -18 -14 -6 8 9 18 9 22 -1 20 -7 -2 -12 3 -10 10 1 8 -2 11 -8 7
-6 -3 -8 -11 -5 -16 4 -5 -1 -9 -10 -9 -10 0 -13 5 -9 12 4 6 3 8 -3 5 -13 -8
-46 27 -36 38 5 4 2 5 -4 1 -7 -4 -13 -3 -13 3 0 5 -10 11 -22 13 -13 2 -22 9
-20 16 1 6 -4 12 -10 12 -9 0 -8 3 2 9 19 13 30 4 24 -17 -5 -13 -4 -14 4 -3
6 9 5 23 -5 42 -8 17 -16 36 -17 44 -1 8 -5 17 -9 20 -4 3 -5 2 -2 -2 3 -3 -1
-13 -8 -21 -8 -10 -8 -13 -1 -9 7 4 15 0 18 -9 9 -23 7 -34 -5 -34 -5 0 -8 4
-5 9 3 5 0 14 -8 20 -9 8 -13 28 -11 56 1 25 -1 42 -5 40 -4 -3 -6 -18 -5 -35
2 -21 -2 -30 -13 -30 -8 0 -12 3 -9 6 4 4 -3 19 -14 35 -17 24 -23 27 -44 19
-33 -13 -58 -2 -52 22 6 22 -28 62 -60 70 -18 5 -23 2 -23 -13 0 -10 -9 -23
-20 -29 -11 -6 -18 -16 -14 -22 4 -7 9 -6 15 3 6 10 9 10 9 2 0 -7 7 -10 18
-7 13 5 14 4 3 -4 -11 -8 -11 -10 0 -15 8 -3 5 -5 -6 -4 -11 2 -25 6 -32 10
-6 4 -13 4 -16 0 -2 -5 -2 -3 -1 4 2 7 -1 15 -6 18 -9 6 -14 -7 -11 -30 1 -5
-19 13 -44 40 -24 28 -45 54 -45 59 0 6 7 1 16 -10 15 -19 16 -19 10 1 -5 17
-3 16 14 -5 21 -26 27 -21 10 9 -9 17 -5 18 43 14 28 -2 49 -1 45 3 -4 4 -49
8 -99 10 -70 2 -95 0 -106 -11 -20 -21 -41 -18 -48 6 -5 16 -14 20 -43 17 -21
-2 -37 -9 -39 -18 -4 -13 -3 -13 6 0 10 13 11 13 11 0 0 -13 1 -13 11 0 9 13
10 13 6 0 -6 -24 -61 -20 -64 5 l-3 20 9 -20 c9 -19 10 -19 10 3 1 21 -2 23
-34 18 -19 -3 -46 -1 -59 4 -17 6 -27 6 -32 -1 -4 -7 -21 -9 -43 -5 -20 4 -49
9 -66 12 -16 3 -46 9 -65 15 -19 5 -57 9 -84 9 -30 0 -66 8 -93 22 -38 19 -46
20 -55 8 -8 -13 -9 -12 -5 1 4 11 -3 20 -19 28 -33 15 -63 14 -112 -3 -25 -9
-44 -11 -47 -5 -8 12 -65 12 -102 -1 -22 -8 -36 -7 -58 4 -16 9 -33 12 -38 7
-7 -7 -24 -5 -132 15 -22 4 -43 13 -48 20 -8 14 -91 34 -159 38 -24 1 -108 -1
-188 -6z m93 -28 c-4 -13 -3 -13 9 1 15 17 51 18 88 1 l25 -11 -25 2 c-14 1
-31 6 -38 11 -7 4 -16 5 -19 2 -3 -3 6 -11 20 -17 15 -7 24 -16 21 -20 -9 -14
4 -10 25 8 21 18 55 27 46 13 -3 -5 -1 -11 5 -15 5 -3 10 -10 10 -15 0 -13
-38 -23 -52 -13 -19 11 -39 10 -76 -4 -21 -8 -54 -10 -87 -7 -45 5 -59 3 -83
-15 -22 -15 -38 -19 -61 -15 -23 5 -32 2 -37 -10 -4 -10 -16 -15 -35 -14 -15
1 -26 4 -24 6 2 3 0 14 -6 25 -8 14 -8 18 0 13 6 -4 11 -2 11 4 0 6 4 9 8 6
11 -6 24 4 40 33 10 17 10 21 1 16 -8 -6 -10 -4 -4 5 5 8 20 10 43 6 20 -3 41
-1 47 4 10 8 74 16 126 15 19 0 25 -4 22 -15z m-276 -35 c0 -8 -4 -12 -9 -9
-5 3 -6 10 -3 15 9 13 12 11 12 -6z m-58 -17 c-9 -17 -5 -22 14 -19 5 1 6 -3
2 -9 -10 -17 -35 8 -28 27 5 12 3 14 -7 8 -8 -5 -11 -4 -7 2 3 5 13 10 21 10
11 0 13 -5 5 -19z m35 4 c3 -5 -1 -9 -9 -9 -8 0 -12 4 -9 9 3 4 7 8 9 8 2 0 6
-4 9 -8z m1088 -7 c2 3 5 -2 5 -10 0 -19 0 -19 -23 7 -12 14 -13 18 -3 10 9
-6 18 -10 21 -7z m-1157 -5 c3 -6 -1 -7 -9 -4 -28 11 -17 -3 18 -24 28 -17 35
-26 34 -51 -1 -17 7 -40 16 -50 22 -25 12 -43 -19 -35 -12 3 -26 1 -29 -4 -4
-6 2 -8 14 -5 14 4 20 0 20 -11 0 -14 -8 -16 -50 -12 -30 3 -50 1 -50 -5 0
-16 27 -21 50 -9 19 10 20 9 14 -17 -4 -15 -10 -30 -14 -33 -11 -8 -34 -54
-32 -63 1 -5 -2 -5 -8 -2 -6 4 -9 13 -6 21 3 8 4 14 2 14 -3 0 -11 3 -20 6
-10 4 -16 1 -16 -9 0 -8 -7 -21 -17 -28 -15 -13 -15 -12 -5 8 11 19 10 21 -8
18 -11 -2 -18 0 -15 6 4 5 2 9 -3 9 -15 0 -31 55 -22 71 7 10 13 5 27 -19 14
-24 25 -32 46 -32 22 0 28 4 25 18 -2 10 -13 17 -28 17 -20 0 -26 6 -28 28 -4
30 -23 35 -42 12 -16 -19 -70 -20 -70 -1 0 11 -49 30 -57 22 -1 -1 5 -21 13
-45 13 -39 13 -47 0 -75 -13 -25 -16 -27 -17 -11 -1 11 0 28 1 38 2 22 -28 47
-48 40 -15 -6 -62 16 -62 29 0 4 6 8 14 8 7 0 30 12 51 26 33 22 41 24 62 13
19 -10 26 -9 43 6 24 22 25 33 5 55 -13 14 -13 17 -1 17 8 0 14 -5 13 -10 -1
-5 7 -14 17 -20 11 -7 29 -20 39 -29 26 -23 33 -17 35 29 2 40 22 63 54 63 10
0 18 5 18 11 0 6 -7 8 -16 5 -9 -3 -12 -2 -9 5 4 6 13 8 21 5 7 -3 16 -1 19 4
8 13 22 13 30 0z m846 -7 c13 -16 12 -17 -3 -4 -10 7 -18 15 -18 17 0 8 8 3
21 -13z m-943 -7 c12 4 11 2 -3 -7 -11 -8 -24 -14 -29 -14 -5 0 -15 -9 -23
-21 -12 -19 -11 -23 4 -35 16 -12 17 -12 5 2 -10 13 -10 19 2 28 11 9 13 5 13
-24 -1 -38 -8 -43 -27 -20 -7 8 -19 15 -26 15 -8 0 -14 7 -14 15 0 8 6 15 14
15 8 0 25 13 38 28 13 16 24 25 26 21 2 -4 11 -6 20 -3z m992 -2 c0 -8 -19
-13 -24 -6 -3 5 1 9 9 9 8 0 15 -2 15 -3z m-513 -28 c-1 -6 7 -11 19 -10 11 1
21 -5 21 -12 0 -10 -4 -11 -13 -3 -9 7 -15 5 -23 -8 -6 -11 -11 -13 -12 -5 -3
22 -4 27 -11 38 -4 6 -1 11 7 11 8 0 13 -5 12 -11z m104 -9 c-6 -8 -9 -16 -6
-19 3 -2 -1 -5 -8 -5 -8 0 -14 6 -14 13 0 7 4 11 8 8 4 -2 10 0 14 6 3 5 9 10
12 10 3 0 0 -6 -6 -13z m555 -10 c1 -9 -3 -15 -9 -14 -7 1 -11 -4 -9 -12 2
-11 0 -12 -11 -3 -8 7 -17 8 -21 4 -4 -4 -6 0 -4 8 2 8 -2 14 -8 13 -6 -1 -11
4 -11 11 0 20 70 14 73 -7z m-691 -8 c-6 -16 -4 -20 6 -14 8 5 10 4 6 0 -4 -5
-22 -10 -40 -11 -18 -1 -26 0 -19 3 6 3 9 10 5 16 -4 7 2 5 12 -3 17 -14 18
-13 12 3 -4 11 -3 16 3 12 6 -3 10 -1 10 4 0 6 3 11 6 11 3 0 2 -10 -1 -21z
m92 -1 c-3 -8 -6 -5 -6 6 -1 11 2 17 5 13 3 -3 4 -12 1 -19z m470 7 c0 -8 -4
-12 -9 -9 -5 3 -6 10 -3 15 9 13 12 11 12 -6z m-1150 -19 c18 -21 18 -21 -4
-2 -21 18 -28 15 -23 -9 1 -5 -2 -6 -6 -2 -4 4 -9 13 -10 21 -3 20 24 15 43
-8z m894 7 c13 -16 12 -17 -3 -4 -10 7 -18 15 -18 17 0 8 8 3 21 -13z m429 2
c0 -2 -6 -8 -13 -14 -10 -8 -14 -7 -14 2 0 8 6 14 14 14 7 0 13 -1 13 -2z
m-396 -23 c3 -5 -1 -9 -9 -9 -8 0 -12 4 -9 9 3 4 7 8 9 8 2 0 6 -4 9 -8z m321
-11 c3 -5 2 -12 -3 -15 -5 -3 -9 1 -9 9 0 17 3 19 12 6z m-588 -16 c0 -8 -4
-12 -9 -9 -5 3 -6 10 -3 15 9 13 12 11 12 -6z m218 6 c3 -5 2 -12 -3 -15 -5
-3 -9 1 -9 9 0 17 3 19 12 6z m72 2 c-4 -3 -1 -13 6 -22 11 -14 10 -14 -5 -2
-16 12 -16 31 -1 31 4 0 3 -3 0 -7z m343 1 c0 -8 -19 -13 -24 -6 -3 5 1 9 9 9
8 0 15 -2 15 -3z m40 0 c0 -8 -19 -13 -24 -6 -3 5 1 9 9 9 8 0 15 -2 15 -3z
m-410 -10 c0 -8 -19 -13 -24 -6 -3 5 1 9 9 9 8 0 15 -2 15 -3z m-536 -16 c-3
-4 -11 -8 -19 -8 -8 0 -11 -7 -8 -21 4 -15 8 -17 14 -8 4 7 13 14 21 15 7 2
24 6 36 10 21 6 23 4 20 -17 -2 -13 -9 -23 -16 -21 -10 2 -10 -2 -1 -19 9 -17
8 -20 -3 -13 -7 5 -17 9 -23 9 -16 2 -35 -16 -29 -26 3 -5 -2 -6 -10 -3 -9 3
-14 9 -12 13 3 4 1 23 -3 43 -5 21 -5 40 1 46 11 11 39 12 32 0z m152 -4 c-1
-8 -6 -17 -12 -21 -5 -4 -6 -4 -2 1 4 5 3 14 -2 21 -7 8 -5 12 4 12 8 0 13 -6
12 -13z m94 2 c0 -7 -11 -16 -25 -18 -21 -4 -23 -3 -14 13 11 22 39 25 39 5z
m1738 -39 c-4 -28 -25 -33 -33 -8 -4 14 -11 18 -23 14 -14 -6 -15 -4 -4 9 18
23 64 12 60 -15z m-1798 7 c0 -8 -19 -13 -24 -6 -3 5 1 9 9 9 8 0 15 -2 15 -3z
m779 -14 c1 13 2 13 11 0 9 -13 10 -13 10 0 1 9 6 5 16 -10 14 -23 14 -23 9
-2 -6 19 -3 21 17 18 13 -3 25 -5 28 -6 3 -2 9 -2 13 -1 5 1 4 -6 -1 -15 -5
-9 -8 -26 -5 -38 3 -20 3 -20 -6 -1 l-10 20 -1 -20 -1 -20 -9 20 -9 20 -1 -20
c-2 -19 -3 -19 -7 -1 -4 15 -7 16 -14 5 -7 -12 -9 -12 -9 1 0 13 -1 13 -10 0
-9 -13 -10 -13 -10 0 0 13 -1 13 -10 0 -9 -13 -10 -13 -10 0 0 13 -1 13 -10 0
-9 -13 -10 -13 -10 0 0 13 -1 13 -10 0 -7 -12 -9 -10 -7 7 0 12 5 19 9 17 4
-3 11 8 14 23 7 25 8 25 15 8 5 -13 8 -15 8 -5z m-1024 -29 c8 -25 -14 -71
-35 -71 -16 0 -40 18 -40 31 0 4 10 9 23 11 16 2 21 9 20 26 -3 27 23 30 32 3z
m1142 -28 c-3 -10 -5 -4 -5 12 0 17 2 24 5 18 2 -7 2 -21 0 -30z m103 29 c0
-5 -7 -9 -15 -9 -8 0 -12 4 -9 9 3 4 9 8 15 8 5 0 9 -4 9 -8z m397 -7 c0 -8
-4 -12 -9 -9 -5 3 -6 10 -3 15 9 13 12 11 12 -6z m-1959 -19 c-7 -8 -15 -12
-17 -11 -5 6 10 25 20 25 5 0 4 -6 -3 -14z m1677 -34 c1 -13 -3 -18 -9 -14 -6
3 -20 8 -31 9 -16 2 -17 1 -5 -6 8 -5 18 -7 22 -5 4 3 8 1 8 -3 0 -5 -9 -14
-20 -21 -12 -7 -18 -18 -14 -25 4 -7 4 -9 0 -5 -4 3 -8 10 -8 15 0 4 -5 15
-11 23 -10 13 -10 13 6 1 22 -17 22 -3 0 21 -10 11 -13 19 -8 18 18 -4 35 0
34 8 -3 18 2 22 18 14 9 -6 17 -19 18 -30z m370 29 c3 -5 2 -12 -3 -15 -5 -3
-9 1 -9 9 0 17 3 19 12 6z m162 -6 c0 -8 -4 -12 -9 -9 -5 3 -6 10 -3 15 9 13
12 11 12 -6z m-1739 -20 c1 -1 0 -9 -3 -18 -5 -12 -13 -13 -35 -7 -16 5 -38 6
-49 3 -13 -3 -23 2 -30 16 -11 20 -10 21 51 14 35 -3 64 -7 66 -8z m-828 -5
c0 13 1 13 10 0 8 -12 10 -12 10 -1 0 8 3 11 6 8 4 -4 2 -13 -5 -20 -12 -15
-69 -17 -61 -1 3 5 8 8 13 7 4 -2 7 3 7 10 0 8 4 7 10 -3 9 -13 10 -13 10 0z
m2065 1 c3 -5 2 -12 -3 -15 -5 -3 -9 1 -9 9 0 17 3 19 12 6z m-1181 -10 c3 -5
-2 -15 -12 -22 -16 -13 -16 -13 -2 5 12 15 12 18 1 15 -15 -5 -42 -75 -32 -85
3 -4 -3 -4 -13 0 -15 5 -17 4 -7 -8 10 -12 16 -10 36 10 14 14 25 31 25 39 0
12 29 22 90 28 8 1 20 -10 28 -25 15 -32 27 -35 36 -12 6 16 8 16 24 0 10 -9
22 -16 26 -16 5 0 24 -8 43 -17 31 -15 41 -15 82 -3 25 8 64 13 85 12 24 -1
43 4 50 13 15 19 232 37 352 30 49 -4 107 -6 129 -6 45 0 105 -16 105 -28 0
-5 22 -11 50 -14 27 -3 69 -18 93 -32 24 -14 53 -25 64 -25 11 0 26 -7 33 -15
7 -8 21 -15 31 -15 10 0 33 -7 51 -15 18 -8 59 -19 91 -25 37 -7 70 -22 90
-39 56 -47 112 -86 120 -83 4 1 7 -2 7 -8 0 -5 7 -10 15 -10 15 0 55 -29 55
-41 0 -11 -34 -8 -72 7 -21 8 -38 12 -38 10 0 -2 31 -22 69 -45 92 -54 247
-171 345 -259 165 -149 318 -341 444 -558 41 -71 71 -120 67 -109 -4 11 -10
31 -12 45 -3 14 -15 33 -27 43 -16 15 -17 18 -3 13 14 -4 17 1 17 35 0 22 4
38 8 35 5 -3 9 1 9 8 0 7 -6 13 -14 13 -11 0 -19 -39 -14 -69 2 -17 -10 -6
-37 35 -22 32 -27 47 -20 62 8 18 8 18 4 -2 -2 -13 0 -23 5 -23 5 0 9 -7 9
-16 0 -9 5 -12 12 -8 6 4 8 3 5 -2 -3 -6 -2 -16 4 -24 6 -11 9 -6 9 18 0 17 0
35 1 39 0 4 -4 9 -10 11 -7 2 -9 -4 -5 -15 5 -15 4 -15 -5 -3 -17 24 -13 29
18 27 16 -1 28 -4 26 -6 -2 -2 8 -14 22 -27 14 -13 21 -24 15 -24 -6 0 -9 -7
-6 -15 4 -8 14 -15 23 -15 9 0 32 -15 50 -34 25 -26 29 -36 19 -41 -7 -5 -10
-5 -6 -1 8 9 -40 66 -55 66 -6 0 -1 -10 11 -23 16 -17 20 -32 17 -56 -3 -25
-1 -30 9 -22 17 14 29 2 15 -15 -8 -10 -7 -12 8 -10 15 3 18 -3 18 -34 0 -21
-3 -36 -6 -34 -3 2 -21 -12 -39 -31 -27 -28 -29 -33 -12 -28 12 3 27 11 33 19
20 25 42 17 35 -12 -5 -18 -2 -32 9 -45 10 -10 14 -22 11 -27 -3 -6 1 -12 9
-16 19 -7 20 -26 1 -26 -7 0 -18 -6 -24 -13 -9 -10 -4 -21 18 -46 17 -18 30
-43 30 -57 0 -14 5 -34 10 -45 6 -11 12 -38 14 -61 2 -25 10 -46 21 -54 16
-12 17 -18 7 -39 -7 -14 -12 -36 -12 -48 0 -13 -6 -29 -12 -36 -10 -10 -10
-12 -1 -7 16 9 33 -53 21 -76 -15 -29 -28 -20 -29 20 -1 20 -5 48 -10 62 -9
26 -6 -10 7 -99 5 -39 27 -60 40 -39 4 6 3 8 -4 5 -6 -5 -8 1 -4 15 l5 22 9
-24 c6 -16 4 -30 -6 -45 -8 -13 -12 -26 -9 -29 7 -7 11 -24 15 -63 1 -13 6
-23 11 -23 4 0 5 -5 2 -10 -5 -8 -11 -7 -21 1 -7 6 -11 16 -7 22 3 5 1 7 -4 4
-11 -7 -6 -55 9 -74 5 -7 5 -14 -2 -18 -5 -3 -10 -15 -10 -26 0 -10 -3 -19 -8
-19 -4 0 -9 -30 -10 -67 -5 -123 -51 -397 -79 -471 -5 -11 -3 -13 8 -7 10 6
10 4 -2 -11 -8 -10 -33 -66 -54 -124 -121 -334 -310 -623 -567 -865 -455 -429
-1072 -646 -1690 -595 -109 9 -152 9 -170 0 -20 -10 -21 -9 -7 2 15 12 1 17
-99 37 -583 114 -1132 501 -1446 1019 -387 639 -428 1434 -107 2097 92 191
226 394 351 532 26 28 51 67 55 85 7 30 8 31 14 10 6 -23 6 -23 36 8 111 117
357 301 490 366 53 26 57 29 35 34 -16 3 -26 13 -28 28 -4 24 15 31 24 8 8
-22 59 -27 94 -10 23 12 28 19 20 29 -11 13 -4 45 10 45 12 0 20 -28 14 -45
-5 -11 -2 -13 9 -9 9 3 17 15 19 27 2 15 11 23 28 25 14 2 30 8 37 14 7 5 26
7 43 3 25 -5 30 -3 30 11 0 10 -9 27 -20 39 l-20 21 23 23 c20 18 28 20 50 12
15 -6 27 -15 27 -21 0 -5 9 -10 20 -10 27 0 25 14 -4 33 -13 9 -31 24 -41 33
-16 17 -16 18 1 31 10 7 32 13 49 13 19 0 35 7 43 20 13 21 27 26 36 11z
m1316 -10 c0 -25 -18 -37 -26 -17 -3 9 -11 13 -18 10 -6 -3 -2 2 8 10 26 21
36 20 36 -3z m-1683 -4 c-3 -7 4 -19 14 -25 22 -14 25 -47 5 -55 -7 -3 -23 5
-34 17 -18 22 -18 25 -3 50 17 28 26 35 18 13z m1993 9 c0 -7 -40 -14 -44 -7
-3 4 6 8 20 9 13 1 24 0 24 -2z m-372 -39 c23 -24 29 -36 22 -47 -7 -10 -10
-11 -10 -2 0 6 0 15 -1 20 -1 12 -21 32 -31 32 -6 0 -5 -7 2 -15 14 -17 8 -28
-15 -31 -8 -1 -13 2 -9 7 3 5 10 6 16 3 6 -4 8 -1 6 7 -3 8 -11 13 -18 11 -11
-2 -11 0 -1 12 9 11 9 16 0 22 -8 4 -9 3 -5 -4 4 -7 5 -12 2 -12 -2 0 -13 -3
-23 -7 -16 -6 -16 -5 -4 10 12 16 12 17 -5 11 -16 -5 -16 -4 -4 5 25 18 45 13
78 -22z m203 6 c13 -16 12 -17 -3 -4 -10 7 -18 15 -18 17 0 8 8 3 21 -13z
m164 -14 c-3 -17 -2 -28 3 -25 4 2 14 1 22 -5 9 -5 10 -9 3 -9 -6 0 -10 -8 -8
-17 2 -10 4 -22 4 -26 1 -5 5 -6 10 -3 4 3 19 -6 32 -21 13 -14 19 -23 13 -20
-13 7 -27 -17 -16 -27 11 -12 10 -33 -3 -33 -7 0 -12 8 -11 18 1 10 -3 19 -9
19 -5 0 -10 -9 -9 -19 1 -10 -5 -18 -12 -18 -7 0 -11 4 -9 8 3 3 -2 13 -11 20
-10 8 -13 21 -9 38 5 21 4 23 -9 12 -9 -7 -13 -18 -9 -25 3 -6 2 -7 -2 -3 -11
9 -16 37 -7 36 4 -1 10 0 15 1 7 2 21 6 33 9 3 0 2 6 -1 11 -4 7 -12 7 -25 0
-13 -7 -21 -7 -25 0 -4 6 -10 8 -14 6 -4 -3 -8 1 -8 9 0 8 2 13 5 10 2 -2 11
3 20 11 14 14 16 14 24 0 5 -9 14 -16 20 -16 6 0 3 9 -6 19 -26 29 -29 71 -5
71 5 0 7 -14 4 -31z m159 10 c-3 -5 -10 -7 -15 -3 -5 3 -7 10 -3 15 3 5 10 7
15 3 5 -3 7 -10 3 -15z m60 13 c3 -5 -1 -9 -9 -9 -8 0 -12 4 -9 9 3 4 7 8 9 8
2 0 6 -4 9 -8z m-2114 -22 c0 -13 -7 -20 -20 -20 -22 0 -28 25 -7 33 22 10 27
7 27 -13z m1766 -12 c-1 -22 -7 -32 -20 -34 -10 -1 -15 0 -12 3 3 4 -2 15 -11
26 -13 14 -14 18 -3 12 24 -15 42 -15 36 0 -4 11 1 25 9 25 1 0 2 -14 1 -32z
m-329 7 c0 -8 -4 -12 -9 -9 -5 3 -6 10 -3 15 9 13 12 11 12 -6z m433 -17 c0
-5 -7 -8 -15 -4 -8 3 -15 1 -15 -4 0 -6 -5 -10 -12 -10 -6 0 -3 8 7 20 17 19
35 19 35 -2z m-287 -11 c3 -8 -1 -14 -8 -14 -7 0 -11 6 -8 14 3 7 6 13 8 13 2
0 5 -6 8 -13z m13 -74 c-8 -8 -36 5 -36 17 0 7 6 7 21 0 11 -7 18 -14 15 -17z
m-1571 -13 c18 -20 17 -20 -7 -20 -17 0 -27 7 -31 20 -3 12 0 20 7 20 7 0 21
-9 31 -20z m1742 5 c0 -8 -4 -12 -9 -9 -5 3 -6 10 -3 15 9 13 12 11 12 -6z
m-68 -21 c9 -10 -53 6 -63 17 -6 5 4 5 24 -1 18 -5 35 -12 39 -16z m734 1 c-3
-9 -8 -14 -10 -11 -3 3 -2 9 2 15 9 16 15 13 8 -4z m-3007 -31 c-4 -9 -9 -15
-11 -12 -3 3 -3 13 1 22 4 9 9 15 11 12 3 -3 3 -13 -1 -22z m2774 -29 l1 20 8
-20 c5 -11 6 -24 4 -28 -8 -14 -33 15 -32 37 1 19 2 18 9 -4 7 -21 8 -22 10
-5z m-2436 1 c-3 -7 -16 -18 -29 -24 -19 -9 -26 -7 -40 8 -16 17 -15 19 7 23
49 9 67 7 62 -7z m2525 1 c8 -10 7 -14 -2 -14 -8 0 -14 6 -14 14 0 7 1 13 2
13 2 0 8 -6 14 -13z m-2436 -14 c-6 -15 -4 -16 9 -5 16 13 25 7 24 -15 -1 -7
-5 -13 -10 -12 -5 0 -13 -5 -17 -13 -7 -10 -9 -10 -9 0 0 6 -3 11 -7 10 -5 -2
-9 1 -10 6 -1 5 -7 13 -15 18 -10 8 -9 9 4 5 9 -3 19 1 22 9 3 8 8 14 10 14 3
0 2 -8 -1 -17z m-193 -3 c0 -5 -5 -10 -11 -10 -5 0 -7 5 -4 10 3 6 8 10 11 10
2 0 4 -4 4 -10z m2310 4 c0 -8 -19 -13 -24 -6 -3 5 1 9 9 9 8 0 15 -2 15 -3z
m-2550 -34 c-7 -4 -20 -6 -29 -5 -9 2 -20 4 -26 5 -5 0 -2 7 9 15 14 11 24 12
39 4 15 -8 16 -13 7 -19z m2699 -42 c-8 -14 -14 -17 -21 -10 -15 15 -2 43 16
36 12 -5 13 -10 5 -26z m-2826 -8 c-3 -11 -12 -20 -19 -20 -8 0 -14 9 -14 20
0 13 7 20 19 20 14 0 18 -5 14 -20z m-136 -5 c0 -8 -4 -12 -9 -9 -5 3 -6 10
-3 15 9 13 12 11 12 -6z m3115 -9 c31 -6 46 -19 48 -43 0 -4 -5 -8 -12 -9 -7
-1 -20 -5 -29 -8 -17 -8 -49 22 -54 51 -1 10 -8 17 -15 15 -6 -1 -9 2 -5 8 4
7 11 8 18 2 7 -5 28 -12 49 -16z m-2742 -29 c0 -16 -35 -1 -38 16 -3 16 -1 17
17 5 12 -7 21 -17 21 -21z m-64 -4 c-3 -3 -14 0 -23 8 -16 12 -17 12 -6 -2 7
-9 9 -20 5 -24 -4 -5 1 -5 11 -2 13 5 17 1 17 -19 0 -31 -15 -24 -35 17 -19
36 -12 53 16 38 12 -6 18 -13 15 -16z m-225 -27 c-6 -7 -9 -15 -6 -18 3 -2 -1
-5 -8 -5 -11 0 -11 5 -3 23 6 12 14 20 19 17 4 -3 3 -10 -2 -17z m3839 4 c0
-5 -5 -10 -11 -10 -5 0 -7 5 -4 10 3 6 8 10 11 10 2 0 4 -4 4 -10z m-3925 -19
c3 -5 1 -12 -4 -15 -5 -3 -11 1 -15 9 -6 16 9 21 19 6z m-604 -58 c13 -16 12
-17 -3 -4 -10 7 -18 15 -18 17 0 8 8 3 21 -13z m224 -12 c3 -5 2 -12 -3 -15
-5 -3 -9 1 -9 9 0 17 3 19 12 6z m712 3 c-3 -3 -12 -4 -19 -1 -8 3 -5 6 6 6
11 1 17 -2 13 -5z m23 -14 c-8 -5 -26 -9 -40 -9 -23 1 -23 2 5 9 43 11 52 11
35 0z m-663 -15 c0 -8 -4 -12 -9 -9 -5 3 -6 10 -3 15 9 13 12 11 12 -6z m-92
-4 c3 -5 2 -12 -3 -15 -5 -3 -9 1 -9 9 0 17 3 19 12 6z m160 -31 c-3 -5 -12
-10 -18 -10 -7 0 -6 4 3 10 19 12 23 12 15 0z m-92 -34 c15 2 16 0 6 -12 -13
-16 -25 -11 -39 19 -10 19 -9 20 2 6 7 -9 21 -15 31 -13z m301 -47 c-3 -5 -2
-9 3 -8 20 3 34 -2 28 -11 -4 -6 -11 -7 -17 -4 -7 4 -8 2 -4 -5 4 -6 11 -9 15
-6 5 2 16 -4 26 -15 18 -20 17 -20 -24 -20 -39 0 -41 2 -35 24 3 13 1 27 -5
30 -17 11 -13 36 4 30 8 -4 12 -10 9 -15z m156 -4 c10 -12 9 -15 -8 -15 -11 0
-25 7 -32 15 -10 12 -9 15 8 15 11 0 25 -7 32 -15z m-367 -20 c-3 -9 -8 -14
-10 -11 -3 3 -2 9 2 15 9 16 15 13 8 -4z m4367 -17 c0 -6 -6 -5 -15 2 -8 6
-19 9 -25 5 -5 -3 -10 -2 -10 4 0 5 6 11 13 14 14 5 37 -11 37 -25z m107 -13
c0 -8 -3 -13 -5 -10 -3 3 -11 -3 -19 -13 -16 -19 -7 4 10 26 12 15 14 15 14
-3z m-4649 -17 c-2 -7 2 -12 9 -11 8 2 10 -4 6 -15 -6 -15 -4 -15 9 -4 14 11
16 11 14 -2 -1 -9 -5 -18 -9 -22 -3 -4 -2 -15 3 -25 7 -12 7 -20 0 -24 -6 -4
-10 -3 -9 2 4 22 -2 34 -13 27 -10 -6 -10 -5 -1 8 7 8 10 18 6 21 -3 4 -11 -1
-18 -10 -9 -13 -14 -13 -20 -3 -5 9 -4 11 3 6 7 -4 12 -3 12 2 0 17 -13 22
-29 10 -13 -10 -14 -10 -3 2 16 19 16 35 -1 21 -10 -8 -14 -7 -14 3 0 8 8 13
18 11 10 -2 21 0 24 6 9 13 15 11 13 -3z m53 -65 c-12 -20 -14 -14 -5 12 4 9
9 14 11 11 3 -2 0 -13 -6 -23z m4843 -19 c9 -24 7 -31 -4 -14 -9 13 -10 13
-10 0 0 -13 -2 -13 -9 0 -10 15 -6 30 9 30 4 0 11 -7 14 -16z m-4718 -17 c10
-10 -43 -75 -66 -82 -23 -7 -50 10 -50 31 0 30 95 72 116 51z m-156 -58 c0
-10 4 -20 9 -23 5 -3 8 -29 7 -57 -2 -40 1 -52 16 -60 10 -6 16 -14 13 -20 -4
-5 5 -13 18 -18 18 -7 25 -17 23 -35 -1 -16 -5 -21 -12 -15 -6 5 -14 5 -18 1
-4 -4 -6 -1 -4 6 3 12 -46 45 -84 56 -10 3 -18 14 -18 25 0 28 -33 20 -41 -10
-6 -22 -7 -22 -8 -3 -1 12 6 27 14 34 12 10 13 16 3 27 -6 8 -7 13 -2 12 26
-5 55 2 48 12 -3 6 -14 9 -24 6 -25 -6 -14 28 19 61 16 16 21 27 13 30 -7 2
-12 8 -12 14 0 6 9 3 20 -7 11 -10 20 -26 20 -36z m-284 -47 c-4 -3 -12 0 -19
8 -9 10 -9 11 1 6 8 -5 12 2 13 21 l2 28 4 -28 c3 -16 2 -31 -1 -35z m173 -26
c8 -10 9 -16 1 -21 -6 -4 -10 -3 -9 2 3 17 -1 24 -11 18 -6 -4 -5 -16 4 -34
16 -29 11 -44 -16 -54 -9 -3 -18 -14 -21 -24 -2 -10 -3 0 0 22 2 22 8 44 14
50 12 12 12 25 -2 25 -5 0 -7 -5 -3 -12 5 -7 3 -8 -6 -3 -10 6 -7 12 11 26 29
22 24 22 38 5z m4367 -35 c-10 -16 -33 -13 -33 4 0 11 4 12 14 3 11 -9 12 -7
7 8 -6 15 -4 17 6 7 7 -6 9 -16 6 -22z m-56 -28 c0 -8 4 -12 9 -9 11 7 20 -14
14 -31 -3 -6 -12 -9 -20 -6 -11 4 -14 2 -9 -5 4 -7 2 -12 -5 -12 -8 0 -10 12
-6 38 l6 37 -15 -27 c-8 -16 -17 -28 -20 -28 -3 0 -2 5 1 10 4 6 1 18 -6 26
-7 8 -8 14 -3 13 20 -4 35 2 29 11 -3 6 1 7 9 4 9 -3 16 -13 16 -21z m-247
-36 c4 3 7 4 7 1 0 -3 -8 -12 -17 -19 -10 -7 -15 -9 -11 -5 4 5 2 16 -5 25
-10 14 -10 14 4 4 9 -7 19 -10 22 -6z m78 -24 c13 -16 12 -17 -3 -4 -10 7 -18
15 -18 17 0 8 8 3 21 -13z m-3994 -30 c0 -7 -4 -13 -9 -13 -4 0 -8 6 -8 13 0
8 -4 7 -10 -3 -5 -8 -10 -10 -10 -4 0 14 7 21 23 21 8 0 14 -6 14 -14z m76 0
c-3 -7 -6 -13 -8 -13 -2 0 -5 6 -8 13 -3 8 1 14 8 14 7 0 11 -6 8 -14z m4254
-75 c-2 -13 -4 -3 -4 22 0 25 2 35 4 23 2 -13 2 -33 0 -45z m-151 -154 c1 -9
-1 -13 -4 -9 -4 4 -7 12 -7 18 -1 7 -7 11 -14 9 -7 -1 -9 2 -6 9 9 13 28 -3
31 -27z m-4779 -2 c-10 -10 -24 -19 -32 -19 -15 0 -17 5 -2 6 4 0 15 7 23 16
22 21 31 19 11 -3z m4774 -45 c-10 -9 -11 -8 -5 6 3 10 9 15 12 12 3 -3 0 -11
-7 -18z m206 -64 c0 -9 -4 -10 -14 -2 -7 6 -13 12 -13 14 0 1 6 2 13 2 8 0 14
-6 14 -14z m-4822 -16 c0 -24 -18 -23 -27 3 -6 17 -4 21 10 18 9 -2 17 -11 17
-21z m4812 -26 c2 -24 -13 -36 -23 -20 -4 8 -3 9 4 5 7 -4 12 -2 12 3 0 6 -6
11 -12 12 -10 0 -10 2 0 6 10 4 9 10 -5 27 -18 21 -18 21 2 4 12 -9 21 -26 22
-37z m53 -91 c1 11 3 11 11 -3 6 -10 8 -21 5 -24 -3 -4 -6 0 -6 7 0 9 -5 7
-15 -6 -18 -24 -20 -48 -2 -38 8 5 8 2 -2 -9 -14 -18 -22 -22 -20 -9 1 4 1 15
0 26 -1 16 -3 17 -18 5 -16 -13 -17 -12 -5 3 8 10 19 16 24 15 6 -1 13 4 16
12 2 8 0 11 -6 7 -6 -3 -14 -1 -18 5 -4 8 -3 9 4 5 7 -4 12 -1 12 6 0 9 3 9
10 -2 9 -13 10 -13 10 0z m-4995 -19 c3 -5 2 -12 -3 -15 -5 -3 -9 1 -9 9 0 17
3 19 12 6z m48 -27 c-23 -17 -33 -17 -33 0 0 8 8 16 18 19 27 6 35 -4 15 -19z
m167 1 c0 -17 -37 -26 -44 -10 -2 7 0 17 6 23 13 13 38 4 38 -13z m4707 0 c0
-8 -4 -12 -9 -9 -5 3 -6 10 -3 15 9 13 12 11 12 -6z m-4972 -14 c3 -5 2 -12
-3 -15 -5 -3 -9 1 -9 9 0 17 3 19 12 6z m16 -24 c-10 -9 -11 -8 -5 6 3 10 9
15 12 12 3 -3 0 -11 -7 -18z m-44 -2 c0 -8 -4 -12 -9 -9 -5 3 -6 10 -3 15 9
13 12 11 12 -6z m86 -35 c-5 -18 -33 -30 -33 -14 0 5 29 32 37 34 0 0 -1 -9
-4 -20z m-75 -18 c-7 -10 -14 -19 -15 -21 -3 -4 2 28 6 47 1 2 6 0 11 -3 8 -5
7 -12 -2 -23z m-48 14 c0 -2 -8 -10 -17 -17 -16 -13 -17 -12 -4 4 13 16 21 21
21 13z m237 -21 c0 -8 -4 -12 -9 -9 -5 3 -6 10 -3 15 9 13 12 11 12 -6z m-94
-38 c25 -29 21 -37 -13 -27 -18 5 -30 5 -30 -1 0 -23 -26 -6 -35 24 l-11 32
36 -4 c19 -2 43 -13 53 -24z m-150 -48 c-7 -7 -23 -9 -39 -5 -20 5 -24 10 -15
16 8 4 11 13 7 19 -5 7 -1 8 10 4 13 -5 15 -3 9 8 -4 8 3 4 16 -8 17 -17 20
-26 12 -34z m186 -18 c11 -21 4 -34 -13 -24 -22 14 -47 10 -41 -6 3 -11 0 -10
-10 3 -8 11 -15 25 -15 30 0 7 3 8 8 1 9 -12 43 -19 41 -8 -5 28 16 31 30 4z
m-120 -65 c9 -11 4 -17 -26 -31 -21 -10 -38 -16 -39 -14 0 2 -8 -2 -18 -10
-19 -16 -29 -11 -20 12 5 14 10 15 27 6 18 -9 20 -9 10 1 -10 10 -5 17 20 31
18 10 33 18 33 18 1 1 7 -5 13 -13z m-79 -2 c0 -8 -19 -13 -24 -6 -3 5 1 9 9
9 8 0 15 -2 15 -3z m90 -69 c-10 -12 -16 -13 -28 -3 -13 10 -14 10 -8 1 4 -7
2 -13 -3 -13 -24 0 -9 29 17 32 35 4 38 2 22 -17z m140 -40 c11 -13 8 -15 -14
-15 -16 0 -26 5 -26 15 0 8 6 15 14 15 7 0 19 -7 26 -15z m-190 -25 c8 -15 5
-17 -15 -17 -29 0 -39 11 -31 32 6 18 33 9 46 -15z m-110 -86 c0 -8 -19 -13
-24 -6 -3 5 1 9 9 9 8 0 15 -2 15 -3z m-26 -46 l16 -32 -25 24 c-26 24 -32 40
-16 40 5 0 17 -14 25 -32z m148 10 c-9 -9 -8 -16 5 -30 9 -10 14 -18 11 -18
-2 0 -15 12 -29 27 -13 14 -19 23 -12 19 6 -3 14 -2 18 4 3 5 9 10 13 10 3 0
1 -5 -6 -12z m-82 -43 c-7 -8 -7 -15 -1 -19 5 -3 12 0 15 6 3 7 4 6 3 -4 -1
-9 3 -16 8 -15 6 1 9 5 8 8 -1 3 5 6 13 6 12 0 12 -3 1 -16 -7 -9 -13 -22 -13
-28 1 -15 21 -18 21 -4 0 5 3 12 7 16 9 9 5 -17 -6 -33 -5 -9 -11 -10 -20 -3
-13 11 -26 5 -26 -11 0 -5 5 -6 10 -3 6 4 9 1 8 -7 -2 -7 3 -12 10 -10 8 1 11
-2 7 -8 -5 -8 -11 -8 -19 -1 -7 6 -16 8 -19 4 -4 -3 1 -12 11 -20 16 -12 15
-13 -3 -6 -18 6 -19 5 -5 -12 13 -17 13 -18 0 -10 -8 6 -18 10 -22 10 -3 0
-10 4 -15 8 -4 5 -3 7 3 5 7 -1 12 0 13 5 1 4 5 13 9 20 5 6 7 22 6 34 0 12 2
21 5 20 3 -1 6 3 6 8 0 6 -4 9 -10 7 -5 -2 -7 0 -3 4 13 12 -13 36 -26 25 -9
-7 -12 -3 -12 14 0 19 3 22 13 13 12 -10 17 -4 14 15 -1 5 3 6 9 2 8 -5 8 -11
0 -20z m37 10 c0 -8 -4 -12 -9 -9 -5 3 -6 10 -3 15 9 13 12 11 12 -6z m150
-20 c0 -8 -4 -12 -9 -9 -5 3 -6 10 -3 15 9 13 12 11 12 -6z m-255 -70 c-4 -23
-11 -29 -29 -22 -4 1 -8 8 -9 15 -2 11 0 11 14 0 13 -11 15 -11 9 4 -3 9 -1
19 6 22 7 2 13 5 13 5 1 1 -1 -10 -4 -24z m-50 -77 c-6 -6 -8 0 -4 18 3 19 1
25 -7 20 -6 -4 -9 -11 -6 -16 6 -10 -21 -7 -32 4 -4 4 -1 6 7 4 8 -2 14 3 12
10 -1 8 2 11 8 7 6 -3 10 4 11 17 1 16 4 11 11 -15 7 -26 7 -42 0 -49z m243
33 c-8 -14 -25 -14 -25 0 0 5 5 7 10 4 6 -3 10 -1 10 6 0 7 3 10 6 6 3 -3 3
-10 -1 -16z m-149 -3 c4 -7 4 -10 -1 -6 -4 4 -15 2 -24 -5 -14 -11 -14 -10 -2
6 16 20 18 21 27 5z m-118 -45 c-2 -10 3 -17 10 -15 6 1 11 -1 10 -5 0 -5 2
-16 7 -26 4 -10 5 -20 2 -23 -10 -11 -27 7 -27 27 0 11 -4 18 -9 15 -5 -4 -8
2 -6 11 2 10 4 21 4 26 1 4 3 7 6 7 3 0 5 -8 3 -17z m62 -43 c-17 -10 -30 4
-30 35 0 19 1 18 23 -3 18 -19 20 -24 7 -32z m146 37 c8 3 14 3 14 0 0 -14
-30 -14 -41 1 -11 14 -11 15 0 5 7 -6 20 -9 27 -6z m-68 -9 c-2 -7 2 -12 9
-11 7 2 10 -4 6 -12 -5 -13 -7 -13 -18 2 -7 10 -11 21 -9 25 8 12 14 9 12 -4z
m140 -33 c0 -44 -13 -55 -16 -14 -2 27 3 49 13 49 1 0 3 -16 3 -35z m-182 -37
c4 -7 4 -10 -1 -6 -4 4 -15 2 -24 -5 -14 -11 -14 -10 -2 6 16 20 18 21 27 5z
m76 -169 c2 -2 1 -3 -1 -2 -2 1 -11 -6 -20 -15 -9 -10 -13 -13 -8 -8 11 15 8
28 -5 20 -6 -4 -8 -3 -5 4 7 10 33 11 39 1z m-77 -68 c3 -5 2 -12 -3 -15 -5
-3 -9 1 -9 9 0 17 3 19 12 6z m-5 -37 c0 -8 -19 -13 -24 -6 -3 5 1 9 9 9 8 0
15 -2 15 -3z m-7 -28 c3 3 4 -2 3 -13 -2 -10 1 -26 6 -37 7 -12 7 -16 -1 -12
-5 4 -15 -2 -21 -13 -7 -13 -7 -22 0 -26 5 -3 11 2 11 12 1 17 2 17 6 0 2 -9
9 -15 14 -12 5 3 6 -2 2 -11 -5 -13 -3 -15 7 -9 9 5 11 4 6 -4 -4 -6 -11 -9
-16 -6 -4 3 -11 -2 -14 -11 -5 -13 -9 -14 -21 -4 -9 7 -13 15 -10 18 3 3 -3
14 -12 24 -12 13 -13 18 -4 16 7 -2 15 2 18 9 5 13 -14 12 -37 -1 -8 -5 -12
-6 -8 -1 9 10 -11 37 -22 30 -5 -3 -7 3 -5 12 1 10 -1 23 -6 29 -5 7 -3 11 5
11 8 0 13 -8 11 -18 -2 -10 4 -24 13 -31 13 -11 15 -11 9 4 -4 13 -1 16 14 13
18 -4 25 11 20 39 -1 5 4 4 12 -2 8 -7 16 -9 20 -6z m447 -180 c0 -2 -6 -9
-13 -15 -10 -8 -14 -7 -14 4 0 8 6 15 14 15 7 0 13 -2 13 -4z m-265 -115 c3
-5 2 -12 -3 -15 -5 -3 -9 1 -9 9 0 17 3 19 12 6z m-39 -47 c1 -9 0 -13 -4 -10
-3 4 -7 14 -8 22 -1 9 0 13 4 10 3 -4 7 -14 8 -22z m-234 -19 c2 3 5 -2 5 -10
0 -19 0 -19 -23 7 -12 14 -13 18 -3 10 9 -6 18 -10 21 -7z m193 4 c-7 -10 15
-16 57 -14 20 1 35 -2 32 -6 -2 -4 0 -10 6 -14 5 -3 10 -1 10 4 0 6 5 11 10
11 6 0 9 -3 9 -7 -1 -5 -1 -15 1 -23 1 -11 4 -9 10 5 8 18 9 18 9 2 1 -10 6
-15 11 -12 6 4 8 10 6 14 -3 4 1 8 9 8 13 0 12 -4 -2 -19 -17 -19 -5 -26 14
-7 8 8 13 7 18 -3 5 -7 5 -10 0 -6 -4 4 -14 3 -22 -3 -10 -9 -17 -8 -28 1 -8
7 -15 9 -15 4 0 -5 -7 0 -15 10 -8 11 -15 16 -15 12 0 -4 -6 -4 -12 1 -15 9
-51 11 -58 3 -3 -3 -18 6 -33 21 -19 17 -23 26 -13 26 8 0 13 -4 11 -8z m255
-3 c0 -2 -8 -10 -17 -17 -16 -13 -17 -12 -4 4 13 16 21 21 21 13z m-235 -77
c-3 -17 6 -24 28 -20 4 0 6 -5 5 -11 -2 -7 6 -13 18 -12 14 1 20 -5 20 -22 0
-12 -4 -20 -8 -18 -9 6 -6 -25 4 -42 4 -6 1 -11 -5 -11 -7 0 -14 10 -14 21 -3
39 -11 61 -22 59 -6 -2 -10 2 -8 8 1 6 -4 14 -12 17 -10 3 -11 0 -5 -9 6 -12
5 -12 -9 0 -10 8 -15 16 -12 19 3 3 0 11 -7 19 -6 8 -7 13 -2 12 21 -4 24 2
14 24 -10 20 -10 21 4 4 8 -11 13 -27 11 -38z m4761 -24 c-3 -8 -10 -15 -15
-15 -7 0 -6 10 1 26 12 26 25 16 14 -11z m-4948 -63 c-3 -15 15 -41 24 -36 6
4 6 -1 -1 -13 -6 -11 -8 -23 -5 -26 3 -3 -1 -8 -8 -13 -7 -4 -10 -4 -6 0 4 5
-4 26 -18 47 -25 41 -25 63 1 53 8 -3 14 -9 13 -12z m80 -15 c2 -12 -1 -15
-12 -11 -19 7 -22 38 -3 32 6 -3 13 -12 15 -21z m-23 -89 c4 -3 2 -9 -3 -12
-5 -3 -15 1 -21 8 -10 11 -9 14 3 12 9 -1 18 -5 21 -8z m51 -94 c-1 -13 -5
-26 -8 -29 -4 -4 -5 1 -4 12 2 10 0 23 -5 29 -5 6 -4 11 5 11 7 0 12 -10 12
-23z m208 -53 c3 -4 -7 -19 -22 -32 -14 -13 -21 -17 -14 -8 6 9 8 19 4 23 -4
4 0 6 8 4 8 -1 14 3 13 10 -3 14 3 16 11 3z m-101 -26 c-3 -9 -8 -14 -10 -11
-3 3 -2 9 2 15 9 16 15 13 8 -4z m53 3 c4 4 3 0 -4 -9 -6 -9 -11 -18 -9 -20 1
-2 0 -2 -3 -1 -3 2 -5 7 -5 10 0 4 -4 14 -10 22 -7 12 -6 13 7 3 8 -7 19 -9
24 -5z m59 -97 c-9 -8 -36 -10 -30 -2 2 4 11 8 20 8 8 0 13 -3 10 -6z m-45 -5
c0 -2 -6 -9 -14 -15 -11 -9 -16 -9 -22 0 -4 7 -3 9 4 5 6 -3 13 -2 17 4 6 10
15 14 15 6z m194 -97 c-17 -18 -9 -28 19 -24 9 2 15 0 12 -5 -12 -20 -55 3
-50 28 4 21 2 19 20 19 13 0 13 -3 -1 -18z m74 -29 c-2 -5 2 -9 7 -7 6 1 9 7
7 12 -2 6 0 6 4 2 13 -12 13 -35 0 -33 -20 3 -36 17 -31 27 8 12 16 12 13 -1z
m68 -74 c2 -16 0 -16 -14 -4 -20 17 -48 17 -45 1 2 -9 -24 -11 -34 -3 -2 2 -7
3 -12 4 -5 0 -13 5 -18 10 -4 5 -3 6 4 2 6 -3 14 -3 17 2 2 4 26 8 52 7 38 0
48 -4 50 -19z m-21 -56 c3 -6 -1 -7 -9 -4 -18 7 -21 14 -7 14 6 0 13 -4 16
-10z m79 -16 c3 -8 2 -12 -4 -9 -6 3 -10 10 -10 16 0 14 7 11 14 -7z m11 -44
c-8 -9 -12 -19 -9 -22 3 -3 1 -9 -4 -12 -5 -3 -8 7 -6 22 2 32 0 29 19 29 13
0 13 -2 0 -17z m3493 -352 c7 -7 12 -16 12 -20 0 -15 -15 -8 -28 12 -13 22 -3
27 16 8z m-1634 -274 c9 -24 0 -28 -23 -12 -12 8 -18 18 -14 21 12 12 31 7 37
-9z m-90 -3 c3 -5 -3 -11 -14 -14 -13 -3 -20 0 -20 9 0 15 26 19 34 5z m1206
-2 c0 -5 4 -7 10 -4 5 3 7 0 4 -8 -7 -20 -33 -17 -31 5 1 19 17 26 17 7z
m-115 -40 c-26 -10 -50 -18 -54 -17 -22 2 -32 -4 -28 -16 3 -8 0 -17 -8 -20
-15 -5 -65 15 -65 27 0 8 4 9 42 11 15 1 33 7 40 14 7 7 22 12 34 12 12 0 27
7 34 15 9 11 17 12 33 4 19 -11 17 -13 -28 -30z m-725 -5 c0 -8 -19 -13 -24
-6 -3 5 1 9 9 9 8 0 15 -2 15 -3z m480 -47 c0 -5 -14 -7 -32 -3 -40 8 -61 26
-31 26 12 0 25 5 29 12 7 11 34 -16 34 -35z m-187 -12 c-6 -18 -19 -19 -29 -4
-7 12 15 31 28 23 4 -3 5 -11 1 -19z m545 -7 c-2 -21 -8 -33 -18 -33 -19 0
-25 32 -10 50 20 24 31 17 28 -17z m183 18 c-6 -7 -8 -22 -4 -31 5 -14 3 -17
-10 -12 -9 3 -17 2 -17 -3 0 -16 -56 -12 -70 5 -13 16 -4 39 14 32 7 -3 23 1
37 9 33 18 65 19 50 0z m-907 -31 c-7 -17 -20 -20 -29 -6 -3 5 3 12 12 14 10
3 19 5 20 6 1 0 0 -6 -3 -14z m250 -26 c4 -20 1 -28 -18 -39 -37 -19 -51 -9
-27 22 12 14 21 34 21 44 0 24 16 6 24 -27z m-318 16 c-1 -8 -5 -17 -8 -21 -5
-4 -4 16 1 34 3 9 9 -1 7 -13z m-147 -31 c-12 -15 -29 -10 -29 9 0 7 4 6 10
-3 9 -14 14 -7 11 13 -1 5 3 6 9 2 8 -5 8 -11 -1 -21z m741 -34 c8 -16 8 -20
-4 -20 -19 0 -46 27 -46 46 0 20 35 1 50 -26z"/>
<path d="M3445 5600 c-3 -5 -1 -10 4 -10 6 0 11 5 11 10 0 6 -2 10 -4 10 -3 0
-8 -4 -11 -10z"/>
<path d="M3495 5600 c3 -5 10 -10 16 -10 5 0 9 5 9 10 0 6 -7 10 -16 10 -8 0
-12 -4 -9 -10z"/>
<path d="M3247 5421 c-4 -17 -3 -21 5 -13 5 5 8 16 6 23 -3 8 -7 3 -11 -10z"/>
<path d="M4510 5624 c0 -1 6 -7 14 -13 10 -8 16 -8 24 2 9 10 6 13 -13 13 -14
0 -25 -1 -25 -2z"/>
<path d="M4694 5470 c0 -10 7 -17 16 -15 8 1 15 8 15 15 0 7 -7 14 -15 15 -9
2 -16 -5 -16 -15z"/>
<path d="M4618 5469 c-4 -11 2 -15 27 -15 24 0 31 4 27 14 -4 11 -6 11 -13 0
-7 -10 -9 -10 -9 2 0 12 -2 13 -9 1 -7 -11 -9 -11 -13 0 -3 10 -6 10 -10 -2z"/>
<path d="M4000 5309 c0 -5 9 -9 20 -9 11 0 20 2 20 4 0 2 -9 6 -20 9 -11 3
-20 1 -20 -4z"/>
<path d="M3876 5293 c-6 -14 -5 -15 5 -6 7 7 10 15 7 18 -3 3 -9 -2 -12 -12z"/>
<path d="M4238 5283 c7 -3 16 -2 19 1 4 3 -2 6 -13 5 -11 0 -14 -3 -6 -6z"/>
<path d="M4518 5283 c7 -3 16 -2 19 1 4 3 -2 6 -13 5 -11 0 -14 -3 -6 -6z"/>
<path d="M4270 5222 c0 -4 56 -7 124 -7 68 0 122 3 119 8 -6 9 -243 9 -243 -1z"/>
<path d="M4040 5200 c-848 -144 -1529 -766 -1736 -1585 -54 -218 -67 -337 -61
-590 5 -221 16 -311 57 -475 154 -609 573 -1123 1141 -1404 202 -100 486 -185
669 -200 60 -5 58 -4 -20 9 -477 79 -851 261 -1183 575 -352 334 -586 800
-647 1290 -15 127 -12 422 6 552 53 381 214 752 457 1053 81 101 269 282 369
358 222 166 548 323 751 363 10 2 27 6 37 9 10 3 28 8 39 10 12 3 31 7 44 10
12 3 42 8 67 11 25 3 54 8 65 10 11 3 52 7 90 10 39 4 72 8 74 10 11 10 -125
0 -219 -16z"/>
<path d="M4531 5216 c2 -2 33 -7 69 -10 36 -4 76 -8 90 -10 14 -3 41 -7 60
-10 44 -7 77 -14 98 -20 9 -3 28 -7 42 -10 69 -14 84 -17 92 -22 5 -3 20 -8
35 -10 14 -3 39 -12 54 -20 16 -8 29 -11 29 -7 0 4 5 2 12 -5 7 -7 18 -12 25
-12 25 0 205 -85 319 -150 165 -96 281 -185 428 -328 280 -275 469 -599 577
-992 16 -58 26 -88 23 -66 -3 21 -16 77 -30 125 -231 809 -918 1410 -1755
1536 -95 14 -177 20 -168 11z"/>
<path d="M3670 5179 c0 -5 5 -7 10 -4 6 3 10 8 10 11 0 2 -4 4 -10 4 -5 0 -10
-5 -10 -11z"/>
<path d="M6400 4143 c0 -6 5 -15 11 -19 8 -4 7 -9 -2 -16 -10 -7 -9 -8 5 -4
15 5 17 4 7 -8 -9 -11 -8 -15 4 -20 22 -8 19 27 -5 55 -10 13 -19 19 -20 12z"/>
<path d="M6401 3990 c7 -18 15 -27 22 -23 8 5 8 8 -1 11 -7 2 -12 10 -12 17 0
8 -4 16 -10 20 -5 3 -5 -7 1 -25z"/>
<path d="M6460 3839 c0 -5 5 -7 10 -4 6 3 10 8 10 11 0 2 -4 4 -10 4 -5 0 -10
-5 -10 -11z"/>
<path d="M5530 3722 c-113 -30 -175 -77 -226 -172 -27 -53 -26 -181 3 -236 55
-102 153 -157 419 -234 95 -27 124 -50 124 -99 0 -65 -57 -101 -158 -101 -103
1 -170 49 -187 136 l-6 34 -121 0 -120 0 7 -47 c34 -227 197 -328 486 -302
186 17 300 96 336 231 17 67 16 93 -3 157 -18 63 -71 124 -133 155 -25 13
-116 46 -201 75 -85 28 -170 60 -187 71 -89 54 -24 160 97 160 86 -1 139 -41
164 -122 5 -16 19 -18 119 -18 63 0 116 2 119 5 9 10 -13 108 -34 149 -73 143
-290 212 -498 158z"/>
<path d="M6020 3702 c0 -9 6 -12 15 -8 12 4 15 -4 15 -44 0 -28 5 -50 10 -50
6 0 10 20 10 45 0 38 3 45 20 45 40 0 19 18 -25 22 -33 2 -45 0 -45 -10z"/>
<path d="M6189 3677 l-12 -42 -10 38 c-6 26 -14 37 -28 37 -16 0 -19 -8 -19
-55 0 -64 19 -76 21 -12 l1 42 12 -39 c15 -49 33 -57 42 -19 10 48 12 49 13
11 1 -57 21 -45 21 12 0 28 1 53 3 57 1 3 -6 7 -15 9 -13 1 -21 -9 -29 -39z"/>
<path d="M2670 3215 l0 -495 130 0 130 0 0 495 0 495 -130 0 -130 0 0 -495z"/>
<path d="M3030 3215 l0 -495 385 0 385 0 0 100 0 100 -257 2 -258 3 -3 103 -3
102 261 0 260 0 0 100 0 100 -260 0 -260 0 0 90 0 90 260 0 260 0 0 100 0 100
-385 0 -385 0 0 -495z"/>
<path d="M3897 3218 l1 -493 359 -3 358 -2 0 107 0 108 -233 3 -232 2 0 385 0
385 -127 0 -128 0 2 -492z"/>
<path d="M4430 3610 l0 -100 140 0 140 0 0 -395 0 -395 125 0 125 0 0 395 0
395 145 0 145 0 0 100 0 100 -410 0 -410 0 0 -100z"/>
<path d="M6535 3619 c-4 -6 -5 -12 -2 -15 2 -3 7 2 10 11 7 17 1 20 -8 4z"/>
<path d="M6544 3579 c-3 -6 -2 -15 3 -20 5 -5 9 -1 9 11 0 23 -2 24 -12 9z"/>
<path d="M6551 3524 c0 -11 3 -14 6 -6 3 7 2 16 -1 19 -3 4 -6 -2 -5 -13z"/>
<path d="M6496 3438 c8 -35 14 -76 14 -92 0 -16 3 -26 7 -23 8 9 -17 177 -26
177 -4 0 -2 -28 5 -62z"/>
<path d="M6560 3476 c0 -8 4 -17 9 -20 5 -4 7 3 4 14 -6 23 -13 26 -13 6z"/>
<path d="M6601 3334 c0 -11 3 -14 6 -6 3 7 2 16 -1 19 -3 4 -6 -2 -5 -13z"/>
<path d="M6518 3268 c5 -71 10 -77 11 -15 0 31 -2 57 -7 57 -4 0 -6 -19 -4
-42z"/>
<path d="M6591 3209 c0 -15 5 -32 12 -38 10 -8 14 -7 14 4 0 8 -4 12 -8 9 -4
-2 -10 8 -12 23 l-4 28 -2 -26z"/>
<path d="M6529 3168 c-5 -15 -2 -181 4 -185 4 -2 7 39 7 91 0 53 -2 96 -5 96
-3 0 -5 -1 -6 -2z"/>
<path d="M6518 2900 c-1 -28 0 -50 5 -50 4 0 7 23 7 50 0 65 -7 65 -12 0z"/>
<path d="M6508 2805 c-2 -19 0 -35 4 -35 4 0 8 16 8 35 0 19 -2 35 -4 35 -2 0
-6 -16 -8 -35z"/>
<path d="M6498 2735 c-3 -14 -1 -25 3 -25 5 0 9 11 9 25 0 14 -2 25 -4 25 -2
0 -6 -11 -8 -25z"/>
<path d="M6488 2675 c-3 -14 -1 -25 3 -25 5 0 9 11 9 25 0 14 -2 25 -4 25 -2
0 -6 -11 -8 -25z"/>
<path d="M6466 2570 c-95 -385 -285 -721 -565 -1001 -328 -327 -704 -522
-1176 -608 -27 -5 -40 -9 -27 -10 45 -2 229 41 362 85 317 105 600 278 834
511 274 271 456 578 562 945 19 67 33 129 31 138 -1 8 -11 -19 -21 -60z"/>
<path d="M2670 2535 l0 -75 55 0 c42 0 55 3 55 15 0 11 -11 15 -41 15 -33 0
-40 3 -37 18 2 11 14 18 36 20 42 4 41 20 0 24 -21 2 -33 8 -33 18 0 11 9 14
38 12 28 -3 37 0 37 12 0 13 -12 16 -55 16 l-55 0 0 -75z"/>
<path d="M3040 2535 c0 -68 2 -75 20 -75 18 0 20 7 20 75 0 68 -2 75 -20 75
-18 0 -20 -7 -20 -75z"/>
<path d="M3092 2598 c6 -18 25 -20 31 -3 5 10 0 15 -14 15 -12 0 -19 -5 -17
-12z"/>
<path d="M3260 2535 c0 -60 3 -75 15 -75 11 0 15 12 15 46 0 38 3 45 18 42 12
-2 18 -15 20 -46 2 -27 7 -42 15 -39 14 4 10 86 -5 105 -6 7 -19 10 -29 7 -14
-5 -19 -1 -19 14 0 12 -7 21 -15 21 -12 0 -15 -15 -15 -75z"/>
<path d="M3440 2591 c0 -11 -6 -22 -12 -25 -10 -5 -10 -7 0 -12 7 -3 12 -24
12 -50 0 -34 4 -44 16 -44 13 0 15 9 12 45 -2 25 0 45 3 45 3 0 6 14 6 30 0
22 -5 30 -19 30 -11 0 -18 -7 -18 -19z"/>
<path d="M3750 2535 c0 -60 3 -75 15 -75 12 0 15 15 15 75 0 60 -3 75 -15 75
-12 0 -15 -15 -15 -75z"/>
<path d="M4462 2598 c6 -18 28 -21 28 -4 0 9 -7 16 -16 16 -9 0 -14 -5 -12
-12z"/>
<path d="M4860 2535 c0 -60 3 -75 15 -75 12 0 15 15 15 75 0 60 -3 75 -15 75
-12 0 -15 -15 -15 -75z"/>
<path d="M4980 2583 c-39 -49 -6 -123 55 -123 43 0 64 18 72 62 8 56 -16 88
-67 88 -30 0 -43 -6 -60 -27z m84 -9 c28 -28 11 -94 -25 -94 -13 0 -49 38 -49
53 0 19 29 57 45 57 7 0 21 -7 29 -16z"/>
<path d="M5850 2595 c0 -8 7 -15 15 -15 8 0 15 7 15 15 0 8 -7 15 -15 15 -8 0
-15 -7 -15 -15z"/>
<path d="M3918 2583 c-3 -10 -2 -40 1 -68 5 -42 10 -51 29 -53 22 -3 30 12 12
23 -14 9 -12 62 3 69 10 5 10 7 0 12 -7 3 -13 12 -13 20 0 20 -27 17 -32 -3z"/>
<path d="M4398 2583 c-3 -10 -2 -40 1 -68 5 -42 10 -51 29 -53 12 -2 22 1 22
7 0 6 -4 11 -10 11 -15 0 -12 67 3 74 10 5 10 7 0 12 -7 3 -13 12 -13 20 0 20
-27 17 -32 -3z"/>
<path d="M5570 2586 c0 -8 -6 -17 -12 -20 -10 -5 -10 -7 0 -12 7 -3 12 -24 12
-50 0 -35 3 -44 18 -44 16 0 19 30 13 128 -1 17 -31 15 -31 -2z"/>
<path d="M5910 2586 c0 -8 -6 -17 -12 -19 -10 -4 -10 -8 -1 -14 6 -4 13 -26
15 -48 2 -33 7 -41 26 -43 12 -2 22 1 22 7 0 6 -4 11 -10 11 -16 0 -12 67 5
73 10 5 19 -9 32 -50 14 -43 15 -57 5 -61 -20 -6 -14 -31 7 -25 12 3 27 26 41
66 13 34 25 68 27 75 3 6 -2 12 -10 12 -9 0 -21 -16 -28 -37 l-13 -38 -9 38
c-8 34 -12 38 -34 34 -19 -3 -27 0 -30 14 -6 22 -33 26 -33 5z"/>
<path d="M2851 2571 c-7 -5 -22 -6 -32 -4 -17 5 -19 -1 -19 -51 0 -42 4 -56
14 -56 10 0 16 14 18 42 2 31 8 44 21 46 14 3 17 -4 17 -42 0 -34 4 -46 15
-46 24 0 21 96 -3 109 -10 5 -24 6 -31 2z"/>
<path d="M2937 2567 c-22 -15 -25 -70 -7 -92 8 -10 23 -15 37 -12 16 3 23 -1
23 -10 0 -12 -8 -14 -36 -8 -28 5 -35 3 -32 -7 6 -18 79 -23 89 -6 5 7 9 41 9
76 0 54 -2 62 -19 62 -11 0 -25 2 -33 5 -7 3 -22 0 -31 -8z m51 -50 c3 -21 -1
-27 -16 -27 -22 0 -34 22 -25 45 9 25 38 13 41 -18z"/>
<path d="M3155 2564 c-21 -22 -15 -36 23 -53 18 -8 32 -18 32 -23 0 -12 -17
-10 -40 4 -24 15 -37 4 -20 -17 23 -28 90 -16 90 17 0 12 -12 24 -35 34 -46
19 -45 28 3 20 l37 -6 -24 20 c-28 24 -44 25 -66 4z"/>
<path d="M3512 2564 c-15 -10 -22 -25 -22 -48 0 -41 15 -56 57 -56 36 0 53 21
53 64 0 24 -32 56 -55 56 -6 0 -21 -7 -33 -16z m56 -45 c3 -26 -19 -46 -39
-33 -11 6 -12 48 -2 58 15 14 38 0 41 -25z"/>
<path d="M3661 2571 c-8 -5 -20 -7 -28 -4 -10 4 -13 -8 -13 -51 0 -43 3 -56
15 -56 11 0 15 11 15 40 0 26 6 42 16 48 9 5 15 14 13 20 -3 7 -9 8 -18 3z"/>
<path d="M3846 2571 c-3 -5 -15 -7 -26 -4 -18 5 -20 0 -20 -51 0 -42 4 -56 14
-56 10 0 16 14 18 43 2 29 8 42 18 42 10 0 16 -13 18 -42 2 -29 8 -43 18 -43
10 0 14 13 14 50 0 38 -4 52 -19 60 -24 12 -28 12 -35 1z"/>
<path d="M3997 2562 c-20 -22 -22 -73 -5 -90 23 -23 88 -9 88 20 0 4 -12 3
-26 -2 -26 -10 -44 -6 -44 11 0 5 16 9 35 9 28 0 35 4 35 19 0 20 -34 51 -56
51 -6 0 -18 -8 -27 -18z m53 -22 c0 -5 -9 -10 -20 -10 -11 0 -20 5 -20 10 0 6
9 10 20 10 11 0 20 -4 20 -10z"/>
<path d="M4141 2571 c-7 -5 -22 -6 -32 -4 -17 5 -19 -1 -19 -51 0 -43 3 -56
15 -56 10 0 15 10 15 34 0 24 7 39 21 50 23 16 23 41 0 27z"/>
<path d="M4216 2571 c-3 -5 -15 -7 -26 -4 -18 5 -20 0 -20 -51 0 -42 4 -56 14
-56 10 0 16 14 18 43 2 29 8 42 18 42 10 0 16 -13 18 -42 2 -29 8 -43 18 -43
10 0 14 13 14 50 0 38 -4 52 -19 60 -24 12 -28 12 -35 1z"/>
<path d="M4299 2560 l-24 -20 38 6 c46 8 49 -8 5 -21 -26 -8 -33 -15 -33 -35
0 -23 4 -25 48 -27 l47 -2 0 49 c0 39 -4 52 -19 60 -27 14 -35 13 -62 -10z
m51 -60 c0 -12 -28 -25 -36 -17 -9 9 6 27 22 27 8 0 14 -5 14 -10z"/>
<path d="M4532 2564 c-42 -29 -22 -104 28 -104 36 0 60 23 60 60 0 28 -30 60
-55 60 -6 0 -21 -7 -33 -16z m53 -25 c12 -19 -4 -61 -23 -57 -30 6 -28 68 2
68 8 0 18 -5 21 -11z"/>
<path d="M4681 2571 c-7 -5 -22 -6 -32 -4 -17 5 -19 -1 -19 -51 0 -42 4 -56
14 -56 10 0 16 14 18 42 2 31 8 44 21 46 14 3 17 -4 17 -42 0 -34 4 -46 15
-46 24 0 21 96 -3 109 -10 5 -24 6 -31 2z"/>
<path d="M4768 2569 c-29 -16 -21 -31 12 -24 19 4 30 3 30 -4 0 -6 -8 -11 -18
-11 -31 0 -55 -24 -48 -48 6 -18 14 -21 54 -20 l47 1 -3 46 c-5 61 -33 84 -74
60z m42 -68 c0 -14 -18 -23 -30 -16 -6 4 -8 11 -5 16 8 12 35 12 35 0z"/>
<path d="M5166 2571 c-3 -5 -15 -7 -26 -4 -19 5 -20 0 -20 -71 0 -61 3 -76 15
-76 9 0 15 9 15 24 0 20 4 22 27 18 31 -6 53 18 53 58 0 39 -48 77 -64 51z
m32 -50 c2 -13 -1 -28 -7 -34 -17 -17 -45 15 -36 42 9 29 39 23 43 -8z"/>
<path d="M5286 2571 c-3 -5 -15 -7 -26 -4 -19 5 -20 0 -20 -71 0 -61 3 -76 15
-76 9 0 15 9 15 24 0 19 4 22 23 19 50 -10 76 58 37 97 -22 22 -36 25 -44 11z
m29 -41 c8 -25 -11 -51 -31 -43 -14 5 -19 44 -7 56 13 13 32 7 38 -13z"/>
<path d="M5382 2564 c-15 -10 -22 -25 -22 -48 0 -39 15 -56 51 -56 55 0 78 61
39 100 -24 24 -38 25 -68 4z m53 -49 c0 -23 -4 -30 -20 -30 -21 0 -31 25 -21
51 11 28 41 12 41 -21z"/>
<path d="M5526 2571 c-3 -5 -15 -7 -26 -4 -18 5 -20 0 -20 -51 0 -42 4 -56 14
-56 10 0 16 14 18 43 2 27 7 41 16 40 6 -2 12 6 12 17 0 21 -5 26 -14 11z"/>
<path d="M5786 2571 c-3 -5 -15 -7 -26 -4 -18 5 -20 0 -20 -51 0 -42 4 -56 14
-56 10 0 16 14 18 42 2 31 8 44 21 46 14 3 17 -4 17 -42 0 -34 4 -46 15 -46
25 0 21 96 -4 110 -24 12 -28 12 -35 1z"/>
<path d="M3090 2515 c0 -42 3 -55 15 -55 12 0 15 13 15 55 0 42 -3 55 -15 55
-12 0 -15 -13 -15 -55z"/>
<path d="M4460 2515 c0 -42 3 -55 15 -55 12 0 15 13 15 55 0 42 -3 55 -15 55
-12 0 -15 -13 -15 -55z"/>
<path d="M5632 2518 l3 -53 43 -1 42 -1 0 54 c0 39 -4 53 -14 53 -10 0 -16
-14 -18 -42 -2 -30 -8 -43 -18 -43 -10 0 -16 13 -18 43 -2 23 -8 42 -13 42 -6
0 -9 -22 -7 -52z"/>
<path d="M5850 2515 c0 -42 3 -55 15 -55 12 0 15 13 15 55 0 42 -3 55 -15 55
-12 0 -15 -13 -15 -55z"/>
<path d="M4189 937 c4 -4 41 -7 82 -5 l74 3 -82 5 c-45 3 -78 1 -74 -3z"/>
<path d="M4515 940 l-70 -6 67 -2 c37 -1 70 3 73 8 3 6 5 9 3 8 -2 -1 -34 -4
-73 -8z"/>
<path d="M4618 943 c12 -2 30 -2 40 0 9 3 -1 5 -23 4 -22 0 -30 -2 -17 -4z"/>
<path d="M5121 5374 c0 -11 3 -14 6 -6 3 7 2 16 -1 19 -3 4 -6 -2 -5 -13z"/>
<path d="M5406 5281 c-4 -5 -2 -12 3 -15 5 -4 12 -2 15 3 4 5 2 12 -3 15 -5 4
-12 2 -15 -3z"/>
<path d="M5445 5219 c-5 -14 -1 -27 10 -38 9 -9 15 -11 14 -6 -1 6 1 18 6 28
6 15 10 16 16 5 7 -10 9 -10 9 0 0 6 0 15 0 19 0 4 -11 8 -24 10 -18 3 -26 -2
-31 -18z m16 -12 c-10 -9 -11 -8 -5 6 3 10 9 15 12 12 3 -3 0 -11 -7 -18z"/>
<path d="M3415 5120 c-4 -6 -10 -8 -15 -5 -5 3 -11 2 -14 -3 -2 -4 6 -8 18 -8
12 0 23 6 23 13 0 16 -4 16 -12 3z"/>
<path d="M5651 5064 c0 -11 3 -14 6 -6 3 7 2 16 -1 19 -3 4 -6 -2 -5 -13z"/>
<path d="M5787 5013 c3 -7 14 -18 24 -24 15 -8 17 -7 12 8 -6 15 -4 16 9 5 11
-9 18 -10 23 -2 6 9 -1 14 -17 11 -5 0 -8 4 -8 11 0 6 -7 3 -15 -8 -10 -13
-13 -14 -10 -3 4 9 0 16 -9 16 -8 0 -12 -6 -9 -14z"/>
<path d="M2270 4661 c0 -5 5 -13 10 -16 6 -3 10 -2 10 4 0 5 -4 13 -10 16 -5
3 -10 2 -10 -4z"/>
<path d="M1740 3635 c5 -6 6 -16 2 -21 -4 -4 0 -3 8 3 8 6 23 9 34 7 14 -2 16
0 7 9 -16 16 -64 18 -51 2z"/>
<path d="M1810 3576 c0 -2 7 -9 15 -16 13 -11 14 -10 9 4 -5 14 -24 23 -24 12z"/>
<path d="M1700 3499 c0 -5 -4 -8 -9 -5 -5 3 -15 -2 -22 -12 -12 -15 -12 -15 1
-5 8 6 19 11 25 11 5 0 11 5 13 11 2 6 1 11 -2 11 -3 0 -6 -5 -6 -11z"/>
<path d="M1525 2613 c-4 -19 -9 -23 -14 -14 -7 10 -9 10 -14 -2 -4 -10 2 -13
21 -12 20 1 27 7 28 23 2 33 -13 36 -21 5z"/>
<path d="M1525 2540 c6 -8 10 -18 11 -22 1 -5 2 -11 3 -15 2 -10 21 19 21 31
0 5 -3 6 -7 3 -3 -4 -13 -1 -21 6 -13 10 -14 9 -7 -3z"/>
<path d="M1723 2145 c0 -8 4 -12 9 -9 5 3 6 10 3 15 -9 13 -12 11 -12 -6z"/>
<path d="M1460 2128 c0 -4 9 -22 20 -40 11 -18 20 -28 20 -23 0 6 -9 24 -20
40 -11 17 -20 27 -20 23z"/>
<path d="M2016 1548 c3 -5 10 -6 15 -3 13 9 11 12 -6 12 -8 0 -12 -4 -9 -9z"/>
<path d="M5248 663 c7 -3 16 -2 19 1 4 3 -2 6 -13 5 -11 0 -14 -3 -6 -6z"/>
<path d="M4397 5753 c18 -2 50 -2 70 0 21 2 7 4 -32 4 -38 0 -55 -2 -38 -4z"/>
<path d="M5153 5653 c9 -2 23 -2 30 0 6 3 -1 5 -18 5 -16 0 -22 -2 -12 -5z"/>
<path d="M5340 5622 c0 -5 7 -13 16 -16 8 -3 12 -10 9 -16 -3 -6 1 -7 9 -4 9
3 16 11 16 16 0 6 7 8 15 4 8 -3 15 -1 15 5 0 7 -10 9 -26 5 -15 -4 -32 -2
-40 5 -8 7 -14 7 -14 1z"/>
<path d="M5514 5557 c9 -27 -3 -40 -22 -25 -9 7 -5 -2 8 -21 l24 -35 12 30 c8
19 9 31 2 35 -6 4 -15 13 -20 20 -7 11 -8 9 -4 -4z m7 -50 c-10 -9 -11 -8 -5
6 3 10 9 15 12 12 3 -3 0 -11 -7 -18z"/>
<path d="M5530 5560 c0 -5 5 -10 11 -10 5 0 7 5 4 10 -3 6 -8 10 -11 10 -2 0
-4 -4 -4 -10z"/>
<path d="M5566 5528 c3 -5 10 -6 15 -3 13 9 11 12 -6 12 -8 0 -12 -4 -9 -9z"/>
<path d="M5675 5530 c-3 -5 -1 -10 5 -10 6 0 15 -11 20 -25 10 -25 35 -34 42
-14 2 6 16 1 33 -13 16 -12 26 -17 21 -10 -7 12 1 14 59 14 20 -1 24 1 10 5
-11 3 -24 9 -29 14 -5 4 -17 4 -27 -2 -19 -10 -54 1 -101 33 -17 12 -29 15
-33 8z"/>
<path d="M5926 5456 c21 -15 30 -14 19 3 -3 6 -14 11 -23 11 -13 0 -13 -2 4
-14z"/>
<path d="M5843 5445 c0 -8 4 -12 9 -9 5 3 6 10 3 15 -9 13 -12 11 -12 -6z"/>
<path d="M5865 5420 c5 -8 10 -22 10 -30 0 -8 6 -15 13 -15 6 0 11 -4 10 -10
-2 -5 -7 -9 -13 -7 -5 2 -2 -5 8 -15 11 -13 13 -23 7 -29 -7 -7 -6 -11 4 -11
14 0 16 14 3 33 -3 6 -3 14 0 18 16 16 10 34 -9 31 -14 -3 -18 0 -15 10 3 7
-2 19 -11 27 -13 11 -14 11 -7 -2z"/>
<path d="M5989 5418 c-1 -2 -3 -15 -5 -30 -3 -28 3 -32 59 -42 38 -7 57 -24
57 -51 0 -17 7 -24 30 -29 17 -3 48 -22 69 -41 21 -20 47 -42 56 -49 13 -9 16
-20 10 -44 -3 -18 -11 -30 -16 -26 -5 3 -6 10 -3 16 4 7 2 8 -5 4 -9 -6 -9
-11 0 -22 13 -16 29 -9 29 13 0 14 3 14 20 -2 11 -10 20 -13 20 -7 0 7 -5 12
-11 12 -6 0 -3 7 6 16 9 10 26 14 40 11 29 -5 31 -1 10 19 -8 9 -15 11 -15 5
0 -6 -5 -11 -12 -11 -6 0 -20 -8 -30 -17 -19 -17 -19 -16 -13 9 5 21 1 33 -23
57 -16 17 -35 31 -41 31 -7 0 -49 36 -93 80 -44 44 -86 80 -93 80 -8 0 -17 5
-20 10 -6 9 -23 14 -26 8z"/>
<path d="M5934 5394 c1 -8 4 -15 7 -16 2 -2 3 -1 2 1 -2 2 2 9 7 16 7 8 5 12
-4 12 -8 0 -13 -6 -12 -13z"/>
<path d="M5506 5353 c7 -37 14 -42 14 -10 0 14 -4 28 -9 32 -6 3 -8 -6 -5 -22z"/>
<path d="M3003 5357 c-5 -6 -14 -24 -20 -39 -10 -23 -9 -27 9 -32 18 -4 19 -7
8 -21 -11 -14 -11 -16 1 -13 38 8 83 108 49 108 -6 0 -8 -11 -6 -25 3 -13 1
-27 -4 -30 -16 -10 -40 7 -40 28 0 19 1 20 13 3 12 -16 13 -16 14 3 2 25 -11
35 -24 18z"/>
<path d="M5959 5365 c-1 -3 -2 -9 -3 -15 0 -5 -5 -9 -11 -7 -5 1 -9 6 -7 10 1
5 -2 6 -8 2 -8 -5 -8 -11 -1 -19 6 -7 7 -17 3 -22 -4 -4 0 -3 9 4 9 6 18 10
20 7 3 -2 5 7 5 20 0 22 -4 33 -7 20z"/>
<path d="M3181 5332 c-18 -19 2 -39 27 -26 17 8 17 10 2 25 -14 13 -18 13 -29
1z"/>
<path d="M2633 5313 c-13 -2 -23 -10 -23 -17 0 -7 -10 -23 -22 -36 -17 -18
-43 -71 -48 -96 0 0 7 -1 15 -1 8 0 12 4 9 8 -2 4 4 14 15 21 11 8 27 32 37
53 10 22 25 48 33 58 8 9 12 16 10 16 -2 -1 -14 -4 -26 -6z"/>
<path d="M5557 5313 c-9 -2 -15 -9 -11 -14 3 -5 10 -6 16 -3 7 4 8 2 4 -5 -4
-6 -12 -9 -17 -6 -5 4 -9 2 -9 -3 0 -13 25 -33 33 -26 3 3 10 -3 16 -15 6 -11
7 -22 3 -25 -11 -6 -9 -56 1 -56 4 0 10 0 13 0 4 0 0 8 -7 17 -8 10 -9 14 -2
10 6 -4 14 -3 18 3 4 6 10 8 15 5 9 -6 33 21 36 40 1 8 -7 22 -19 32 -11 10
-17 12 -12 4 5 -9 3 -12 -6 -9 -8 3 -13 11 -11 18 3 11 0 11 -12 1 -12 -10
-17 -9 -25 7 -6 11 -7 22 -4 26 3 3 4 5 2 5 -2 -1 -12 -3 -22 -6z m43 -47 c1
5 12 -4 25 -21 22 -27 24 -28 18 -6 -4 16 -2 22 5 18 11 -8 10 -32 -2 -44 -4
-4 -18 -8 -31 -9 -18 -1 -22 2 -15 11 12 14 -17 58 -32 49 -7 -4 -8 -2 -4 5 6
9 11 9 22 0 8 -6 14 -8 14 -3z"/>
<path d="M5609 5241 c6 -10 8 -20 6 -23 -3 -3 1 -5 9 -5 12 0 12 4 -1 24 -18
28 -28 31 -14 4z"/>
<path d="M3102 5287 c0 -7 -3 -21 -6 -32 -2 -11 -5 -24 -5 -28 -1 -5 -6 -5
-13 -1 -7 5 -8 3 -3 -5 9 -16 24 -2 30 27 2 12 6 26 10 31 3 5 2 12 -3 15 -5
3 -9 0 -10 -7z"/>
<path d="M5729 5288 c12 -17 65 -22 55 -6 -3 4 -11 5 -19 1 -9 -3 -23 1 -33 8
-15 13 -16 12 -3 -3z"/>
<path d="M2660 5275 c12 -14 7 -19 -13 -16 -5 1 -6 -3 -2 -9 5 -8 11 -7 21 1
11 9 11 15 3 25 -6 8 -14 14 -16 14 -3 0 0 -7 7 -15z"/>
<path d="M2687 5273 c3 -7 6 -13 8 -13 2 0 5 6 8 13 3 8 -1 14 -8 14 -7 0 -11
-6 -8 -14z"/>
<path d="M2925 5270 c10 -11 20 -20 23 -20 3 0 -3 9 -13 20 -10 11 -20 20 -23
20 -3 0 3 -9 13 -20z"/>
<path d="M5666 5268 c3 -5 10 -6 15 -3 13 9 11 12 -6 12 -8 0 -12 -4 -9 -9z"/>
<path d="M6226 5262 c5 -4 21 -17 35 -30 19 -17 26 -19 26 -8 0 8 -3 13 -7 11
-4 -3 -15 4 -25 15 -10 11 -23 20 -29 20 -6 0 -6 -3 0 -8z"/>
<path d="M6268 5263 c7 -3 16 -2 19 1 4 3 -2 6 -13 5 -11 0 -14 -3 -6 -6z"/>
<path d="M5686 5228 c3 -5 10 -6 15 -3 13 9 11 12 -6 12 -8 0 -12 -4 -9 -9z"/>
<path d="M2700 5210 c0 -5 5 -10 11 -10 5 0 7 5 4 10 -3 6 -8 10 -11 10 -2 0
-4 -4 -4 -10z"/>
<path d="M2591 5156 c-17 -20 2 -28 25 -11 19 15 19 15 0 8 -13 -4 -17 -3 -12
5 10 17 1 15 -13 -2z"/>
<path d="M2520 5124 c-6 -14 -10 -29 -10 -34 0 -13 -54 -40 -78 -40 -11 0 -22
7 -26 15 -7 20 -52 19 -73 -2 -10 -10 -24 -18 -30 -18 -7 0 -12 -4 -10 -10 3
-13 30 -13 39 0 5 6 8 5 8 -2 0 -9 7 -10 25 -3 14 5 45 7 70 3 31 -4 45 -2 45
6 0 6 5 11 11 11 5 0 3 -10 -5 -22 -26 -36 -21 -93 10 -117 15 -12 34 -21 44
-21 10 0 29 9 44 21 20 16 26 29 26 58 0 40 -29 81 -56 81 -14 0 -14 2 0 16
20 20 20 30 0 38 -10 4 -14 14 -11 26 8 29 -12 24 -23 -6z"/>
<path d="M5875 5130 c4 -6 12 -7 18 -4 8 5 8 3 0 -7 -7 -7 -13 -18 -13 -23 0
-6 4 -5 9 2 6 10 13 3 25 -23 14 -29 20 -34 31 -25 10 9 16 7 24 -8 6 -11 9
-21 8 -24 -1 -2 6 5 16 15 23 26 22 33 -13 47 -16 7 -30 16 -30 20 0 9 -57 40
-72 40 -5 0 -6 -5 -3 -10z m56 -34 c5 3 8 0 7 -7 -2 -7 3 -14 10 -15 6 -1 15
-3 20 -4 4 -1 9 -2 12 -2 3 0 7 -9 7 -20 2 -21 2 -21 -13 1 -13 19 -18 20 -32
9 -9 -7 -13 -8 -9 -2 4 7 0 17 -8 24 -8 7 -15 18 -14 24 0 7 2 6 6 -2 2 -6 9
-10 14 -6z"/>
<path d="M6167 5124 c-10 -11 11 -41 33 -47 11 -3 20 -2 20 2 0 13 -46 52 -53
45z"/>
<path d="M5590 5115 c0 -5 5 -17 10 -25 5 -8 10 -10 10 -5 0 6 -5 17 -10 25
-5 8 -10 11 -10 5z"/>
<path d="M5722 5026 c1 -14 5 -23 9 -20 7 4 0 44 -7 44 -2 0 -3 -11 -2 -24z"/>
<path d="M6466 5028 c3 -5 10 -6 15 -3 13 9 11 12 -6 12 -8 0 -12 -4 -9 -9z"/>
<path d="M1940 4917 c-47 -50 -96 -106 -108 -123 -21 -31 -21 -32 -3 -37 23
-6 61 18 61 38 0 13 38 41 51 38 3 -1 5 12 5 30 -1 32 -1 32 45 29 33 -1 48 2
52 12 3 8 -1 17 -9 20 -8 3 -14 13 -14 21 0 9 4 14 9 10 5 -3 12 -1 15 4 4 5
2 12 -3 15 -5 4 -12 2 -16 -4 -4 -6 -11 -8 -16 -4 -6 4 -6 11 2 20 6 7 15 11
20 8 5 -3 9 0 9 5 0 23 -18 8 -100 -82z m77 16 c7 -15 11 -29 8 -31 -3 -3 -5
0 -5 6 0 7 -5 12 -11 12 -5 0 -8 -4 -5 -9 4 -5 -2 -8 -11 -7 -10 2 -18 9 -18
17 0 8 6 13 14 11 8 -2 11 3 8 13 -11 26 7 16 20 -12z"/>
<path d="M2390 4949 c-11 -19 -10 -20 9 -9 22 11 29 30 11 30 -5 0 -14 -9 -20
-21z"/>
<path d="M5911 4951 c-8 -5 -9 -11 -3 -15 5 -3 12 1 16 9 6 17 6 18 -13 6z"/>
<path d="M2554 4865 c24 -18 49 -20 44 -2 -3 6 -18 13 -34 15 -28 2 -28 2 -10
-13z"/>
<path d="M6263 4865 c0 -8 4 -12 9 -9 5 3 6 10 3 15 -9 13 -12 11 -12 -6z"/>
<path d="M6320 4877 c0 -2 6 -10 14 -16 11 -9 16 -9 22 1 4 7 4 10 -1 6 -4 -4
-14 -3 -22 3 -7 6 -13 9 -13 6z"/>
<path d="M1963 4823 c0 -9 4 -10 14 -2 7 6 13 12 13 14 0 1 -6 2 -13 2 -8 0
-14 -6 -14 -14z"/>
<path d="M2030 4822 c0 -23 19 -42 42 -42 20 0 23 12 8 41 -14 24 -50 25 -50
1z"/>
<path d="M1990 4815 c-7 -9 -11 -17 -9 -20 3 -2 10 5 17 15 14 24 10 26 -8 5z"/>
<path d="M2009 4805 c-1 -6 -1 -14 0 -19 1 -4 -4 -14 -10 -22 -9 -11 -8 -14 2
-14 11 0 11 -2 -1 -10 -11 -7 -7 -8 15 -6 16 2 31 9 33 17 3 11 2 11 -6 1 -7
-10 -12 -9 -23 4 -8 10 -9 15 -2 11 19 -12 27 14 9 31 -9 9 -17 12 -17 7z"/>
<path d="M1744 4738 c-18 -25 -46 -79 -42 -82 1 -1 10 -7 20 -14 12 -10 18
-10 24 -1 4 7 3 9 -4 5 -28 -17 -17 15 18 54 22 25 40 46 40 47 0 9 -49 1 -56
-9z"/>
<path d="M6996 4718 c3 -5 10 -6 15 -3 13 9 11 12 -6 12 -8 0 -12 -4 -9 -9z"/>
<path d="M1793 4627 c0 -8 6 -14 14 -14 9 0 10 4 2 14 -6 7 -12 13 -14 13 -1
0 -2 -6 -2 -13z"/>
<path d="M1737 4585 c-26 -19 -18 -48 17 -60 23 -8 30 -6 42 9 17 24 10 36
-23 36 -18 0 -24 4 -19 15 7 18 6 18 -17 0z"/>
<path d="M1696 4572 c-2 -4 -1 -14 4 -22 7 -11 9 -9 7 8 -1 24 -3 26 -11 14z"/>
<path d="M7065 4541 c21 -13 34 -15 43 -8 7 5 10 12 7 16 -3 3 -10 0 -14 -7
-6 -10 -11 -10 -21 3 -7 8 -20 15 -29 15 -10 0 -5 -7 14 -19z"/>
<path d="M6796 4513 c-6 -14 -5 -15 5 -6 7 7 10 15 7 18 -3 3 -9 -2 -12 -12z"/>
<path d="M6825 4522 c3 -3 0 -10 -5 -17 -7 -8 -5 -12 5 -12 8 0 13 3 10 5 -3
3 0 10 5 17 7 8 5 12 -5 12 -8 0 -13 -3 -10 -5z"/>
<path d="M7200 4511 c0 -11 4 -22 9 -25 4 -3 6 6 3 19 -5 30 -12 33 -12 6z"/>
<path d="M6850 4494 c-6 -14 -14 -23 -18 -20 -4 2 -9 -5 -9 -17 -2 -20 -1 -20
8 -4 9 15 13 16 27 6 14 -11 15 -11 5 0 -8 9 -9 21 -3 37 5 13 7 24 5 24 -3 0
-10 -12 -15 -26z"/>
<path d="M1818 4468 c-40 -53 -60 -97 -38 -83 6 3 10 1 10 -6 0 -6 -8 -9 -18
-7 -11 3 -19 0 -19 -7 0 -7 10 -10 24 -7 13 2 23 0 23 -6 0 -17 -22 -64 -39
-87 -15 -18 -15 -19 0 -7 9 6 19 8 23 4 4 -4 7 -2 6 3 -5 23 1 46 10 40 6 -4
8 -10 5 -15 -3 -5 -1 -11 4 -15 6 -3 8 3 6 15 -2 11 3 24 13 29 15 8 15 12 3
23 -8 8 -11 8 -7 1 3 -6 2 -14 -4 -18 -5 -3 -11 4 -12 17 -2 42 -3 47 -10 54
-10 9 10 44 25 43 9 0 9 -2 0 -6 -7 -2 -13 -9 -13 -14 0 -6 4 -8 9 -4 5 3 13
1 16 -5 4 -6 1 -9 -5 -8 -16 4 -22 -30 -7 -39 7 -3 9 -2 4 2 -4 5 1 17 10 27
14 15 14 21 4 27 -16 10 -15 14 4 51 21 40 4 38 -27 -2z"/>
<path d="M7265 4480 c-3 -5 -13 -7 -23 -4 -13 5 -14 4 -3 -4 10 -7 11 -14 2
-31 -14 -25 -7 -41 17 -41 15 0 15 2 2 10 -15 10 -8 14 22 11 21 -2 33 35 18
54 -14 17 -26 19 -35 5z"/>
<path d="M7045 4470 c-11 -5 -32 -9 -46 -9 -22 -1 -28 -9 -43 -57 -21 -67 -12
-97 35 -113 26 -9 28 -13 22 -41 -8 -41 7 -50 60 -37 56 13 65 24 68 77 2 25
8 49 14 53 6 5 4 7 -5 4 -8 -2 -16 -9 -16 -15 -3 -25 -5 -26 -14 -11 -5 9 -25
20 -44 23 -38 7 -61 29 -53 49 3 8 26 20 51 27 46 13 56 26 34 48 -14 14 -34
14 -63 2z"/>
<path d="M6682 4449 c2 -6 -3 -14 -11 -17 -9 -3 -11 0 -6 8 6 9 4 11 -4 5 -9
-5 -10 -10 -2 -18 8 -8 16 -7 27 5 11 11 13 18 5 23 -6 3 -10 1 -9 -6z"/>
<path d="M6711 4444 c0 -11 3 -14 6 -6 3 7 2 16 -1 19 -3 4 -6 -2 -5 -13z"/>
<path d="M6730 4432 c0 -12 49 -37 57 -28 3 2 -6 7 -19 11 -13 4 -26 13 -30
19 -5 8 -8 7 -8 -2z"/>
<path d="M7372 4331 c-11 -7 -10 -10 3 -15 23 -9 25 -8 25 9 0 17 -9 19 -28 6z"/>
<path d="M7222 4257 c-2 -44 1 -49 28 -65 21 -12 28 -22 24 -34 -3 -10 -1 -18
5 -18 23 0 10 40 -19 56 -24 15 -30 25 -33 63 l-3 46 -2 -48z"/>
<path d="M7153 4252 c2 -12 6 -24 10 -28 3 -4 4 4 2 16 -6 30 -16 40 -12 12z"/>
<path d="M7176 4260 c6 -8 10 -23 9 -32 -4 -22 -1 -22 14 -5 8 11 6 18 -11 33
-13 10 -18 12 -12 4z"/>
<path d="M1701 4214 c-15 -19 -19 -34 -14 -53 8 -35 16 -42 12 -11 -2 14 5 40
14 58 21 39 16 41 -12 6z"/>
<path d="M7140 4210 c6 -11 13 -20 16 -20 2 0 0 9 -6 20 -6 11 -13 20 -16 20
-2 0 0 -9 6 -20z"/>
<path d="M7080 4202 c0 -6 -6 -9 -14 -6 -18 7 -30 -12 -15 -22 8 -4 9 -3 5 4
-4 7 -2 12 3 12 6 0 11 -6 11 -12 0 -7 5 -5 11 5 6 10 8 21 5 24 -3 4 -6 1 -6
-5z"/>
<path d="M7098 4192 c-4 -12 -2 -24 2 -27 13 -8 18 8 10 29 -6 19 -7 19 -12
-2z"/>
<path d="M7121 4205 c1 -19 18 -51 18 -35 0 8 -4 22 -9 30 -5 8 -9 11 -9 5z"/>
<path d="M7225 4150 c3 -4 -5 -10 -18 -14 -32 -9 -109 -7 -103 2 2 4 -12 6
-32 3 l-37 -5 30 -7 c52 -12 131 -10 165 5 29 12 30 14 11 19 -12 3 -19 2 -16
-3z"/>
<path d="M6960 4061 c0 -6 4 -13 10 -16 6 -3 7 1 4 9 -7 18 -14 21 -14 7z"/>
<path d="M7415 3930 c-47 -24 -67 -25 -106 -4 -17 8 -33 13 -35 11 -3 -2 9
-10 26 -17 23 -9 28 -15 18 -21 -31 -20 40 -7 86 16 56 27 66 25 67 -13 0 -15
3 -21 6 -14 6 16 -5 62 -15 62 -4 0 -25 -9 -47 -20z"/>
<path d="M7225 3900 c3 -5 16 -10 28 -9 21 0 21 1 2 9 -28 12 -37 12 -30 0z"/>
<path d="M7378 3883 c7 -3 16 -2 19 1 4 3 -2 6 -13 5 -11 0 -14 -3 -6 -6z"/>
<path d="M7438 3858 c5 -5 16 -8 23 -6 8 3 3 7 -10 11 -17 4 -21 3 -13 -5z"/>
<path d="M7050 3832 c0 -16 42 -83 64 -101 16 -14 16 -15 -6 -27 -13 -8 -31
-13 -42 -14 -15 0 -16 3 -6 15 13 16 4 79 -11 70 -5 -3 -3 -14 3 -25 10 -15
10 -22 0 -32 -18 -18 -15 -38 5 -38 10 0 36 8 59 17 l40 17 -33 29 c-19 17
-43 46 -53 66 -11 20 -19 30 -20 23z"/>
<path d="M1550 3581 c0 -6 4 -13 10 -16 6 -3 7 1 4 9 -7 18 -14 21 -14 7z"/>
<path d="M7487 3525 c-37 -13 -58 -25 -43 -25 4 0 15 4 24 9 60 32 119 12 107
-36 -4 -16 -2 -22 5 -18 16 10 12 43 -10 65 -23 23 -32 24 -83 5z"/>
<path d="M7482 3484 c10 -10 20 -16 22 -13 3 3 -5 11 -17 18 -21 13 -21 12 -5
-5z"/>
<path d="M7092 3230 c0 -19 2 -27 5 -17 2 9 2 25 0 35 -3 9 -5 1 -5 -18z"/>
<path d="M7258 3078 c22 -24 22 -27 6 -36 -14 -8 -6 -12 42 -22 32 -7 69 -19
82 -27 25 -15 63 -14 69 2 6 20 -63 48 -103 41 -33 -7 -41 -4 -78 31 -22 21
-30 26 -18 11z m162 -68 c18 -16 20 -20 7 -20 -10 0 -17 5 -17 11 0 5 -4 8 -9
5 -4 -3 -17 1 -27 9 -18 14 -18 14 2 15 12 0 31 -9 44 -20z"/>
<path d="M1392 2965 c0 -16 2 -22 5 -12 2 9 2 23 0 30 -3 6 -5 -1 -5 -18z"/>
<path d="M7220 2900 c8 -5 24 -10 34 -10 26 0 18 6 -19 14 -22 5 -26 4 -15 -4z"/>
<path d="M7293 2903 c9 -2 15 -8 12 -13 -3 -4 4 -6 16 -3 16 4 17 8 7 14 -7 5
-22 8 -33 8 -17 -1 -17 -2 -2 -6z"/>
<path d="M7480 2530 c-8 -5 -30 -10 -47 -10 l-33 0 43 -62 c23 -35 47 -63 51
-63 11 0 38 114 32 132 -6 15 -25 17 -46 3z m33 -31 c-6 -6 -9 -18 -6 -27 4
-9 2 -13 -4 -9 -6 4 -8 -3 -6 -17 9 -43 -15 -37 -41 10 -30 53 -31 58 -13 51
7 -3 24 1 38 8 27 15 51 3 32 -16z"/>
<path d="M7475 2501 c-3 -5 -2 -12 3 -15 5 -3 9 1 9 9 0 17 -3 19 -12 6z"/>
<path d="M7455 2480 c10 -11 20 -20 23 -20 3 0 -3 9 -13 20 -10 11 -20 20 -23
20 -3 0 3 -9 13 -20z"/>
<path d="M7321 2143 c10 -11 10 -14 2 -9 -7 4 -13 3 -13 -3 0 -5 5 -11 11 -13
27 -9 9 -128 -19 -128 -17 0 -56 66 -54 90 1 19 0 22 -8 10 -6 -9 -10 -10 -10
-3 0 7 8 17 18 22 15 9 15 10 1 11 -9 0 -22 -6 -28 -14 -13 -16 9 -69 50 -116
l21 -25 29 33 c24 26 29 41 29 81 0 27 3 56 6 65 5 12 0 16 -21 16 -25 0 -26
-2 -14 -17z"/>
<path d="M7275 2140 c-3 -6 1 -7 9 -4 18 7 21 14 7 14 -6 0 -13 -4 -16 -10z"/>
<path d="M6913 1513 c32 -5 47 -31 26 -44 -8 -5 -9 -9 -4 -9 6 0 17 4 25 10
22 13 -15 50 -49 49 -26 -2 -26 -2 2 -6z"/>
<path d="M2607 979 c7 -7 15 -10 18 -7 3 3 -2 9 -12 12 -14 6 -15 5 -6 -5z"/>
<path d="M6035 970 c-3 -5 -17 -10 -31 -10 -13 0 -24 -4 -24 -9 0 -10 39 -3
56 11 6 4 19 6 28 2 9 -3 16 -1 16 5 0 14 -37 15 -45 1z"/>
<path d="M5987 896 c-6 -15 11 -36 28 -36 5 0 2 5 -7 11 -10 5 -15 16 -12 24
4 8 4 15 1 15 -3 0 -7 -6 -10 -14z"/>
<path d="M6065 888 c-30 -17 -36 -32 -17 -39 19 -7 38 5 53 33 11 21 -4 24
-36 6z"/>
<path d="M5307 835 c3 -8 9 -12 14 -9 12 7 11 11 -5 17 -10 4 -13 1 -9 -8z"/>
<path d="M5730 803 c0 -15 2 -16 10 -3 7 11 10 11 10 2 0 -7 5 -10 10 -7 13 8
3 25 -16 25 -8 0 -14 -8 -14 -17z"/>
<path d="M5645 690 c-3 -5 -1 -10 4 -10 6 0 11 5 11 10 0 6 -2 10 -4 10 -3 0
-8 -4 -11 -10z"/>
<path d="M5520 678 c0 -4 7 -8 15 -8 8 0 15 4 15 8 0 5 -7 9 -15 9 -8 0 -15
-4 -15 -9z"/>
<path d="M5350 676 c0 -2 7 -7 16 -10 8 -3 12 -2 9 4 -6 10 -25 14 -25 6z"/>
<path d="M5454 659 c-3 -5 9 -9 25 -9 17 0 31 2 31 4 0 8 -51 13 -56 5z"/>
<path d="M5264 598 c-3 -4 4 -8 15 -8 12 0 21 4 21 8 0 5 -7 9 -15 9 -9 0 -18
-4 -21 -9z"/>
</g>
</svg>
