<?xml version="1.0" standalone="no"?>
<!DOCTYPE svg PUBLIC "-//W3C//DTD SVG 20010904//EN"
 "http://www.w3.org/TR/2001/REC-SVG-20010904/DTD/svg10.dtd">
<svg version="1.0" xmlns="http://www.w3.org/2000/svg"
 width="258.000000pt" height="245.000000pt" viewBox="0 0 258.000000 245.000000"
 preserveAspectRatio="xMidYMid meet">

<g transform="translate(0.000000,245.000000) scale(0.100000,-0.100000)"
fill="#000000" stroke="none">
<path d="M0 1225 l0 -1225 1290 0 1290 0 0 1225 0 1225 -1290 0 -1290 0 0
-1225z m1369 430 c35 -9 89 -29 120 -45 59 -32 151 -107 116 -95 -42 15 -156
17 -222 5 -90 -17 -179 -49 -343 -125 -74 -34 -152 -68 -173 -75 -53 -17 -144
-15 -212 5 -67 19 -68 30 -2 15 78 -17 103 -6 139 61 39 74 146 177 223 214
110 54 233 68 354 40z m281 -246 c30 -15 71 -40 90 -57 l35 -30 -75 25 c-66
22 -86 25 -175 20 -89 -4 -120 -12 -280 -66 -268 -91 -382 -109 -488 -77 -45
14 -142 64 -135 71 2 2 28 -3 58 -11 38 -11 86 -14 155 -11 92 4 114 9 275 67
251 91 289 100 395 97 73 -2 100 -7 145 -28z m-257 -229 c26 -29 29 -38 24
-79 -4 -34 -12 -52 -36 -73 -28 -25 -39 -28 -101 -28 l-70 0 0 -50 c0 -49 -1
-50 -30 -50 l-30 0 0 160 0 159 68 3 c102 5 142 -5 175 -42z m327 15 c0 -23
-3 -25 -50 -25 l-50 0 0 -135 0 -135 -30 0 -30 0 0 135 0 135 -50 0 c-47 0
-50 2 -50 25 l0 25 130 0 130 0 0 -25z m310 -2 l0 -28 -87 0 -88 0 -3 -37 -3
-38 91 0 91 0 -3 -27 c-3 -28 -3 -28 -90 -31 l-88 -3 0 -34 0 -35 90 0 90 0 0
-30 0 -30 -120 0 -120 0 0 160 0 160 120 0 120 0 0 -27z m-1254 9 c6 -4 14
-43 16 -87 9 -140 69 -251 184 -338 84 -64 142 -81 269 -81 124 0 191 19 268
78 29 22 59 35 92 39 l50 6 -55 -52 c-102 -95 -210 -137 -355 -137 -96 0 -162
16 -244 60 -153 82 -249 222 -271 394 -13 107 2 147 46 118z m107 -254 c31
-54 120 -139 173 -166 78 -40 151 -55 243 -49 47 3 97 8 111 11 14 4 7 -1 -15
-9 -102 -41 -253 -26 -361 36 -102 58 -196 188 -209 290 -6 43 -5 43 13 -13
11 -31 31 -76 45 -100z"/>
<path d="M1131 1595 c-108 -31 -233 -123 -275 -202 l-16 -32 30 10 c16 6 100
46 187 88 185 91 211 100 301 110 l67 7 -40 13 c-65 20 -193 23 -254 6z"/>
<path d="M1210 1110 l0 -60 55 0 c60 0 95 22 95 60 0 38 -35 60 -95 60 l-55 0
0 -60z"/>
</g>
</svg>
